<svg width="800" height="800" viewBox="0 0 800 800" fill="none" xmlns="http://www.w3.org/2000/svg">
<g clip-path="url(#clip0_6902_61)">
<rect width="800" height="800" fill="#00857C"/>
<path d="M326 317.778C399.638 317.778 459.333 258.082 459.333 184.444C459.333 110.806 399.638 51.1111 326 51.1111C252.362 51.1111 192.667 110.806 192.667 184.444C192.667 258.082 252.362 317.778 326 317.778Z" fill="#FDFCFF"/>
<path d="M365.333 707.111C357.99 699.848 353.198 690.4 351.675 680.184C350.153 669.968 351.982 659.533 356.889 650.444L368.667 628.222L344.444 620.889C334.567 617.797 325.968 611.568 319.952 603.145C313.936 594.723 310.832 584.568 311.111 574.222V528.667C311.092 518.366 314.388 508.332 320.511 500.049C326.633 491.765 335.258 485.671 345.111 482.667L369.333 475.333L357.778 453.111C353.015 444.146 351.202 433.907 352.599 423.852C353.995 413.797 358.53 404.439 365.556 397.111C348.46 394.87 331.242 393.682 314 393.555C263.074 392.357 212.511 402.41 165.916 422.999C119.322 443.588 77.8456 474.205 44.4445 512.667V684.889C44.4445 690.783 46.7857 696.435 50.9532 700.602C55.1207 704.77 60.773 707.111 66.6667 707.111H365.333Z" fill="#FDFCFF"/>
<path d="M748.889 521.333L704.444 508C701.365 497.025 697.04 486.437 691.556 476.444L713.778 435.111C714.637 433.577 714.951 431.797 714.668 430.062C714.386 428.326 713.523 426.738 712.222 425.556L680 393.111C678.759 391.903 677.176 391.106 675.467 390.828C673.758 390.55 672.004 390.804 670.444 391.556L629.333 413.778C619.214 408.281 608.568 403.814 597.556 400.444L584 356C583.403 354.361 582.314 352.947 580.882 351.953C579.449 350.958 577.744 350.431 576 350.444H529.778C528.045 350.493 526.369 351.073 524.978 352.107C523.586 353.141 522.547 354.577 522 356.222L508.667 400.667C497.441 403.933 486.629 408.481 476.444 414.222L436.222 392C434.658 391.169 432.873 390.85 431.118 391.09C429.364 391.329 427.729 392.114 426.444 393.333L393.778 425.333C392.492 426.573 391.644 428.198 391.363 429.962C391.083 431.726 391.384 433.534 392.222 435.111L414.444 475.556C408.491 485.593 403.648 496.248 400 507.333L355.556 520.889C353.874 521.375 352.399 522.399 351.355 523.804C350.312 525.208 349.758 526.917 349.778 528.667V574.222C349.758 575.972 350.312 577.68 351.355 579.085C352.399 580.49 353.874 581.514 355.556 582L400 595.556C403.331 606.439 407.8 616.942 413.333 626.889L391.111 669.111C390.273 670.689 389.972 672.496 390.252 674.26C390.533 676.025 391.38 677.649 392.667 678.889L425.778 711.111C427.062 712.331 428.697 713.115 430.452 713.355C432.206 713.594 433.992 713.276 435.556 712.444L477.111 690.222C487 695.541 497.43 699.787 508.222 702.889L521.556 748.444C522.115 750.125 523.188 751.587 524.624 752.623C526.059 753.66 527.785 754.22 529.556 754.222H575.111C576.844 754.174 578.52 753.593 579.911 752.56C581.303 751.526 582.342 750.089 582.889 748.444L596.222 702.889C606.886 699.826 617.172 695.577 626.889 690.222L668.889 712.444C670.453 713.276 672.238 713.594 673.993 713.355C675.747 713.115 677.382 712.331 678.667 711.111L711.111 678.889C712.331 677.605 713.115 675.97 713.355 674.215C713.594 672.46 713.276 670.675 712.444 669.111L690.222 627.333C695.538 617.598 699.785 607.316 702.889 596.667L747.333 583.111C749.003 582.574 750.47 581.543 751.542 580.154C752.613 578.766 753.238 577.085 753.333 575.333V529.333C753.388 527.722 753.003 526.127 752.22 524.717C751.437 523.308 750.286 522.138 748.889 521.333ZM552.667 626.222C537.978 626.266 523.606 621.951 511.371 613.822C499.136 605.693 489.588 594.116 483.936 580.558C478.284 567 476.783 552.069 479.621 537.657C482.46 523.244 489.511 509.998 499.883 499.596C510.254 489.194 523.479 482.103 537.882 479.221C552.286 476.339 567.221 477.796 580.796 483.407C594.372 489.018 605.977 498.531 614.142 510.741C622.308 522.952 626.667 537.311 626.667 552C626.667 571.647 618.877 590.492 605.006 604.405C591.135 618.318 572.313 626.163 552.667 626.222Z" fill="#FDFCFF"/>
</g>
<defs>
<clipPath id="clip0_6902_61">
<rect width="800" height="800" fill="white"/>
</clipPath>
</defs>
</svg>
