<svg width="1000" height="150" viewBox="0 0 1000 150" fill="none" xmlns="http://www.w3.org/2000/svg">
<rect width="1000" height="150" rx="8" fill="#EDEDED"/>
<path d="M174.72 73L173.04 66.568H161.904L160.176 73H150L161.184 38.584H173.52L184.848 73H174.72ZM169.632 53.368C169.472 52.76 169.248 51.896 168.96 50.776C168.672 49.624 168.384 48.44 168.096 47.224C167.808 46.008 167.584 45.016 167.424 44.248C167.296 45.016 167.088 45.976 166.8 47.128C166.544 48.28 166.272 49.416 165.984 50.536C165.728 51.656 165.504 52.6 165.312 53.368L163.824 58.984H171.12L169.632 53.368ZM210.94 62.584C210.94 64.44 210.46 66.2 209.5 67.864C208.572 69.528 207.116 70.888 205.132 71.944C203.18 72.968 200.636 73.48 197.5 73.48C195.932 73.48 194.556 73.4 193.372 73.24C192.22 73.112 191.132 72.888 190.108 72.568C189.084 72.248 188.028 71.832 186.94 71.32V63.064C188.796 63.992 190.668 64.712 192.556 65.224C194.444 65.704 196.156 65.944 197.692 65.944C198.62 65.944 199.372 65.832 199.948 65.608C200.524 65.384 200.956 65.08 201.244 64.696C201.532 64.312 201.676 63.88 201.676 63.4C201.676 62.792 201.468 62.28 201.052 61.864C200.636 61.448 199.98 61.016 199.084 60.568C198.188 60.12 196.988 59.56 195.484 58.888C194.204 58.312 193.052 57.704 192.028 57.064C191.004 56.424 190.124 55.704 189.388 54.904C188.684 54.104 188.14 53.176 187.756 52.12C187.372 51.032 187.18 49.752 187.18 48.28C187.18 46.072 187.724 44.232 188.812 42.76C189.9 41.256 191.404 40.136 193.324 39.4C195.276 38.632 197.532 38.248 200.092 38.248C202.332 38.248 204.348 38.504 206.14 39.016C207.932 39.496 209.532 40.056 210.94 40.696L208.108 47.848C206.636 47.176 205.18 46.648 203.74 46.264C202.332 45.848 201.02 45.64 199.804 45.64C199.004 45.64 198.348 45.736 197.836 45.928C197.324 46.12 196.94 46.392 196.684 46.744C196.46 47.064 196.348 47.432 196.348 47.848C196.348 48.392 196.556 48.872 196.972 49.288C197.388 49.704 198.076 50.168 199.036 50.68C200.028 51.16 201.372 51.784 203.068 52.552C204.732 53.288 206.14 54.104 207.292 55C208.476 55.864 209.372 56.904 209.98 58.12C210.62 59.304 210.94 60.792 210.94 62.584ZM238.643 62.584C238.643 64.44 238.163 66.2 237.203 67.864C236.275 69.528 234.819 70.888 232.835 71.944C230.883 72.968 228.339 73.48 225.203 73.48C223.635 73.48 222.259 73.4 221.075 73.24C219.923 73.112 218.835 72.888 217.811 72.568C216.787 72.248 215.731 71.832 214.643 71.32V63.064C216.499 63.992 218.371 64.712 220.259 65.224C222.147 65.704 223.859 65.944 225.395 65.944C226.323 65.944 227.075 65.832 227.651 65.608C228.227 65.384 228.659 65.08 228.947 64.696C229.235 64.312 229.379 63.88 229.379 63.4C229.379 62.792 229.171 62.28 228.755 61.864C228.339 61.448 227.683 61.016 226.787 60.568C225.891 60.12 224.691 59.56 223.187 58.888C221.907 58.312 220.755 57.704 219.731 57.064C218.707 56.424 217.827 55.704 217.091 54.904C216.387 54.104 215.843 53.176 215.459 52.12C215.075 51.032 214.883 49.752 214.883 48.28C214.883 46.072 215.427 44.232 216.515 42.76C217.603 41.256 219.107 40.136 221.027 39.4C222.979 38.632 225.235 38.248 227.795 38.248C230.035 38.248 232.051 38.504 233.843 39.016C235.635 39.496 237.235 40.056 238.643 40.696L235.811 47.848C234.339 47.176 232.883 46.648 231.443 46.264C230.035 45.848 228.723 45.64 227.507 45.64C226.707 45.64 226.051 45.736 225.539 45.928C225.027 46.12 224.643 46.392 224.387 46.744C224.163 47.064 224.051 47.432 224.051 47.848C224.051 48.392 224.259 48.872 224.675 49.288C225.091 49.704 225.779 50.168 226.739 50.68C227.731 51.16 229.075 51.784 230.771 52.552C232.435 53.288 233.843 54.104 234.995 55C236.179 55.864 237.075 56.904 237.683 58.12C238.323 59.304 238.643 60.792 238.643 62.584ZM264.282 73H243.93V38.728H264.282V46.168H253.194V51.544H263.466V58.984H253.194V65.464H264.282V73ZM285.202 73L278.194 48.328H278.002C278.066 48.968 278.13 49.832 278.194 50.92C278.258 52.008 278.322 53.192 278.386 54.472C278.45 55.72 278.482 56.936 278.482 58.12V73H270.274V38.728H282.61L289.762 63.064H289.954L296.962 38.728H309.298V73H300.802V57.976C300.802 56.888 300.818 55.736 300.85 54.52C300.882 53.272 300.93 52.104 300.994 51.016C301.058 49.896 301.106 49.016 301.138 48.376H300.946L294.034 73H285.202ZM328.632 38.728C331.928 38.728 334.584 39.064 336.6 39.736C338.616 40.376 340.088 41.336 341.016 42.616C341.944 43.864 342.408 45.416 342.408 47.272C342.408 48.776 342.136 50.056 341.592 51.112C341.048 52.136 340.36 52.952 339.528 53.56C338.728 54.168 337.896 54.584 337.032 54.808V55.048C337.96 55.272 338.888 55.656 339.816 56.2C340.744 56.744 341.512 57.56 342.12 58.648C342.76 59.704 343.08 61.144 343.08 62.968C343.08 65.048 342.552 66.84 341.496 68.344C340.44 69.848 338.936 71 336.984 71.8C335.032 72.6 332.712 73 330.024 73H316.68V38.728H328.632ZM328.728 51.88C330.264 51.88 331.336 51.56 331.944 50.92C332.584 50.28 332.904 49.512 332.904 48.616C332.904 47.688 332.552 46.984 331.848 46.504C331.144 45.992 330.04 45.736 328.536 45.736H325.944V51.88H328.728ZM325.944 58.648V65.848H329.208C330.808 65.848 331.928 65.512 332.568 64.84C333.208 64.136 333.528 63.256 333.528 62.2C333.528 61.592 333.384 61.016 333.096 60.472C332.84 59.928 332.376 59.496 331.704 59.176C331.064 58.824 330.168 58.648 329.016 58.648H325.944ZM349.024 73V38.728H358.288V65.512H371.488V73H349.024ZM397.314 73H376.962V38.728H397.314V46.168H386.226V51.544H396.498V58.984H386.226V65.464H397.314V73ZM419.097 73H401.241V67.72L405.513 66.088V45.592L401.241 44.008V38.728H419.097V44.008L414.825 45.592V66.088L419.097 67.72V73ZM445.47 73L443.79 66.568H432.654L430.926 73H420.75L431.934 38.584H444.27L455.598 73H445.47ZM440.382 53.368C440.222 52.76 439.998 51.896 439.71 50.776C439.422 49.624 439.134 48.44 438.846 47.224C438.558 46.008 438.334 45.016 438.174 44.248C438.046 45.016 437.838 45.976 437.55 47.128C437.294 48.28 437.022 49.416 436.734 50.536C436.478 51.656 436.254 52.6 436.062 53.368L434.574 58.984H441.87L440.382 53.368ZM471.743 73V38.728H481.007V65.512H494.207V73H471.743ZM520.032 73H499.68V38.728H520.032V46.168H508.944V51.544H519.216V58.984H508.944V65.464H520.032V73ZM539.8 52.936H554.584V71.416C552.824 72.024 550.792 72.52 548.488 72.904C546.216 73.288 543.832 73.48 541.336 73.48C538.04 73.48 535.144 72.84 532.648 71.56C530.184 70.28 528.248 68.328 526.84 65.704C525.464 63.08 524.776 59.768 524.776 55.768C524.776 52.184 525.464 49.08 526.84 46.456C528.216 43.832 530.232 41.816 532.888 40.408C535.576 38.968 538.872 38.248 542.776 38.248C544.92 38.248 546.952 38.456 548.872 38.872C550.792 39.256 552.456 39.768 553.864 40.408L550.936 47.656C549.72 47.048 548.44 46.6 547.096 46.312C545.752 45.992 544.328 45.832 542.824 45.832C540.776 45.832 539.128 46.296 537.88 47.224C536.632 48.152 535.72 49.384 535.144 50.92C534.6 52.456 534.328 54.152 534.328 56.008C534.328 58.12 534.632 59.912 535.24 61.384C535.848 62.856 536.728 63.976 537.88 64.744C539.032 65.48 540.44 65.848 542.104 65.848C542.488 65.848 542.92 65.832 543.4 65.8C543.88 65.768 544.344 65.72 544.792 65.656C545.272 65.592 545.64 65.528 545.896 65.464V60.088H539.8V52.936ZM577.347 73H559.491V67.72L563.763 66.088V45.592L559.491 44.008V38.728H577.347V44.008L573.075 45.592V66.088L577.347 67.72V73ZM605.112 62.584C605.112 64.44 604.632 66.2 603.672 67.864C602.744 69.528 601.288 70.888 599.304 71.944C597.352 72.968 594.808 73.48 591.672 73.48C590.104 73.48 588.728 73.4 587.544 73.24C586.392 73.112 585.304 72.888 584.28 72.568C583.256 72.248 582.2 71.832 581.112 71.32V63.064C582.968 63.992 584.84 64.712 586.728 65.224C588.616 65.704 590.328 65.944 591.864 65.944C592.792 65.944 593.544 65.832 594.12 65.608C594.696 65.384 595.128 65.08 595.416 64.696C595.704 64.312 595.848 63.88 595.848 63.4C595.848 62.792 595.64 62.28 595.224 61.864C594.808 61.448 594.152 61.016 593.256 60.568C592.36 60.12 591.16 59.56 589.656 58.888C588.376 58.312 587.224 57.704 586.2 57.064C585.176 56.424 584.296 55.704 583.56 54.904C582.856 54.104 582.312 53.176 581.928 52.12C581.544 51.032 581.352 49.752 581.352 48.28C581.352 46.072 581.896 44.232 582.984 42.76C584.072 41.256 585.576 40.136 587.496 39.4C589.448 38.632 591.704 38.248 594.264 38.248C596.504 38.248 598.52 38.504 600.312 39.016C602.104 39.496 603.704 40.056 605.112 40.696L602.28 47.848C600.808 47.176 599.352 46.648 597.912 46.264C596.504 45.848 595.192 45.64 593.976 45.64C593.176 45.64 592.52 45.736 592.008 45.928C591.496 46.12 591.112 46.392 590.856 46.744C590.632 47.064 590.52 47.432 590.52 47.848C590.52 48.392 590.728 48.872 591.144 49.288C591.56 49.704 592.248 50.168 593.208 50.68C594.2 51.16 595.544 51.784 597.24 52.552C598.904 53.288 600.312 54.104 601.464 55C602.648 55.864 603.544 56.904 604.152 58.12C604.792 59.304 605.112 60.792 605.112 62.584ZM610.399 73V38.728H619.663V65.512H632.863V73H610.399ZM659.361 73L657.681 66.568H646.545L644.817 73H634.641L645.825 38.584H658.161L669.489 73H659.361ZM654.273 53.368C654.113 52.76 653.889 51.896 653.601 50.776C653.313 49.624 653.025 48.44 652.737 47.224C652.449 46.008 652.225 45.016 652.065 44.248C651.937 45.016 651.729 45.976 651.441 47.128C651.185 48.28 650.913 49.416 650.625 50.536C650.369 51.656 650.145 52.6 649.953 53.368L648.465 58.984H655.761L654.273 53.368ZM684.91 73H675.646V46.312H667.294V38.728H693.262V46.312H684.91V73ZM713.941 73H696.085V67.72L700.357 66.088V45.592L696.085 44.008V38.728H713.941V44.008L709.669 45.592V66.088L713.941 67.72V73ZM748.906 38.728L737.674 73H726.778L715.594 38.728H726.01L730.666 56.104C730.826 56.744 731.018 57.576 731.242 58.6C731.466 59.624 731.674 60.648 731.866 61.672C732.09 62.696 732.218 63.528 732.25 64.168C732.314 63.528 732.426 62.712 732.586 61.72C732.778 60.696 732.97 59.688 733.162 58.696C733.386 57.672 733.594 56.84 733.786 56.2L738.538 38.728H748.906ZM771.72 73L770.04 66.568H758.904L757.176 73H747L758.184 38.584H770.52L781.848 73H771.72ZM766.632 53.368C766.472 52.76 766.248 51.896 765.96 50.776C765.672 49.624 765.384 48.44 765.096 47.224C764.808 46.008 764.584 45.016 764.424 44.248C764.296 45.016 764.088 45.976 763.8 47.128C763.544 48.28 763.272 49.416 762.984 50.536C762.728 51.656 762.504 52.6 762.312 53.368L760.824 58.984H768.12L766.632 53.368ZM162.704 101.288C161.659 101.288 160.731 101.48 159.92 101.864C159.109 102.248 158.416 102.803 157.84 103.528C157.285 104.253 156.859 105.128 156.56 106.152C156.283 107.176 156.144 108.328 156.144 109.608C156.144 111.336 156.379 112.819 156.848 114.056C157.317 115.272 158.032 116.211 158.992 116.872C159.973 117.533 161.2 117.864 162.672 117.864C163.653 117.864 164.592 117.768 165.488 117.576C166.405 117.363 167.365 117.085 168.368 116.744V120.232C167.429 120.616 166.48 120.893 165.52 121.064C164.581 121.235 163.493 121.32 162.256 121.32C159.909 121.32 157.968 120.84 156.432 119.88C154.896 118.899 153.755 117.533 153.008 115.784C152.261 114.013 151.888 111.944 151.888 109.576C151.888 107.848 152.123 106.269 152.592 104.84C153.083 103.411 153.776 102.173 154.672 101.128C155.589 100.083 156.72 99.272 158.064 98.696C159.408 98.12 160.955 97.832 162.704 97.832C163.856 97.832 164.987 97.9707 166.096 98.248C167.227 98.504 168.283 98.8667 169.264 99.336L167.856 102.696C167.045 102.333 166.203 102.013 165.328 101.736C164.475 101.437 163.6 101.288 162.704 101.288ZM173.289 121V98.152H177.385V117.544H186.921V121H173.289ZM198.626 121H189.026V118.664L191.778 117.64V101.544L189.026 100.488V98.152H198.626V100.488L195.874 101.544V117.64L198.626 118.664V121ZM223.142 109.544C223.142 111.315 222.918 112.925 222.47 114.376C222.043 115.805 221.382 117.043 220.486 118.088C219.611 119.133 218.491 119.923 217.126 120.456L222.63 126.44H217.19L212.934 121.32C212.849 121.32 212.753 121.32 212.646 121.32C212.561 121.32 212.475 121.32 212.39 121.32C210.555 121.32 208.955 121.043 207.59 120.488C206.246 119.912 205.137 119.112 204.262 118.088C203.387 117.043 202.726 115.795 202.278 114.344C201.851 112.893 201.638 111.283 201.638 109.512C201.638 107.144 202.022 105.085 202.79 103.336C203.579 101.587 204.763 100.232 206.342 99.272C207.942 98.2907 209.969 97.8 212.422 97.8C214.833 97.8 216.827 98.2907 218.406 99.272C219.985 100.232 221.169 101.597 221.958 103.368C222.747 105.117 223.142 107.176 223.142 109.544ZM205.958 109.544C205.958 111.272 206.182 112.755 206.63 113.992C207.099 115.229 207.803 116.179 208.742 116.84C209.702 117.501 210.918 117.832 212.39 117.832C213.905 117.832 215.131 117.501 216.07 116.84C217.009 116.179 217.702 115.229 218.15 113.992C218.598 112.755 218.822 111.272 218.822 109.544C218.822 106.963 218.321 104.936 217.318 103.464C216.315 101.992 214.683 101.256 212.422 101.256C210.929 101.256 209.702 101.587 208.742 102.248C207.803 102.909 207.099 103.859 206.63 105.096C206.182 106.333 205.958 107.816 205.958 109.544ZM246.119 112.936C246.119 114.515 245.778 115.944 245.095 117.224C244.434 118.483 243.421 119.485 242.055 120.232C240.69 120.957 238.962 121.32 236.871 121.32C233.906 121.32 231.655 120.552 230.119 119.016C228.583 117.459 227.815 115.411 227.815 112.872V98.152H231.911V112.456C231.911 114.312 232.338 115.677 233.191 116.552C234.045 117.405 235.314 117.832 236.999 117.832C238.194 117.832 239.154 117.629 239.879 117.224C240.626 116.819 241.17 116.211 241.511 115.4C241.874 114.568 242.055 113.576 242.055 112.424V98.152H246.119V112.936ZM264.906 121H251.914V98.152H264.906V101.576H256.01V107.4H264.33V110.824H256.01V117.544H264.906V121ZM291.062 121H278.07V98.152H291.062V101.576H282.166V107.4H290.486V110.824H282.166V117.544H291.062V121ZM313.954 101.288C312.909 101.288 311.981 101.48 311.17 101.864C310.359 102.248 309.666 102.803 309.09 103.528C308.535 104.253 308.109 105.128 307.81 106.152C307.533 107.176 307.394 108.328 307.394 109.608C307.394 111.336 307.629 112.819 308.098 114.056C308.567 115.272 309.282 116.211 310.242 116.872C311.223 117.533 312.45 117.864 313.922 117.864C314.903 117.864 315.842 117.768 316.738 117.576C317.655 117.363 318.615 117.085 319.618 116.744V120.232C318.679 120.616 317.73 120.893 316.77 121.064C315.831 121.235 314.743 121.32 313.506 121.32C311.159 121.32 309.218 120.84 307.682 119.88C306.146 118.899 305.005 117.533 304.258 115.784C303.511 114.013 303.138 111.944 303.138 109.576C303.138 107.848 303.373 106.269 303.842 104.84C304.333 103.411 305.026 102.173 305.922 101.128C306.839 100.083 307.97 99.272 309.314 98.696C310.658 98.12 312.205 97.832 313.954 97.832C315.106 97.832 316.237 97.9707 317.346 98.248C318.477 98.504 319.533 98.8667 320.514 99.336L319.106 102.696C318.295 102.333 317.453 102.013 316.578 101.736C315.725 101.437 314.85 101.288 313.954 101.288ZM344.33 109.544C344.33 111.315 344.106 112.925 343.658 114.376C343.231 115.805 342.57 117.043 341.674 118.088C340.799 119.133 339.679 119.933 338.314 120.488C336.97 121.043 335.391 121.32 333.578 121.32C331.743 121.32 330.143 121.043 328.778 120.488C327.434 119.912 326.324 119.112 325.45 118.088C324.575 117.043 323.914 115.795 323.466 114.344C323.039 112.893 322.826 111.283 322.826 109.512C322.826 107.144 323.21 105.085 323.978 103.336C324.767 101.587 325.951 100.232 327.53 99.272C329.13 98.2907 331.156 97.8 333.61 97.8C336.02 97.8 338.015 98.2907 339.594 99.272C341.172 100.232 342.356 101.597 343.146 103.368C343.935 105.117 344.33 107.176 344.33 109.544ZM327.146 109.544C327.146 111.272 327.37 112.755 327.818 113.992C328.287 115.229 328.991 116.179 329.93 116.84C330.89 117.501 332.106 117.832 333.578 117.832C335.092 117.832 336.319 117.501 337.258 116.84C338.196 116.179 338.89 115.229 339.338 113.992C339.786 112.755 340.01 111.272 340.01 109.544C340.01 106.963 339.508 104.936 338.506 103.464C337.503 101.992 335.871 101.256 333.61 101.256C332.116 101.256 330.89 101.587 329.93 102.248C328.991 102.909 328.287 103.859 327.818 105.096C327.37 106.333 327.146 107.816 327.146 109.544ZM368.619 121H363.531L352.715 103.08H352.587C352.608 103.549 352.629 104.051 352.651 104.584C352.693 105.096 352.725 105.629 352.747 106.184C352.768 106.717 352.789 107.261 352.811 107.816C352.832 108.371 352.853 108.925 352.875 109.48V121H349.195V98.152H354.251L365.035 115.944H365.131C365.109 115.517 365.088 115.059 365.067 114.568C365.045 114.056 365.024 113.533 365.003 113C365.003 112.467 364.992 111.923 364.971 111.368C364.949 110.813 364.928 110.28 364.907 109.768V98.152H368.619V121ZM378.602 121H374.57V98.152H387.53V101.576H378.602V108.296H386.922V111.72H378.602V121ZM399.533 121H389.933V118.664L392.685 117.64V101.544L389.933 100.488V98.152H399.533V100.488L396.781 101.544V117.64L399.533 118.664V121ZM410.128 98.152C412.134 98.152 413.787 98.3973 415.088 98.888C416.39 99.3787 417.36 100.125 418 101.128C418.64 102.109 418.96 103.357 418.96 104.872C418.96 105.981 418.747 106.931 418.32 107.72C417.915 108.509 417.382 109.171 416.72 109.704C416.059 110.216 415.344 110.632 414.576 110.952L421.136 121H416.528L411.056 111.976H407.728V121H403.632V98.152H410.128ZM409.872 101.576H407.728V108.616H410C411.131 108.616 412.048 108.477 412.752 108.2C413.456 107.923 413.968 107.517 414.288 106.984C414.63 106.451 414.8 105.789 414.8 105C414.8 104.168 414.619 103.507 414.256 103.016C413.894 102.504 413.35 102.141 412.624 101.928C411.92 101.693 411.003 101.576 409.872 101.576ZM438.432 121L436.352 114.952H427.744L425.696 121H421.344L429.728 98.056H434.4L442.784 121H438.432ZM433.312 105.544C433.226 105.245 433.098 104.84 432.928 104.328C432.757 103.816 432.586 103.293 432.416 102.76C432.266 102.205 432.149 101.747 432.064 101.384C431.957 101.811 431.818 102.301 431.648 102.856C431.498 103.411 431.349 103.933 431.2 104.424C431.072 104.915 430.965 105.288 430.88 105.544L428.864 111.432H435.296L433.312 105.544Z" fill="#004680"/>
</svg>
