<svg width="1100" height="1015" viewBox="0 0 1100 1015" fill="none" xmlns="http://www.w3.org/2000/svg">
<g clip-path="url(#clip0_6794_92)">
<path d="M550 999.353L501.452 959.371L445.607 988.441L406.479 939.294L345.776 956.181L317.777 900.018L254.871 903.985L239.225 843.259L176.865 834.132L174.256 771.499L115.166 749.676L125.708 687.872L72.4715 654.309L95.7038 596.035L50.6475 552.197L85.5546 500L50.6475 447.803L95.7038 403.965L72.4715 345.692L125.708 312.128L115.166 250.324L174.256 228.501L176.865 165.868L239.225 156.741L254.871 96.0153L317.777 99.9819L345.776 43.8188L406.479 60.706L445.607 11.5595L501.452 40.6293L550 0.647461L598.548 40.6293L654.393 11.5595L693.522 60.706L754.224 43.8188L782.223 99.9819L845.129 96.0153L860.775 156.741L923.135 165.868L925.744 228.501L984.834 250.324L974.292 312.128L1027.53 345.692L1004.3 403.965L1049.35 447.803L1014.45 500L1049.35 552.197L1004.3 596.035L1027.53 654.308L974.292 687.872L984.834 749.676L925.744 771.499L923.135 834.132L860.775 843.259L845.129 903.985L782.223 900.018L754.224 956.181L693.522 939.294L654.393 988.441L598.548 959.371L550 999.353Z" fill="#EDC102" stroke="black"/>
<path d="M87.4999 500L550.001 500M550.001 500L97.6067 403.322M550.001 500L127.485 310.87M550.001 500L175.83 226.683M550.001 500L240.527 154.441M550.001 500L318.75 97.3025M550.001 500L407.08 57.7635M550.001 500L501.656 37.5523M550.001 500L598.345 37.5523M550.001 500L692.921 57.7635M550.001 500L781.251 97.3025M550.001 500L859.474 154.441M550.001 500L924.172 226.683M550.001 500L972.516 310.869M550.001 500L1002.39 403.322M550.001 500H1012.5M550.001 500L1002.39 596.678M550.001 500L972.516 689.13M550.001 500L924.172 773.317M550.001 500L859.474 845.559M550.001 500L781.251 902.697M550.001 500L692.921 942.236M550.001 500L598.345 962.448M550.001 500L501.656 962.448M550.001 500L407.08 942.236M550.001 500L318.75 902.697M550.001 500L240.527 845.559M550.001 500L175.83 773.317M550.001 500L127.485 689.13M550.001 500L97.6067 596.678M550.001 500L550.001 1000M550.001 500L445.483 989.074M550.001 500L345.533 956.773M550.001 500L254.52 904.509M550.001 500L176.42 834.565M550.001 500L114.648 750M550.001 500L71.9024 654.509M550.001 500L50.0522 552.264M550.001 500L50.0522 447.736M550.001 500L71.9024 345.492M550.001 500L114.648 250M550.001 500L176.42 165.435M550.001 500L254.52 95.4915M550.001 500L345.533 43.2272M550.001 500L445.483 10.9262M550.001 500V0M550.001 500L654.518 10.9262M550.001 500L754.468 43.2272M550.001 500L845.482 95.4915M550.001 500L923.581 165.435M550.001 500L985.354 250M550.001 500L1028.1 345.492M550.001 500L1049.95 447.736M550.001 500L1049.95 552.264M550.001 500L1028.1 654.508M550.001 500L985.354 750M550.001 500L923.581 834.565M550.001 500L845.482 904.509M550.001 500L754.468 956.773M550.001 500L654.518 989.074" stroke="black"/>
<path d="M552.157 814.555L650.682 417.016L747.841 814.555" stroke="black" stroke-width="4.22346" stroke-linejoin="round"/>
<path d="M550.445 642.141C550.445 642.141 616.815 664.5 650 664.5C683.185 664.5 749.555 642.141 749.555 642.141V386.132H550.445V642.141Z" fill="black" stroke="#E3E4E5"/>
<path d="M749.555 391.722H550.445V412.963H749.555V391.722Z" fill="black" stroke="#E3E4E5"/>
<path d="M773.795 396.373H526.206L650 285.719L773.795 396.373Z" fill="black" stroke="#E3E4E5"/>
<path d="M452.157 814.555L550.682 417.016L647.841 814.555" stroke="black" stroke-width="4.22346" stroke-linejoin="round"/>
<path d="M450.445 642.141C450.445 642.141 516.815 664.5 550 664.5C583.185 664.5 649.555 642.141 649.555 642.141V386.132H450.445V642.141Z" fill="black" stroke="#E3E4E5"/>
<path d="M649.555 391.722H450.445V412.963H649.555V391.722Z" fill="black" stroke="#E3E4E5"/>
<path d="M673.795 396.373H426.206L550 285.719L673.795 396.373Z" fill="black" stroke="#E3E4E5"/>
<path d="M352.157 814.555L450.682 417.016L547.841 814.555" stroke="black" stroke-width="4.22346" stroke-linejoin="round"/>
<path d="M350.445 642.141C350.445 642.141 416.815 664.5 450 664.5C483.185 664.5 549.555 642.141 549.555 642.141V386.132H350.445V642.141Z" fill="black" stroke="#E3E4E5"/>
<path d="M549.555 391.722H350.445V412.963H549.555V391.722Z" fill="black" stroke="#E3E4E5"/>
<path d="M573.795 396.373H326.206L450 285.719L573.795 396.373Z" fill="black" stroke="#E3E4E5"/>
<path fill-rule="evenodd" clip-rule="evenodd" d="M876.195 275.312C870.087 318.354 879.56 333.783 882.627 360.564L877.053 389.286C861.082 348.364 839.317 295.729 795.587 250.419C816.025 265.995 846.753 287.516 872.337 344.152C866.099 299.871 872.813 285.934 876.195 275.312Z" fill="#008F4C" stroke="black" stroke-width="0.999999"/>
<path fill-rule="evenodd" clip-rule="evenodd" d="M900.207 303.122C890.182 344.121 894.29 371.62 892.413 405.242L870.193 444.449C869.371 399.487 854.135 361.222 805.02 313.151C818.736 319.462 841.847 339.071 874.821 385.639C881.812 353.129 888.008 323.793 900.207 303.122Z" fill="#008F4C" stroke="black" stroke-width="0.999999"/>
<path fill-rule="evenodd" clip-rule="evenodd" d="M928.934 342.785C913.392 380.765 896.842 415.794 900.635 446.273L883.055 499.612L868.049 473.171C867.57 444.479 854.458 401.786 832.89 367.403C850.603 383.095 863.464 401.378 874.051 437.155C891.832 401.516 908.449 359.732 928.934 342.785Z" fill="#008F4C" stroke="black" stroke-width="0.999999"/>
<path fill-rule="evenodd" clip-rule="evenodd" d="M932.793 398.404C905.988 450.376 896.785 502.348 894.633 554.32L886.486 562.148L863.761 506.316C860.733 469.579 840.817 440.515 826.775 413.904C844.964 435.792 863.152 445.166 881.341 495.054C888.143 454.192 910.343 426.193 932.793 398.404Z" fill="#008F4C" stroke="black" stroke-width="0.999999"/>
<path fill-rule="evenodd" clip-rule="evenodd" d="M949.639 485.935C920.333 501.449 892.375 551.123 889.058 558.423C880.224 512.84 843.822 478.696 817.025 455.846C841.339 486.962 858.696 527.601 866.763 562.982C854.402 545.161 841.96 525.417 825.172 514.657C869.001 570.33 859.728 623.486 857.04 650.077L883.056 611.307C894.601 568.643 919.346 521.845 949.639 485.935Z" fill="#008F4C" stroke="black" stroke-width="0.999999"/>
<path fill-rule="evenodd" clip-rule="evenodd" d="M931.935 567.085C896.634 588.664 874.808 615.085 856.472 648.69C852.792 607.949 842.777 555.891 817.454 531.069C851.913 596.416 851.333 674.723 828.602 699.294L828.173 710.236L853.9 684.706C859.355 660.369 886.399 605.497 918.726 590.004C918.203 597.992 914.135 610.864 908.353 629.998C928.237 603.838 935.107 564.31 931.935 567.085Z" fill="#008F4C" stroke="black" stroke-width="0.999999"/>
<path fill-rule="evenodd" clip-rule="evenodd" d="M882.627 748.531C859.198 751.18 800.689 778.732 779.723 808.739L714.979 828.313C735.548 802.418 773.612 790.139 774.265 715.251C787.487 770.883 764.854 781.764 753.997 807.342C793.311 775.321 835.839 745.242 882.627 748.531Z" fill="#008F4C" stroke="black" stroke-width="0.999999"/>
<path fill-rule="evenodd" clip-rule="evenodd" d="M760.682 822.215C712.697 845.887 688.598 842.873 616.377 850.714C517.56 862.696 474.194 868.461 454.089 892.487H404.973C409.378 883.546 432.88 870.69 442.568 868.18C453.406 863.52 553.846 851.48 594.628 842.848C640.456 834.128 682.852 823.603 698.456 812.733C712.681 805.77 734.242 783.207 758.713 754.458C735.754 796.984 717.171 811.589 698.686 825.577C734.029 828.223 800.605 793.101 842.751 796.4C830.156 799.096 803.673 797.031 760.682 822.215Z" fill="#008F4C" stroke="black" stroke-width="0.999999"/>
<path fill-rule="evenodd" clip-rule="evenodd" d="M912.917 642.155C867.577 658.01 852.123 683.895 829.888 704.765C839.069 651.765 829.495 604.563 811.023 580.306C829.126 639.853 819.611 710.007 802.447 722.089L796.144 762.664L834.669 730.751C851.929 704.399 865.571 679.323 912.917 642.155Z" fill="#008F4C" stroke="black" stroke-width="0.999999"/>
<path fill-rule="evenodd" clip-rule="evenodd" d="M855.615 729.644C845.835 736.838 825.288 754.798 810.165 767.679L767.319 797.302L750.567 810.533L771.75 776.831C777.398 766.56 781.829 758.337 792.157 723.001C799.083 697.713 801.77 657.761 796.016 631.366C815.449 660.389 808.361 712.831 799.234 758.105C825.023 733.503 843.863 718.843 865.195 703.72C876.535 698.111 858.557 758.332 854.328 774.517C855.113 753.867 858.84 729.835 855.615 729.644Z" fill="#008F4C" stroke="black" stroke-width="0.999999"/>
<path fill-rule="evenodd" clip-rule="evenodd" d="M253.916 633.874C250.327 623.889 244.63 615.798 244.211 593.636C244.211 593.636 238.22 591.471 238.559 599.691C239.226 615.849 248.835 640.901 250.369 639.905C252.683 638.402 250.898 635.357 253.916 633.874Z" fill="#008F4C" stroke="black" stroke-width="0.999999"/>
<path fill-rule="evenodd" clip-rule="evenodd" d="M213.293 422.909C214.605 400.877 211.448 364.419 192.177 340.209C179.178 382.459 189.792 403.076 213.293 422.909Z" fill="#008F4C" stroke="black" stroke-width="0.999999"/>
<path fill-rule="evenodd" clip-rule="evenodd" d="M229.197 425.1C250.644 411.562 292.287 388.237 285.847 352.081C260.352 364.365 224.132 383.792 229.197 425.1Z" fill="#008F4C" stroke="black" stroke-width="0.999999"/>
<path fill-rule="evenodd" clip-rule="evenodd" d="M231.77 410.485C238.086 396.017 253.881 399.06 274.218 369.454Z" fill="#008F4C"/>
<path d="M231.77 410.485C238.086 396.017 253.881 399.06 274.218 369.454" stroke="black" stroke-width="0.999999"/>
<path fill-rule="evenodd" clip-rule="evenodd" d="M212.909 413.244C195.074 393.252 197.738 384.481 194.89 354.454Z" fill="#008F4C"/>
<path d="M212.909 413.244C195.074 393.252 197.738 384.481 194.89 354.454" stroke="black" stroke-width="1.00089"/>
<path fill-rule="evenodd" clip-rule="evenodd" d="M213.381 423.847C222.266 403.894 228.462 369.823 218.981 339.75C192.204 373.889 198.448 396.177 213.381 423.847Z" fill="#008F4C" stroke="black" stroke-width="0.999999"/>
<path fill-rule="evenodd" clip-rule="evenodd" d="M215.437 414.578C209.178 391.394 214.415 383.079 215.854 358.979Z" fill="#008F4C"/>
<path d="M215.437 414.578C209.178 391.394 214.415 383.079 215.854 358.979" stroke="black" stroke-width="1.00089"/>
<path fill-rule="evenodd" clip-rule="evenodd" d="M245.831 360.582C277.944 338.798 281.607 292.912 275.809 252.986C233.595 285.06 241.989 311.261 245.831 360.582Z" fill="#008F4C" stroke="black" stroke-width="0.999999"/>
<path fill-rule="evenodd" clip-rule="evenodd" d="M253.179 331.159C255.62 302.013 258.32 299.944 268.614 272.349Z" fill="#008F4C"/>
<path d="M253.179 331.159C255.62 302.013 258.32 299.944 268.614 272.349" stroke="black" stroke-width="0.999999"/>
<path fill-rule="evenodd" clip-rule="evenodd" d="M247.348 364.837C262.318 327.593 257.875 296.787 234.999 255.113C222.809 302.798 218.021 326.406 247.348 364.837Z" fill="#008F4C" stroke="black" stroke-width="0.999999"/>
<path fill-rule="evenodd" clip-rule="evenodd" d="M247.899 348.617C240.249 320.268 240.388 313.124 237.362 283.613Z" fill="#008F4C"/>
<path d="M247.899 348.617C240.249 320.268 240.388 313.124 237.362 283.613" stroke="black" stroke-width="1.00064"/>
<path fill-rule="evenodd" clip-rule="evenodd" d="M246.907 365.34C279.857 345.016 293.628 317.504 298.742 269.558C262.146 300.018 245.027 315.89 246.907 365.34Z" fill="#008F4C" stroke="black" stroke-width="0.999999"/>
<path fill-rule="evenodd" clip-rule="evenodd" d="M257.067 355.225C265.511 323.343 268.211 319.45 285.794 293.223Z" fill="#008F4C"/>
<path d="M257.067 355.225C265.511 323.343 268.211 319.45 285.794 293.223" stroke="black" stroke-width="0.999999"/>
<path fill-rule="evenodd" clip-rule="evenodd" d="M227.302 418.828C245.495 400.686 274.117 372.051 260.489 338.226C238.089 356.071 217.118 388.82 227.302 418.828Z" fill="#008F4C" stroke="black" stroke-width="0.999999"/>
<path fill-rule="evenodd" clip-rule="evenodd" d="M213.781 504.493C243.455 483.926 242.189 444.923 222.779 402.636C198.283 442.821 192.923 460.25 213.781 504.493Z" fill="#008F4C" stroke="black" stroke-width="0.999999"/>
<path fill-rule="evenodd" clip-rule="evenodd" d="M230.297 547.012C227.381 536.782 222.235 528.284 223.288 506.146C223.288 506.146 217.456 503.537 217.249 511.761C216.841 527.93 224.763 553.64 226.359 552.762C228.768 551.436 227.189 548.265 230.297 547.012Z" fill="#008F4C" stroke="black" stroke-width="0.999999"/>
<path fill-rule="evenodd" clip-rule="evenodd" d="M221.265 509.642C218.132 479.128 217.402 456.088 219.55 426.213Z" fill="#008F4C"/>
<path d="M221.265 509.642C218.132 479.128 217.402 456.088 219.55 426.213" stroke="black" stroke-width="0.999999"/>
<path fill-rule="evenodd" clip-rule="evenodd" d="M223.681 517.043C216.827 472.105 193.122 442.196 150.633 429.036C159.802 477.422 178.857 503.708 223.681 517.043Z" fill="#008F4C" stroke="black" stroke-width="0.999999"/>
<path fill-rule="evenodd" clip-rule="evenodd" d="M215.262 508.275C194.55 488.246 180.528 470.221 162.095 441.714Z" fill="#008F4C"/>
<path d="M215.262 508.275C194.55 488.246 180.528 470.221 162.095 441.714" stroke="black" stroke-width="0.999999"/>
<path fill-rule="evenodd" clip-rule="evenodd" d="M219.553 516.372C259.17 499.108 269.625 482.052 272.069 435.069C232.255 457.455 221.63 466.931 219.553 516.372Z" fill="#008F4C" stroke="black" stroke-width="0.999999"/>
<path fill-rule="evenodd" clip-rule="evenodd" d="M244.825 613.068C237.971 568.131 214.266 538.221 171.777 525.062C180.946 573.448 200.001 599.734 244.825 613.068Z" fill="#008F4C" stroke="black" stroke-width="0.999999"/>
<path fill-rule="evenodd" clip-rule="evenodd" d="M367.559 818.896C399.172 827.095 423.271 834.396 477.907 847.395C571.267 872.916 621.909 875.458 642.014 899.484H691.13C686.725 890.543 663.223 877.687 653.535 875.177C609.346 871.807 523.459 848.161 482.678 839.529C433.818 827.585 388.996 818.949 373.393 812.638C345.806 799.034 360.241 825.798 367.559 818.896Z" fill="#008F4C" stroke="black" stroke-width="0.999999"/>
<path fill-rule="evenodd" clip-rule="evenodd" d="M370.795 821.097C331.218 797.86 320.575 803.013 281.631 815.861C337.316 850.652 341.839 815.472 370.795 821.097Z" fill="#008F4C" stroke="black" stroke-width="0.999999"/>
<path fill-rule="evenodd" clip-rule="evenodd" d="M349.355 815.01C320.775 819.364 326.587 818.899 302.841 816.997Z" fill="#008F4C"/>
<path d="M349.355 815.01C320.775 819.364 326.587 818.899 302.841 816.997" stroke="black" stroke-width="1.00077"/>
<path fill-rule="evenodd" clip-rule="evenodd" d="M304.433 758.647C296.412 752.203 287.547 748.554 276.142 730C276.142 730 269.982 731.54 274.368 738.319C282.99 751.644 303.629 767.469 304.433 765.759C305.646 763.18 302.614 761.605 304.433 758.647Z" fill="#008F4C" stroke="black" stroke-width="0.999999"/>
<path fill-rule="evenodd" clip-rule="evenodd" d="M376.511 822.084C361.121 777.795 334.978 758.905 296.757 743.801C302.877 794.131 320.713 812.638 376.511 822.084Z" fill="#008F4C" stroke="black" stroke-width="0.999999"/>
<path fill-rule="evenodd" clip-rule="evenodd" d="M367.589 814.232C337.435 790.177 325.45 780.698 310.21 761.244Z" fill="#008F4C"/>
<path d="M367.589 814.232C337.435 790.177 325.45 780.698 310.21 761.244" stroke="black" stroke-width="1.00015"/>
<path fill-rule="evenodd" clip-rule="evenodd" d="M375.513 820.674C366.092 773.273 362.54 763.959 333.724 733.285C329.608 783.689 336.732 786.378 375.513 820.674Z" fill="#008F4C" stroke="black" stroke-width="0.999999"/>
<path fill-rule="evenodd" clip-rule="evenodd" d="M250.769 639.121C237.057 608.173 218.006 606.614 184.511 595.654C196.406 623.246 199.528 639.574 250.769 639.121Z" fill="#008F4C" stroke="black" stroke-width="0.999999"/>
<path fill-rule="evenodd" clip-rule="evenodd" d="M225.738 508.669C237.612 484.082 248.459 471.983 263.041 452.594Z" fill="#008F4C"/>
<path d="M225.738 508.669C237.612 484.082 248.459 471.983 263.041 452.594" stroke="black" stroke-width="0.999999"/>
<path fill-rule="evenodd" clip-rule="evenodd" d="M245.657 613.248C273.302 570.897 258.092 536.954 227.258 503.201C213.97 549.445 221.363 578.761 245.657 613.248Z" fill="#008F4C" stroke="black" stroke-width="0.999999"/>
<path fill-rule="evenodd" clip-rule="evenodd" d="M272.207 712.332C305.294 683.953 300.094 641.789 290.262 599.713C262.308 640.656 261.048 659.114 272.207 712.332Z" fill="#008F4C" stroke="black" stroke-width="0.999999"/>
<path fill-rule="evenodd" clip-rule="evenodd" d="M274.817 695.244C278.536 674.38 284.988 643.474 286.041 622.652Z" fill="#008F4C"/>
<path d="M274.817 695.244C278.536 674.38 284.988 643.474 286.041 622.652" stroke="black" stroke-width="1.00015"/>
<path fill-rule="evenodd" clip-rule="evenodd" d="M238.317 639.123C221.589 617.293 213.132 624.131 196.131 604.462Z" fill="#008F4C"/>
<path d="M238.317 639.123C221.589 617.293 213.132 624.131 196.131 604.462" stroke="black" stroke-width="1.00003"/>
<path fill-rule="evenodd" clip-rule="evenodd" d="M250.811 637.804C215.448 623.451 210.416 640.378 187.64 653.097C214.892 662.13 227.795 663.16 250.811 637.804Z" fill="#008F4C" stroke="black" stroke-width="0.999999"/>
<path fill-rule="evenodd" clip-rule="evenodd" d="M277.815 742.789C281.235 704.254 273.948 663.163 251.411 627.032C234.356 671.06 237.173 699.859 277.815 742.789Z" fill="#008F4C" stroke="black" stroke-width="0.999999"/>
<path fill-rule="evenodd" clip-rule="evenodd" d="M235.949 604.183C217.266 582.697 204.334 571.383 189.431 544.748Z" fill="#008F4C"/>
<path d="M235.949 604.183C217.266 582.697 204.334 571.383 189.431 544.748" stroke="black" stroke-width="1.00093"/>
<path fill-rule="evenodd" clip-rule="evenodd" d="M245.318 602.697C245.607 568.156 240.053 551.383 230.815 526.914Z" fill="#008F4C"/>
<path d="M245.318 602.697C245.607 568.156 240.053 551.383 230.815 526.914" stroke="black" stroke-width="1.00015"/>
<path fill-rule="evenodd" clip-rule="evenodd" d="M230.055 403.875C239.372 392.415 241.875 390.496 257.067 349.623Z" fill="#008F4C"/>
<path d="M230.055 403.875C239.372 392.415 241.875 390.496 257.067 349.623" stroke="black" stroke-width="0.999999"/>
<path fill-rule="evenodd" clip-rule="evenodd" d="M254.216 652.484C257.18 683.291 261.759 702.185 272.363 725.427Z" fill="#008F4C"/>
<path d="M254.216 652.484C257.18 683.291 261.759 702.185 272.363 725.427" stroke="black" stroke-width="1.00031"/>
<path fill-rule="evenodd" clip-rule="evenodd" d="M369.592 810.995C352.864 785.974 352.553 782.326 343.27 759.01Z" fill="#008F4C"/>
<path d="M369.592 810.995C352.864 785.974 352.553 782.326 343.27 759.01" stroke="black" stroke-width="1.00003"/>
<path fill-rule="evenodd" clip-rule="evenodd" d="M243.934 639.277C216.262 648.034 227.064 647.626 203.312 649.441Z" fill="#008F4C"/>
<path d="M243.934 639.277C216.262 648.034 227.064 647.626 203.312 649.441" stroke="black" stroke-width="1.00052"/>
<path d="M532.597 1014.48C530.711 1014.44 529.474 1014.38 527.883 1014.33C527.883 1014.33 527.884 1014.35 527.883 1014.35C526.221 1014.29 525.058 1014.24 523.731 1014.2C521.893 1014.13 519.575 1014.03 517.752 1013.94C516.272 1013.86 514.916 1013.8 513.027 1013.69C513.028 1013.68 513.031 1013.68 513.031 1013.67C511.442 1013.58 510.204 1013.53 508.321 1013.41C508.608 1010.66 508.888 1007.91 509.175 1005.17C498.321 1004.42 487.493 1003.38 476.71 1002.05C476.191 1004.83 475.676 1007.6 475.156 1010.38C473.291 1010.16 472.074 1009.98 470.502 1009.79C470.5 1009.79 470.5 1009.8 470.498 1009.81C468.396 1009.54 466.863 1009.34 465.245 1009.12C463.972 1008.95 462.319 1008.72 461.048 1008.54C459.44 1008.3 457.919 1008.09 455.837 1007.77C455.839 1007.75 455.842 1007.75 455.844 1007.74C454.281 1007.5 453.059 1007.34 451.209 1007.04C451.899 1004.26 452.589 1001.48 453.279 998.691C442.61 996.944 432.004 994.913 421.492 992.584C420.564 995.361 419.639 998.138 418.71 1000.91C416.886 1000.52 415.697 1000.23 414.161 999.883C414.159 999.9 414.156 999.9 414.154 999.906C412.473 999.525 411.29 999.242 409.961 998.933C408.058 998.49 405.67 997.913 403.768 997.441C402.525 997.133 401.441 996.873 399.893 996.48C399.895 996.48 399.898 996.463 399.9 996.461C398.381 996.072 397.189 995.792 395.392 995.32C396.493 992.561 397.594 989.801 398.694 987.041C388.344 984.293 378.106 981.246 367.997 977.916C366.66 980.637 365.328 983.359 363.991 986.08C362.238 985.506 361.1 985.101 359.625 984.608C359.623 984.608 359.62 984.625 359.618 984.625C358.405 984.216 357.596 983.93 356.593 983.587C354.142 982.751 351.205 981.715 348.768 980.829C347.822 980.486 347.064 980.219 345.934 979.804C345.936 979.804 345.939 979.804 345.941 979.787C344.488 979.249 343.348 978.85 341.631 978.202C343.135 975.527 344.636 972.85 346.139 970.174C336.24 966.421 326.492 962.383 316.921 958.048C315.198 960.641 313.48 963.236 311.758 965.829C310.1 965.079 309.029 964.558 307.635 963.916C307.63 963.916 307.626 963.934 307.62 963.942C305.889 963.14 304.65 962.546 303.311 961.911C301.898 961.242 300.093 960.371 298.687 959.68C297.436 959.067 296.297 958.514 294.714 957.723C294.718 957.723 294.723 957.706 294.73 957.704C293.364 957.017 292.287 956.504 290.675 955.68C292.55 953.159 294.42 950.637 296.295 948.117C286.99 943.354 277.89 938.292 269 932.944C266.923 935.354 264.848 937.766 262.77 940.175C261.231 939.249 260.24 938.61 258.948 937.82C258.943 937.82 258.939 937.836 258.932 937.838C257.598 937.017 256.673 936.43 255.611 935.765C253.964 934.736 251.916 933.429 250.291 932.372C249.238 931.687 248.31 931.094 247 930.228C247.005 930.228 247.009 930.211 247.015 930.211C245.754 929.372 244.758 928.74 243.271 927.736C245.485 925.422 247.696 923.106 249.909 920.791C241.209 914.915 232.905 908.819 224.978 902.526C222.575 904.712 220.174 906.9 217.771 909.086C210.561 903.388 207.039 900.437 200.181 894.349C202.728 892.257 205.272 890.162 207.819 888.069C200.067 881.134 192.729 873.983 185.789 866.635C183.029 868.604 180.271 870.574 177.511 872.543C171.162 865.921 168.087 862.512 162.141 855.502C165.065 853.628 167.987 851.752 170.91 849.878C164.261 841.887 158.047 833.689 152.235 825.307C149.069 827.045 145.905 828.785 142.74 830.523C137.383 822.979 134.814 819.115 129.913 811.182C133.257 809.555 136.599 807.926 139.943 806.299C134.511 797.28 129.544 788.058 124.963 778.679C121.377 780.128 117.793 781.581 114.206 783.03C109.966 774.56 107.969 770.223 104.236 761.362C107.967 760.069 111.697 758.775 115.427 757.482C111.285 747.446 107.575 737.244 104.292 726.892C100.415 727.935 96.5401 728.983 92.6632 730.025C89.6619 720.624 88.3045 715.82 85.864 706.023C89.792 705.186 93.7187 704.345 97.6465 703.507C94.849 692.436 92.4958 681.223 90.5665 669.892C86.6678 670.425 82.7688 670.96 78.8701 671.492C77.2358 661.158 76.5652 655.886 75.5454 645.157C79.3393 644.854 83.1334 644.548 86.9273 644.244C85.4836 631.567 84.5049 618.779 84.0182 605.899C86.1856 605.915 87.2696 605.899 89.4396 605.915C89.9215 618.643 90.8877 631.283 92.315 643.811C110.662 642.343 129.01 640.872 147.356 639.392C145.896 628.448 144.888 617.341 144.395 606.066C146.565 606.066 147.649 606.082 149.816 606.082C150.302 617.206 151.3 628.164 152.74 638.961C155.219 638.761 157.697 638.564 160.176 638.363C160.492 641.679 160.771 644.085 161.063 646.591C161.263 648.297 161.51 650.265 161.741 651.952C162.08 654.424 162.408 656.795 162.913 659.984C160.722 660.285 158.53 660.583 156.338 660.884C158.248 670.586 160.56 680.126 163.239 689.501C165.049 689.114 166.86 688.728 168.671 688.341C169.441 691.425 170.05 693.665 170.685 695.987C171.082 697.436 171.567 699.135 171.988 700.567C172.666 702.863 173.32 705.077 174.268 708.042C172.693 708.468 171.116 708.89 169.54 709.315C172.632 718.096 176.061 726.713 179.832 735.146C181.15 734.689 182.468 734.234 183.786 733.777C185.042 736.752 186.011 738.932 187.013 741.15C187.452 742.12 188.002 743.32 188.451 744.277C189.498 746.503 190.54 748.677 191.989 751.566C190.816 752.041 189.643 752.515 188.47 752.99C192.589 760.916 197.018 768.662 201.746 776.22C202.795 775.709 203.846 775.199 204.895 774.687C206.344 777.03 207.437 778.713 208.586 780.489C209.564 781.997 210.661 783.643 211.683 785.142C212.835 786.832 213.913 788.424 215.442 790.574C214.431 791.13 213.42 791.686 212.409 792.242C217.45 799.361 222.768 806.292 228.363 813.02C229.371 812.373 230.383 811.727 231.391 811.079C233.124 813.119 234.415 814.577 235.779 816.125C237.07 817.586 238.466 819.129 239.831 820.602C241.132 822.006 242.324 823.311 244.02 825.079C242.982 825.821 241.943 826.562 240.905 827.303C246.799 833.639 252.952 839.773 259.356 845.694C260.455 844.789 261.555 843.886 262.654 842.981C264.632 844.733 266.098 845.979 267.649 847.307C269.048 848.503 270.581 849.784 272.011 850.955C273.58 852.24 275.05 853.455 277.11 855.082C275.964 856.125 274.819 857.169 273.673 858.212C280.359 863.756 287.283 869.085 294.441 874.189C295.652 872.921 296.863 871.654 298.073 870.387C300.301 871.891 301.949 872.959 303.689 874.092C305.013 874.956 306.515 875.918 307.819 876.737C309.722 877.93 311.566 879.08 314.094 880.601C312.854 882.041 311.612 883.48 310.372 884.92C317.782 889.641 325.41 894.137 333.256 898.393C334.51 896.704 335.768 895.017 337.022 893.328C339.857 894.777 341.98 895.827 344.151 896.886C345.028 897.314 346.128 897.846 347.008 898.265C349.217 899.313 351.397 900.331 354.35 901.665C353.114 903.529 351.876 905.393 350.639 907.257C358.682 911.112 366.925 914.731 375.369 918.101C376.544 916.006 377.721 913.913 378.896 911.818C382.072 913.017 384.457 913.885 386.874 914.746C387.635 915.016 388.612 915.361 389.379 915.626C391.755 916.45 394.105 917.246 397.275 918.281C396.175 920.525 395.074 922.768 393.973 925.012C402.529 927.962 411.264 930.672 420.181 933.127C421.145 930.707 422.112 928.289 423.076 925.869C426.031 926.645 428.22 927.191 430.485 927.749C431.933 928.106 433.64 928.512 435.116 928.855C437.293 929.361 439.375 929.845 442.226 930.466C441.387 932.986 440.543 935.505 439.703 938.025C448.637 940.057 457.722 941.86 466.978 943.392C467.63 940.759 468.285 938.126 468.936 935.492C471.642 935.923 473.613 936.208 475.713 936.517C477.772 936.819 479.953 937.121 482.044 937.395C484.09 937.661 485.987 937.915 488.623 938.227C488.121 940.916 487.619 943.605 487.117 946.294C496.27 947.418 505.58 948.278 515.014 948.91C515.297 946.175 515.582 943.44 515.864 940.705C518.591 940.88 520.571 940.975 522.686 941.084C524.499 941.178 526.486 941.271 528.238 941.338C530.555 941.424 532.785 941.506 535.816 941.579C535.695 944.346 535.571 947.111 535.449 949.878C540.483 950.019 545.541 950.12 550.646 950.122C554.985 950.122 559.288 950.059 563.575 949.957C563.468 947.145 563.363 944.333 563.256 941.521C565.465 941.458 567.009 941.384 568.775 941.318C571.722 941.205 574.276 941.082 577.109 940.92C579.031 940.808 580.77 940.719 583.208 940.554C583.487 943.401 583.762 946.249 584.04 949.096C593.509 948.51 602.835 947.662 612.023 946.583C611.505 943.706 610.987 940.83 610.469 937.953C613.204 937.619 615.183 937.347 617.294 937.063C619.191 936.807 621.245 936.513 623.113 936.234C625.286 935.907 627.349 935.603 630.163 935.144C630.859 938.023 631.552 940.902 632.248 943.78C641.556 942.29 650.7 940.536 659.684 938.541C658.753 935.702 657.827 932.861 656.895 930.021C660.058 929.323 662.392 928.781 664.776 928.215C665.97 927.931 667.428 927.577 668.633 927.276C670.907 926.711 673.107 926.158 676.076 925.374C677.168 928.155 678.256 930.936 679.348 933.717C688.338 931.293 697.145 928.612 705.77 925.685C704.485 923.036 703.206 920.384 701.921 917.734C704.381 916.928 706.142 916.321 708.046 915.671C710.312 914.895 712.534 914.109 714.868 913.26C716.596 912.631 718.152 912.077 720.327 911.258C721.727 913.779 723.124 916.302 724.524 918.824C733.039 915.472 741.355 911.873 749.467 908.031C747.951 905.725 746.438 903.418 744.921 901.112C747.031 900.163 748.511 899.465 750.167 898.698C752.514 897.607 754.678 896.573 756.97 895.449C758.644 894.625 760.167 893.889 762.279 892.816C763.846 894.942 765.411 897.07 766.978 899.196C774.887 894.952 782.578 890.469 790.048 885.755C788.456 883.89 786.864 882.025 785.271 880.16C787.693 878.719 789.446 877.636 791.28 876.502C792.6 875.686 794.106 874.739 795.406 873.905C797.229 872.735 798.975 871.611 801.326 870.045C802.908 871.715 804.487 873.386 806.069 875.056C813.267 869.971 820.231 864.658 826.957 859.131C825.424 857.723 823.893 856.315 822.36 854.908C824.61 853.158 826.237 851.844 827.931 850.475C829.111 849.52 830.466 848.406 831.641 847.419C833.256 846.064 834.797 844.773 836.864 842.974C838.35 844.208 839.834 845.443 841.319 846.677C847.735 840.798 853.904 834.71 859.815 828.418C858.401 827.397 856.987 826.376 855.573 825.355C857.208 823.686 858.346 822.467 859.609 821.138C861.226 819.434 862.765 817.766 864.33 816.025C865.565 814.649 866.703 813.403 868.25 811.622C869.627 812.516 871.004 813.411 872.38 814.305C877.965 807.662 883.286 800.822 888.33 793.794C886.975 793.037 885.622 792.278 884.267 791.522C885.939 789.231 887.136 787.521 888.378 785.74C889.197 784.564 890.141 783.182 890.936 781.992C892.153 780.169 893.324 778.414 894.867 775.988C896.232 776.666 897.597 777.345 898.963 778.023C903.672 770.612 908.091 763.018 912.213 755.249C910.752 754.642 909.293 754.033 907.833 753.426C909.294 750.601 910.344 748.477 911.401 746.301C911.838 745.4 912.378 744.266 912.805 743.354C913.824 741.173 914.811 739.026 916.088 736.1C917.667 736.667 919.245 737.236 920.824 737.803C924.595 729.586 928.052 721.2 931.177 712.647C929.339 712.127 927.503 711.603 925.665 711.082C926.522 708.5 927.102 706.598 927.728 704.574C928.273 702.815 928.844 700.876 929.338 699.136C929.957 696.947 930.55 694.853 931.3 691.962C933.397 692.443 935.493 692.925 937.59 693.405C940.313 684.324 942.66 675.07 944.659 665.675C942.144 665.286 939.63 664.892 937.115 664.502C937.549 661.875 937.815 659.963 938.122 657.888C938.475 655.487 938.8 653.059 939.088 650.659C939.348 648.471 939.6 646.444 939.885 643.602C942.759 643.891 945.634 644.183 948.508 644.473C950.43 631.717 951.715 618.723 952.297 605.503C954.469 605.52 955.561 605.52 957.733 605.52C957.14 618.916 955.831 632.086 953.881 645.013C972.094 646.847 990.307 648.687 1008.52 650.528C1010.68 635.853 1012.09 620.906 1012.68 605.703C1014.85 605.719 1015.93 605.703 1018.1 605.719C1017.5 621.1 1016.07 636.222 1013.89 651.068C1017.41 651.424 1020.93 651.779 1024.45 652.135C1023.41 662.481 1022.74 667.563 1021.08 677.548C1017.22 676.947 1013.37 676.352 1009.51 675.752C1007.22 686.695 1004.49 697.463 1001.34 708.043C1005.55 709.011 1009.77 709.975 1013.98 710.945C1011.52 720.427 1010.14 725.079 1007.11 734.195C1002.72 732.945 998.317 731.7 993.919 730.45C990.295 740.412 986.289 750.187 981.901 759.759C986.414 761.382 990.927 763 995.44 764.624C991.676 773.237 989.665 777.451 985.394 785.695C980.895 783.822 976.393 781.951 971.893 780.077C967.092 789.123 961.93 797.96 956.438 806.589C960.824 808.771 965.212 810.949 969.598 813.13C968.708 814.527 967.954 815.687 967.187 816.871H967.191C967.136 816.953 967.106 816.994 967.052 817.076C963.633 822.344 961.057 826.056 956.696 832.025C952.464 829.657 948.229 827.29 943.996 824.922C938.115 833.097 931.914 841.054 925.396 848.782C929.33 851.342 933.268 853.898 937.201 856.457C932.372 862.01 929.345 865.331 925.025 869.805C924.95 869.884 924.911 869.927 924.834 870.007H924.83C923.859 871.012 922.909 871.999 921.76 873.17C918.089 870.517 914.417 867.865 910.745 865.212C903.849 872.526 896.653 879.606 889.165 886.441C892.44 889.164 895.718 891.884 898.993 894.607C897.655 895.77 896.751 896.505 895.616 897.477C895.621 897.477 895.627 897.494 895.635 897.494C894.519 898.443 893.733 899.09 892.827 899.85C891.265 901.161 889.306 902.771 887.716 904.051C886.787 904.798 885.992 905.451 884.833 906.371C884.828 906.371 884.82 906.354 884.814 906.354C883.64 907.28 882.748 908.021 881.347 909.109C878.378 906.379 875.405 903.652 872.436 900.923C864.592 907.343 856.47 913.512 848.074 919.419C850.629 922.12 853.19 924.817 855.745 927.518C854.253 928.512 853.251 929.138 851.986 929.967C851.991 929.967 852 929.984 852.005 929.986C850.611 930.896 849.612 931.525 848.501 932.236C846.824 933.312 844.703 934.639 842.982 935.698C842.024 936.287 841.227 936.79 840.047 937.507C840.043 937.507 840.04 937.507 840.035 937.49C838.739 938.274 837.747 938.904 836.202 939.823C833.931 937.163 831.658 934.504 829.387 931.843C820.684 937.312 811.718 942.512 802.501 947.437C804.403 950.023 806.31 952.607 808.211 955.193C806.592 956.014 805.512 956.527 804.141 957.211C804.145 957.211 804.15 957.228 804.157 957.23C802.549 958.027 801.394 958.584 800.128 959.2C798.635 959.927 796.724 960.839 795.216 961.546C793.964 962.134 792.833 962.669 791.236 963.404C791.232 963.404 791.227 963.387 791.221 963.385C789.822 964.024 788.747 964.543 787.083 965.291C785.419 962.754 783.75 960.22 782.085 957.684C772.635 962.141 762.951 966.325 753.031 970.215C754.402 972.688 755.776 975.16 757.146 977.633C755.427 978.28 754.281 978.676 752.825 979.214C752.829 979.214 752.832 979.231 752.837 979.233C751.331 979.785 750.271 980.157 749.063 980.592C747.215 981.258 744.893 982.076 743.035 982.714C741.791 983.141 740.695 983.527 739.13 984.054C739.126 984.054 739.123 984.037 739.118 984.035C737.64 984.528 736.499 984.935 734.742 985.51C733.558 983.063 732.372 980.619 731.188 978.172C721.15 981.568 710.898 984.682 700.435 987.496C701.387 989.928 702.343 992.36 703.295 994.792C701.495 995.267 700.305 995.55 698.784 995.942C698.785 995.942 698.786 995.959 698.788 995.959C697.662 996.247 696.917 996.427 695.968 996.667C693.46 997.3 690.441 998.035 687.945 998.617C686.821 998.88 685.884 999.109 684.508 999.424C684.506 999.424 684.506 999.407 684.504 999.407C682.97 999.755 681.785 1000.05 679.962 1000.45C679.161 997.999 678.357 995.55 677.555 993.101C667.096 995.419 656.457 997.463 645.622 999.198C646.222 1001.69 646.826 1004.18 647.427 1006.67C645.571 1006.97 644.347 1007.14 642.78 1007.39C642.781 1007.39 642.782 1007.4 642.784 1007.4C641.246 1007.64 640.174 1007.8 638.932 1007.98C636.99 1008.27 634.559 1008.63 632.63 1008.89C631.207 1009.08 629.918 1009.26 628.108 1009.5C628.107 1009.5 628.106 1009.48 628.104 1009.48C626.531 1009.68 625.311 1009.86 623.446 1010.08C622.99 1007.54 622.532 1005 622.076 1002.46C611.386 1003.72 600.523 1004.69 589.506 1005.38C589.76 1008 590.017 1010.62 590.27 1013.24C588.387 1013.37 587.149 1013.42 585.56 1013.52C585.56 1013.52 585.559 1013.54 585.56 1013.54C584.112 1013.62 583.12 1013.67 581.939 1013.74C579.761 1013.86 577.066 1014 574.904 1014.09C573.566 1014.14 572.388 1014.2 570.707 1014.26C570.707 1014.24 570.708 1014.24 570.707 1014.24C569.116 1014.29 567.88 1014.36 565.994 1014.41C565.894 1011.74 565.793 1009.07 565.694 1006.4C564.439 1006.43 563.194 1006.48 561.935 1006.5C552.284 1006.68 542.618 1006.61 532.956 1006.33C532.835 1009.05 532.718 1011.76 532.597 1014.48L532.597 1014.48ZM551.707 1001.95C555.079 1001.95 558.45 1001.91 561.819 1001.85C563.059 1001.83 564.283 1001.78 565.519 1001.75C564.932 986.037 564.341 970.326 563.748 954.615C559.399 954.715 555.034 954.781 550.632 954.779C545.462 954.779 540.341 954.679 535.244 954.535C534.554 970.251 533.861 985.966 533.162 1001.68C539.344 1001.86 545.527 1001.96 551.707 1001.95ZM589.057 1000.74C599.945 1000.05 610.68 999.1 621.245 997.856C618.449 982.303 615.652 966.75 612.851 951.198C603.539 952.292 594.086 953.147 584.49 953.741C586.017 969.405 587.541 985.07 589.057 1000.74ZM509.657 1000.53C511.29 984.871 512.914 969.211 514.532 953.551C504.969 952.91 495.535 952.039 486.257 950.9C483.364 966.417 480.472 981.934 477.571 997.451C488.228 998.763 498.93 999.794 509.657 1000.53ZM644.518 994.626C655.226 992.911 665.744 990.89 676.08 988.6C671.11 973.415 666.137 958.231 661.16 943.048C652.054 945.069 642.784 946.844 633.349 948.354C637.076 963.777 640.799 979.201 644.518 994.626ZM454.41 994.131C458.226 978.741 462.038 963.35 465.848 947.959C456.468 946.406 447.256 944.58 438.202 942.521C433.136 957.713 428.067 972.905 422.99 988.095C433.382 990.397 443.863 992.403 454.41 994.131ZM698.694 983.065C709.038 980.283 719.169 977.203 729.092 973.847C722.022 959.235 714.947 944.625 707.867 930.019C699.125 932.985 690.198 935.7 681.086 938.156C686.962 953.124 692.831 968.094 698.694 983.065ZM400.458 982.615C406.449 967.598 412.436 952.579 418.419 937.559C409.379 935.071 400.523 932.321 391.851 929.331C384.61 944.086 377.368 958.843 370.12 973.597C380.111 976.887 390.229 979.899 400.458 982.615ZM750.677 965.98C760.482 962.135 770.057 958.005 779.397 953.599C770.32 939.772 761.239 925.946 752.152 912.123C743.931 916.017 735.502 919.667 726.872 923.063C734.812 937.367 742.746 951.673 750.677 965.98ZM348.513 965.945C356.681 951.408 364.843 936.871 373 922.328C364.441 918.912 356.085 915.243 347.933 911.336C338.507 925.547 329.076 939.756 319.639 953.963C329.097 958.247 338.732 962.236 348.513 965.945ZM299.253 944.144C309.612 930.216 319.968 916.287 330.317 902.353C322.365 898.039 314.633 893.482 307.123 888.697C295.511 902.185 283.895 915.667 272.273 929.148C281.059 934.433 290.058 939.437 299.253 944.144ZM799.578 943.476C808.688 938.608 817.549 933.464 826.153 928.058C815.197 915.22 804.24 902.382 793.28 889.545C785.71 894.323 777.914 898.868 769.899 903.169C779.797 916.602 789.69 930.037 799.578 943.476ZM253.403 917.137C265.931 904.034 278.453 890.929 290.971 877.82C283.717 872.647 276.701 867.244 269.926 861.625C256.209 874.116 242.487 886.602 228.764 899.087C236.598 905.307 244.805 911.329 253.403 917.137ZM844.626 915.774C852.924 909.937 860.952 903.837 868.704 897.493C856.036 885.847 843.363 874.204 830.687 862.563C823.871 868.165 816.813 873.547 809.518 878.701C821.225 891.055 832.929 903.412 844.626 915.774ZM211.803 884.797C226.343 872.847 240.881 860.895 255.414 848.939C248.923 842.937 242.69 836.717 236.716 830.295C221.156 841.405 205.593 852.51 190.028 863.614C196.888 870.876 204.142 877.942 211.803 884.797ZM885.242 883.181C892.643 876.426 899.755 869.428 906.571 862.2C892.378 851.943 878.184 841.687 863.987 831.436C857.996 837.812 851.746 843.984 845.244 849.942C858.58 861.018 871.912 872.098 885.242 883.181ZM175.325 847.046C191.554 836.639 207.783 826.234 224.005 815.819C218.335 808.998 212.944 801.974 207.835 794.758C190.848 804.099 173.858 813.432 156.867 822.764C162.61 831.048 168.755 839.15 175.325 847.046ZM921.053 845.963C927.496 838.324 933.631 830.462 939.444 822.382C923.926 813.7 908.408 805.017 892.883 796.342C887.771 803.466 882.381 810.399 876.72 817.133C891.501 826.739 906.278 836.35 921.053 845.963ZM951.74 804.255C957.168 795.727 962.267 786.991 967.012 778.051C950.371 771.124 933.732 764.197 917.085 757.279C912.907 765.152 908.431 772.85 903.659 780.359C919.69 788.32 935.714 796.286 951.74 804.255ZM144.717 803.979C162.157 795.495 179.596 787.01 197.029 778.517C192.237 770.856 187.749 763.007 183.573 754.972C165.688 762.214 147.801 769.451 129.91 776.682C134.437 785.951 139.35 795.065 144.717 803.979ZM976.907 757.964C981.243 748.504 985.205 738.842 988.787 728.997C971.295 724.028 953.802 719.064 936.307 714.106C933.14 722.773 929.637 731.273 925.816 739.599C942.847 745.718 959.877 751.839 976.907 757.964ZM120.486 755.73C138.599 749.454 156.711 743.176 174.82 736.89C170.998 728.342 167.523 719.606 164.389 710.706C146.089 715.643 127.786 720.572 109.482 725.497C112.727 735.728 116.392 745.811 120.486 755.73ZM996.122 706.846C999.234 696.389 1001.93 685.745 1004.19 674.928C986.125 672.114 968.053 669.305 949.98 666.504C947.952 676.026 945.571 685.403 942.81 694.607C960.582 698.682 978.352 702.763 996.122 706.846ZM102.915 702.385C121.278 698.467 139.641 694.549 158.001 690.622C155.286 681.119 152.944 671.45 151.007 661.616C132.644 664.135 114.278 666.651 95.9137 669.162C97.821 680.361 100.15 691.443 102.915 702.385Z" fill="black" stroke="black"/>
<path fill-rule="evenodd" clip-rule="evenodd" d="M108.513 854.34L404.996 854.243L405.028 895.09C403.504 915.664 459.644 893.619 460.599 910.514C461.267 922.312 439.572 920.928 413.579 921.78L111.781 922.108C69.5336 922.38 32.9101 939.99 10.2655 958.578C15.5786 934.158 38.031 905.735 72.9981 891.68C61.1923 889.129 23.0437 886.721 1.34375 893.519C23.1965 864.715 71.4592 853.547 108.513 854.34Z" fill="#0071BC" stroke="black" stroke-width="0.99999"/>
<path fill-rule="evenodd" clip-rule="evenodd" d="M994.709 854.34L707.094 854.243L707.062 895.09C708.541 915.664 654.08 893.619 653.153 910.514C652.505 922.312 673.551 920.927 698.767 921.78L991.538 922.108C1032.52 922.38 1068.05 939.99 1090.02 958.578C1084.86 934.158 1063.08 905.735 1029.16 891.68C1040.61 889.129 1077.62 886.721 1098.67 893.518C1077.47 864.715 1030.65 853.547 994.709 854.34Z" fill="#0071BC" stroke="black" stroke-width="0.99999"/>
<path fill-rule="evenodd" clip-rule="evenodd" d="M329.475 827.48C331.197 812.286 503.662 810.418 555.672 810.418C607.681 810.418 780.146 812.286 781.869 827.48L781.835 854.241L781.785 895.088C780.722 885.722 714.803 881.468 652.212 879.582C613.272 878.41 575.619 878.153 555.672 878.153C535.725 878.153 498.071 878.41 459.131 879.582C396.54 881.468 330.622 885.722 329.559 895.088L329.508 854.241L329.475 827.48Z" fill="#0071BC" stroke="black" stroke-width="0.99999"/>
<path fill-rule="evenodd" clip-rule="evenodd" d="M652.128 910.515L652.212 879.584C714.803 881.47 780.721 885.724 781.784 895.091C784.12 915.664 653.592 893.62 652.128 910.515Z" fill="#0071BC" stroke="black" stroke-width="0.99999"/>
<path fill-rule="evenodd" clip-rule="evenodd" d="M459.131 879.584L459.215 910.515C457.751 893.62 327.222 915.664 329.558 895.091C330.621 885.724 396.54 881.47 459.131 879.584Z" fill="#0071BC" stroke="black" stroke-width="0.99999"/>
<path fill-rule="evenodd" clip-rule="evenodd" d="M160.489 902.495V907H135.254C135.219 905.871 135.402 904.786 135.801 903.745C136.443 902.026 137.468 900.333 138.874 898.667C140.298 897 142.346 895.073 145.02 892.885C149.169 889.483 151.973 886.792 153.431 884.812C154.89 882.816 155.619 880.932 155.619 879.161C155.619 877.304 154.95 875.741 153.614 874.474C152.294 873.189 150.567 872.547 148.431 872.547C146.174 872.547 144.369 873.224 143.015 874.578C141.66 875.932 140.975 877.807 140.957 880.203L136.14 879.708C136.469 876.114 137.711 873.38 139.864 871.505C142.016 869.613 144.907 868.667 148.535 868.667C152.199 868.667 155.098 869.682 157.233 871.714C159.369 873.745 160.436 876.262 160.436 879.266C160.436 880.793 160.124 882.295 159.499 883.771C158.874 885.246 157.832 886.8 156.374 888.432C154.933 890.064 152.528 892.304 149.16 895.151C146.348 897.512 144.542 899.118 143.744 899.969C142.945 900.802 142.285 901.644 141.765 902.495H160.489Z" fill="black" stroke="black" stroke-width="0.5"/>
<path fill-rule="evenodd" clip-rule="evenodd" d="M182.233 907V868.823H195.384C198.353 868.823 200.619 869.005 202.181 869.37C204.369 869.873 206.235 870.785 207.78 872.104C209.794 873.806 211.296 875.984 212.285 878.641C213.292 881.28 213.796 884.3 213.796 887.703C213.796 890.602 213.457 893.172 212.78 895.411C212.103 897.651 211.235 899.509 210.176 900.984C209.117 902.443 207.954 903.597 206.687 904.448C205.437 905.281 203.917 905.915 202.129 906.349C200.358 906.783 198.318 907 196.009 907H182.233ZM187.285 902.495H195.437C197.954 902.495 199.924 902.26 201.348 901.792C202.789 901.323 203.935 900.663 204.785 899.813C205.983 898.615 206.912 897.009 207.572 894.995C208.249 892.964 208.588 890.507 208.588 887.625C208.588 883.632 207.928 880.568 206.608 878.432C205.306 876.28 203.718 874.839 201.843 874.109C200.489 873.589 198.31 873.328 195.306 873.328H187.285V902.495Z" fill="black" stroke="black" stroke-width="0.5"/>
<path fill-rule="evenodd" clip-rule="evenodd" d="M220.879 907V868.823H248.484V873.328H225.931V885.021H247.051V889.5H225.931V902.495H249.369V907H220.879Z" fill="black" stroke="black" stroke-width="0.5"/>
<path fill-rule="evenodd" clip-rule="evenodd" d="M874.312 906.349H869.625V876.479C868.497 877.555 867.012 878.632 865.172 879.708C863.349 880.785 861.708 881.592 860.25 882.13V877.599C862.872 876.366 865.163 874.873 867.125 873.12C869.087 871.366 870.476 869.665 871.292 868.016H874.312V906.349Z" fill="black" stroke="black" stroke-width="0.5"/>
<path fill-rule="evenodd" clip-rule="evenodd" d="M887.047 897.521L891.552 897.104C891.934 899.222 892.663 900.759 893.74 901.713C894.816 902.668 896.196 903.146 897.88 903.146C899.321 903.146 900.58 902.816 901.656 902.156C902.75 901.496 903.644 900.62 904.339 899.526C905.033 898.415 905.615 896.922 906.083 895.047C906.552 893.172 906.786 891.262 906.786 889.318C906.786 889.109 906.778 888.797 906.76 888.38C905.823 889.873 904.538 891.088 902.906 892.026C901.292 892.946 899.538 893.406 897.646 893.406C894.486 893.406 891.812 892.26 889.625 889.969C887.438 887.677 886.344 884.656 886.344 880.906C886.344 877.035 887.481 873.918 889.755 871.557C892.047 869.196 894.911 868.016 898.349 868.016C900.832 868.016 903.097 868.684 905.146 870.021C907.212 871.357 908.774 873.267 909.833 875.75C910.91 878.215 911.448 881.792 911.448 886.479C911.448 891.357 910.918 895.246 909.859 898.146C908.8 901.028 907.221 903.224 905.12 904.734C903.036 906.245 900.589 907 897.776 907C894.79 907 892.351 906.175 890.458 904.526C888.566 902.859 887.429 900.524 887.047 897.521ZM906.24 880.672C906.24 877.981 905.519 875.845 904.078 874.266C902.655 872.686 900.936 871.896 898.922 871.896C896.839 871.896 895.024 872.746 893.479 874.448C891.934 876.149 891.161 878.354 891.161 881.062C891.161 883.493 891.891 885.472 893.349 887C894.825 888.51 896.639 889.266 898.792 889.266C900.962 889.266 902.741 888.51 904.13 887C905.536 885.472 906.24 883.363 906.24 880.672Z" fill="black" stroke="black" stroke-width="0.5"/>
<path fill-rule="evenodd" clip-rule="evenodd" d="M933.688 906.349H929V876.479C927.872 877.555 926.387 878.632 924.547 879.708C922.724 880.785 921.083 881.592 919.625 882.13V877.599C922.247 876.366 924.538 874.873 926.5 873.12C928.462 871.366 929.851 869.665 930.667 868.016H933.688V906.349Z" fill="black" stroke="black" stroke-width="0.5"/>
<path fill-rule="evenodd" clip-rule="evenodd" d="M960.745 906.349V897.208H944.182V892.911L961.604 868.172H965.432V892.911H970.588V897.208H965.432V906.349H960.745ZM960.745 892.911V875.698L948.792 892.911H960.745Z" fill="black" stroke="black" stroke-width="0.5"/>
<path fill-rule="evenodd" clip-rule="evenodd" d="M418.25 844.38C418.25 838.043 419.951 833.087 423.354 829.51C426.757 825.917 431.149 824.12 436.531 824.12C440.056 824.12 443.233 824.962 446.062 826.646C448.892 828.33 451.045 830.682 452.521 833.703C454.014 836.707 454.76 840.118 454.76 843.938C454.76 847.809 453.979 851.273 452.417 854.328C450.854 857.384 448.641 859.701 445.776 861.281C442.911 862.844 439.821 863.625 436.505 863.625C432.911 863.625 429.7 862.757 426.87 861.021C424.04 859.285 421.896 856.915 420.438 853.911C418.979 850.908 418.25 847.731 418.25 844.38ZM423.458 844.458C423.458 849.059 424.691 852.687 427.156 855.344C429.639 857.983 432.747 859.302 436.479 859.302C440.281 859.302 443.406 857.965 445.854 855.292C448.319 852.618 449.552 848.825 449.552 843.911C449.552 840.804 449.023 838.095 447.964 835.786C446.922 833.46 445.385 831.663 443.354 830.396C441.34 829.111 439.075 828.469 436.557 828.469C432.981 828.469 429.899 829.701 427.312 832.167C424.743 834.615 423.458 838.712 423.458 844.458Z" fill="black" stroke="black" stroke-width="0.5"/>
<path fill-rule="evenodd" clip-rule="evenodd" d="M486.297 824.797H491.349V846.854C491.349 850.691 490.915 853.738 490.047 855.995C489.179 858.252 487.607 860.092 485.333 861.516C483.076 862.922 480.107 863.625 476.427 863.625C472.851 863.625 469.925 863.009 467.651 861.776C465.377 860.543 463.753 858.764 462.781 856.438C461.809 854.094 461.323 850.899 461.323 846.854V824.797H466.375V846.828C466.375 850.144 466.679 852.592 467.286 854.172C467.911 855.734 468.97 856.941 470.463 857.792C471.974 858.642 473.814 859.068 475.984 859.068C479.699 859.068 482.347 858.226 483.927 856.542C485.507 854.858 486.297 851.62 486.297 846.828V824.797Z" fill="black" stroke="black" stroke-width="0.5"/>
<path fill-rule="evenodd" clip-rule="evenodd" d="M509.5 862.974V829.302H496.922V824.797H527.182V829.302H514.552V862.974H509.5Z" fill="black" stroke="black" stroke-width="0.5"/>
<path fill-rule="evenodd" clip-rule="evenodd" d="M557.651 824.797H562.703V846.854C562.703 850.691 562.269 853.738 561.401 855.995C560.533 858.252 558.961 860.092 556.687 861.516C554.43 862.922 551.461 863.625 547.781 863.625C544.205 863.625 541.279 863.009 539.005 861.776C536.731 860.543 535.107 858.764 534.135 856.438C533.163 854.094 532.677 850.899 532.677 846.854V824.797H537.729V846.828C537.729 850.144 538.033 852.592 538.64 854.172C539.265 855.734 540.324 856.941 541.817 857.792C543.328 858.642 545.168 859.068 547.338 859.068C551.053 859.068 553.701 858.226 555.281 856.542C556.861 854.858 557.651 851.62 557.651 846.828V824.797Z" fill="black" stroke="black" stroke-width="0.5"/>
<path fill-rule="evenodd" clip-rule="evenodd" d="M570.932 862.974V824.797H585.255C588.172 824.797 590.507 825.187 592.26 825.969C594.031 826.733 595.411 827.922 596.401 829.536C597.408 831.134 597.911 832.809 597.911 834.562C597.911 836.194 597.469 837.731 596.583 839.172C595.698 840.613 594.361 841.776 592.573 842.661C594.882 843.339 596.653 844.493 597.885 846.125C599.135 847.757 599.76 849.684 599.76 851.906C599.76 853.694 599.378 855.361 598.614 856.906C597.868 858.434 596.939 859.615 595.828 860.448C594.717 861.281 593.319 861.915 591.635 862.349C589.969 862.766 587.92 862.974 585.489 862.974H570.932ZM575.984 840.839H584.239C586.479 840.839 588.085 840.691 589.057 840.396C590.342 840.014 591.305 839.38 591.948 838.495C592.607 837.609 592.937 836.498 592.937 835.161C592.937 833.894 592.634 832.783 592.026 831.828C591.418 830.856 590.55 830.196 589.422 829.849C588.293 829.484 586.357 829.302 583.614 829.302H575.984V840.839ZM575.984 858.469H585.489C587.121 858.469 588.267 858.408 588.927 858.286C590.09 858.078 591.062 857.731 591.844 857.245C592.625 856.759 593.267 856.056 593.771 855.135C594.274 854.198 594.526 853.122 594.526 851.906C594.526 850.483 594.161 849.25 593.432 848.208C592.703 847.149 591.687 846.411 590.385 845.995C589.101 845.561 587.243 845.344 584.812 845.344H575.984V858.469Z" fill="black" stroke="black" stroke-width="0.5"/>
<path fill-rule="evenodd" clip-rule="evenodd" d="M606.844 862.974V824.797H623.771C627.174 824.797 629.76 825.144 631.531 825.839C633.302 826.516 634.717 827.722 635.776 829.458C636.835 831.194 637.365 833.113 637.365 835.214C637.365 837.922 636.488 840.205 634.734 842.062C632.981 843.92 630.273 845.101 626.609 845.604C627.946 846.246 628.962 846.88 629.656 847.505C631.132 848.859 632.53 850.552 633.849 852.583L640.49 862.974H634.135L629.083 855.031C627.608 852.74 626.392 850.986 625.438 849.771C624.483 848.556 623.623 847.705 622.859 847.219C622.113 846.733 621.349 846.394 620.568 846.203C619.995 846.082 619.057 846.021 617.755 846.021H611.896V862.974H606.844ZM611.896 841.646H622.755C625.064 841.646 626.87 841.411 628.172 840.943C629.474 840.457 630.464 839.693 631.141 838.651C631.818 837.592 632.156 836.446 632.156 835.214C632.156 833.408 631.497 831.924 630.177 830.76C628.875 829.597 626.809 829.016 623.979 829.016H611.896V841.646Z" fill="black" stroke="black" stroke-width="0.5"/>
<path fill-rule="evenodd" clip-rule="evenodd" d="M643.771 844.38C643.771 838.043 645.472 833.087 648.875 829.51C652.278 825.917 656.67 824.12 662.052 824.12C665.577 824.12 668.754 824.962 671.583 826.646C674.413 828.33 676.566 830.682 678.042 833.703C679.535 836.707 680.281 840.118 680.281 843.938C680.281 847.809 679.5 851.273 677.938 854.328C676.375 857.384 674.162 859.701 671.297 861.281C668.432 862.844 665.342 863.625 662.026 863.625C658.432 863.625 655.221 862.757 652.391 861.021C649.561 859.285 647.417 856.915 645.958 853.911C644.5 850.908 643.771 847.731 643.771 844.38ZM648.979 844.458C648.979 849.059 650.212 852.687 652.677 855.344C655.16 857.983 658.268 859.302 662 859.302C665.802 859.302 668.927 857.965 671.375 855.292C673.84 852.618 675.073 848.825 675.073 843.911C675.073 840.804 674.544 838.095 673.485 835.786C672.443 833.46 670.906 831.663 668.875 830.396C666.861 829.111 664.596 828.469 662.078 828.469C658.502 828.469 655.42 829.701 652.833 832.167C650.264 834.615 648.979 838.712 648.979 844.458Z" fill="black" stroke="black" stroke-width="0.5"/>
<path d="M339.034 229.656L314.762 190.801L329.419 181.645C331.998 180.034 334.046 178.927 335.561 178.324C337.668 177.45 339.648 177.061 341.5 177.156C343.342 177.234 345.154 177.834 346.936 178.956C348.735 180.068 350.237 181.586 351.44 183.512C353.504 186.816 354.202 190.273 353.534 193.884C352.855 197.477 349.769 200.989 344.273 204.422L334.308 210.647L344.176 226.444L339.034 229.656ZM331.444 206.062L341.489 199.787C344.81 197.712 346.783 195.62 347.406 193.512C348.029 191.403 347.64 189.226 346.238 186.982C345.223 185.357 343.941 184.229 342.393 183.599C340.852 182.941 339.294 182.846 337.72 183.313C336.71 183.625 335.039 184.509 332.707 185.966L322.768 192.174L331.444 206.062Z" fill="black" stroke="black" stroke-width="0.5"/>
<path d="M363.86 188.012C360.48 181.201 359.664 174.965 361.414 169.306C363.155 163.628 366.918 159.353 372.703 156.482C376.492 154.602 380.356 153.813 384.296 154.113C388.236 154.414 391.805 155.794 395.003 158.254C398.21 160.686 400.832 163.955 402.869 168.061C404.935 172.222 405.942 176.362 405.893 180.48C405.843 184.598 404.7 188.27 402.464 191.496C400.218 194.704 397.313 197.192 393.749 198.961C389.886 200.878 385.97 201.658 382.002 201.302C378.034 200.945 374.465 199.541 371.296 197.091C368.126 194.64 365.647 191.614 363.86 188.012ZM369.5 185.318C371.954 190.263 375.215 193.506 379.282 195.046C383.358 196.559 387.402 196.319 391.415 194.328C395.502 192.3 398.148 189.196 399.353 185.016C400.576 180.827 399.878 176.092 397.257 170.811C395.599 167.47 393.585 164.842 391.215 162.925C388.855 160.98 386.245 159.868 383.385 159.589C380.535 159.282 377.757 159.8 375.051 161.143C371.207 163.051 368.552 166.02 367.086 170.05C365.63 174.051 366.435 179.141 369.5 185.318Z" fill="black" stroke="black" stroke-width="0.5"/>
<path d="M420.37 185.572L404.931 142.439L424.055 135.594C427.899 134.217 430.962 133.564 433.244 133.632C435.518 133.681 437.605 134.472 439.504 136.005C441.402 137.538 442.776 139.491 443.626 141.865C444.721 144.925 444.654 147.858 443.424 150.666C442.194 153.474 439.612 155.903 435.677 157.954C437.447 158.139 438.85 158.444 439.888 158.869C442.103 159.802 444.366 161.15 446.678 162.911L458.383 171.965L451.204 174.534L442.284 167.604C439.69 165.612 437.608 164.122 436.038 163.135C434.467 162.148 433.152 161.535 432.093 161.294C431.053 161.047 430.053 160.973 429.093 161.074C428.397 161.168 427.313 161.479 425.842 162.005L419.222 164.375L426.078 183.528L420.37 185.572ZM417.452 159.432L429.721 155.04C432.33 154.106 434.275 153.111 435.557 152.055C436.831 150.979 437.64 149.716 437.984 148.265C438.321 146.795 438.24 145.364 437.741 143.971C437.011 141.931 435.666 140.521 433.704 139.74C431.763 138.953 429.194 139.131 425.996 140.276L412.345 145.162L417.452 159.432Z" fill="black" stroke="black" stroke-width="0.5"/>
<path d="M474.369 168.439L465.266 129.072L450.56 132.473L449.342 127.205L484.721 119.024L485.939 124.291L471.173 127.706L480.276 167.074L474.369 168.439Z" fill="black" stroke="black" stroke-width="0.5"/>
<path d="M496.471 140.62C495.764 133.049 497.244 126.937 500.91 122.284C504.575 117.611 509.623 114.974 516.053 114.373C520.264 113.98 524.154 114.632 527.723 116.328C531.292 118.025 534.126 120.595 536.227 124.04C538.345 127.462 539.618 131.455 540.044 136.018C540.476 140.644 539.929 144.869 538.403 148.694C536.877 152.519 534.491 155.536 531.244 157.743C527.996 159.929 524.391 161.207 520.429 161.577C516.135 161.978 512.201 161.299 508.626 159.541C505.051 157.782 502.225 155.19 500.148 151.764C498.07 148.338 496.844 144.623 496.471 140.62ZM502.702 140.132C503.216 145.629 505.093 149.827 508.335 152.726C511.596 155.602 515.456 156.832 519.916 156.415C524.458 155.991 528.043 154.045 530.67 150.578C533.317 147.108 534.366 142.438 533.818 136.568C533.472 132.855 532.537 129.678 531.014 127.037C529.51 124.374 527.474 122.399 524.905 121.111C522.356 119.801 519.577 119.286 516.569 119.567C512.296 119.966 508.752 121.782 505.936 125.016C503.139 128.228 502.061 133.266 502.702 140.132Z" fill="black" stroke="black" stroke-width="0.5"/>
<path d="M580.796 160.953L568.125 113.484L574.649 114.197L582.871 148.574C583.535 151.329 584.06 153.901 584.449 156.291C585.425 153.883 586.514 151.487 587.718 149.103L603.633 117.363L609.784 118.034L586.978 161.628L580.796 160.953Z" fill="black" stroke="black" stroke-width="0.5"/>
<path d="M610.339 164.888L621.145 120.368L653.335 128.181L652.06 133.435L625.761 127.052L622.452 140.687L647.08 146.665L645.812 151.888L621.184 145.91L617.506 161.064L644.837 167.698L643.562 172.952L610.339 164.888Z" fill="black" stroke="black" stroke-width="0.5"/>
<path d="M651.336 175.62L666.929 132.543L672.629 134.606L658.877 172.6L680.092 180.279L678.252 185.363L651.336 175.62Z" fill="black" stroke="black" stroke-width="0.5"/>
<path d="M685.155 188.2L705.027 146.922L710.489 149.551L702.329 166.502L723.785 176.831L731.945 159.88L737.408 162.51L717.536 203.788L712.073 201.158L721.44 181.702L699.984 171.373L690.618 190.83L685.155 188.2Z" fill="black" stroke="black" stroke-width="0.5"/>
<path d="M736.564 188.685C740.547 182.207 745.402 178.21 751.128 176.694C756.866 175.159 762.485 176.084 767.986 179.467C771.589 181.682 774.307 184.54 776.141 188.04C777.975 191.54 778.697 195.298 778.306 199.314C777.945 203.322 776.563 207.279 774.162 211.183C771.729 215.14 768.753 218.19 765.235 220.331C761.717 222.472 757.998 223.45 754.076 223.264C750.166 223.06 746.516 221.916 743.127 219.832C739.453 217.573 736.716 214.667 734.914 211.113C733.113 207.56 732.411 203.789 732.808 199.803C733.206 195.816 734.457 192.11 736.564 188.685ZM741.838 192.039C738.946 196.741 737.926 201.225 738.776 205.49C739.655 209.748 742.002 213.05 745.817 215.397C749.704 217.787 753.738 218.385 757.921 217.19C762.122 216.007 765.766 212.904 768.855 207.882C770.808 204.706 771.97 201.604 772.338 198.578C772.736 195.546 772.295 192.743 771.015 190.171C769.764 187.592 767.852 185.511 765.279 183.928C761.623 181.68 757.699 181.003 753.505 181.897C749.34 182.784 745.451 186.165 741.838 192.039Z" fill="black" stroke="black" stroke-width="0.5"/>
<path d="M550 260.211L588.402 289.488L573.61 242.287L612.012 213.011H564.505L550 165.512L535.488 213.011H487.988L526.39 242.287L511.598 289.488L550 260.211Z" fill="#E3E4E5" stroke="black" stroke-linejoin="round"/>
<path d="M550 233.923L612.012 213.011H564.505L550 233.923Z" fill="#E3E4E5" stroke="black" stroke-linejoin="round"/>
<path d="M550 233.923V165.512L535.488 213.011L550 233.923Z" fill="#E3E4E5" stroke="black" stroke-linejoin="round"/>
<path d="M550 233.923L487.988 213.011L526.39 242.287L550 233.923Z" fill="#E3E4E5" stroke="black" stroke-linejoin="round"/>
<path d="M550 233.923L511.598 289.488L550 260.211V233.923Z" fill="#E3E4E5" stroke="black" stroke-linejoin="round"/>
<path d="M550 233.923L588.402 289.488L573.61 242.287L550 233.923Z" fill="#E3E4E5" stroke="black" stroke-linejoin="round"/>
<path d="M550 233.923V165.512L564.505 213.011L550 233.923Z" fill="#E3E4E5" stroke="black" stroke-linejoin="round"/>
<path d="M550 233.923L487.988 213.011H535.488L550 233.923Z" fill="#E3E4E5" stroke="black" stroke-linejoin="round"/>
<path d="M550 233.923L511.598 289.488L526.39 242.287L550 233.923Z" fill="#E3E4E5" stroke="black" stroke-linejoin="round"/>
<path d="M550 233.923L588.402 289.488L550 260.211V233.923Z" fill="#E3E4E5" stroke="black" stroke-linejoin="round"/>
<path d="M550 233.923L612.012 213.011L573.61 242.287L550 233.923Z" fill="#E3E4E5" stroke="black" stroke-linejoin="round"/>
</g>
<defs>
<clipPath id="clip0_6794_92">
<rect width="1100" height="1015" fill="white"/>
</clipPath>
</defs>
</svg>
