<svg width="1000" height="150" viewBox="0 0 1000 150" fill="none" xmlns="http://www.w3.org/2000/svg">
<g clip-path="url(#clip0_6871_149)">
<rect width="1000" height="150" rx="8" fill="#EDEDED"/>
<path d="M168.96 45.832C167.872 45.832 166.896 46.072 166.032 46.552C165.168 47 164.432 47.672 163.824 48.568C163.216 49.432 162.752 50.488 162.432 51.736C162.112 52.984 161.952 54.408 161.952 56.008C161.952 58.152 162.224 59.96 162.768 61.432C163.312 62.904 164.144 64.024 165.264 64.792C166.384 65.528 167.792 65.896 169.488 65.896C170.992 65.896 172.448 65.688 173.856 65.272C175.296 64.856 176.736 64.344 178.176 63.736V71.56C176.672 72.232 175.12 72.712 173.52 73C171.952 73.32 170.272 73.48 168.48 73.48C164.768 73.48 161.728 72.744 159.36 71.272C156.992 69.8 155.248 67.752 154.128 65.128C153.008 62.472 152.448 59.416 152.448 55.96C152.448 53.368 152.8 51 153.504 48.856C154.24 46.68 155.312 44.808 156.72 43.24C158.128 41.64 159.856 40.408 161.904 39.544C163.984 38.68 166.368 38.248 169.056 38.248C170.72 38.248 172.464 38.44 174.288 38.824C176.112 39.208 177.904 39.816 179.664 40.648L176.832 47.944C175.584 47.336 174.32 46.84 173.04 46.456C171.76 46.04 170.4 45.832 168.96 45.832ZM205.892 73L204.212 66.568H193.076L191.348 73H181.172L192.356 38.584H204.692L216.02 73H205.892ZM200.804 53.368C200.644 52.76 200.42 51.896 200.132 50.776C199.844 49.624 199.556 48.44 199.268 47.224C198.98 46.008 198.756 45.016 198.596 44.248C198.468 45.016 198.26 45.976 197.972 47.128C197.716 48.28 197.444 49.416 197.156 50.536C196.9 51.656 196.676 52.6 196.484 53.368L194.996 58.984H202.292L200.804 53.368ZM230.928 38.728C234.032 38.728 236.608 39.112 238.656 39.88C240.736 40.648 242.288 41.784 243.312 43.288C244.368 44.76 244.896 46.616 244.896 48.856C244.896 50.232 244.656 51.496 244.176 52.648C243.728 53.8 243.072 54.824 242.208 55.72C241.344 56.616 240.304 57.4 239.088 58.072L249.072 73H238.56L231.312 60.52H228.96V73H219.696V38.728H230.928ZM230.784 45.736H228.96V53.56H230.688C231.648 53.56 232.48 53.432 233.184 53.176C233.92 52.888 234.496 52.44 234.912 51.832C235.328 51.192 235.536 50.344 235.536 49.288C235.536 48.552 235.376 47.928 235.056 47.416C234.736 46.872 234.224 46.456 233.52 46.168C232.816 45.88 231.904 45.736 230.784 45.736ZM267.3 73H258.036V46.312H249.684V38.728H275.652V46.312H267.3V73ZM298.189 73L296.509 66.568H285.373L283.645 73H273.469L284.653 38.584H296.989L308.317 73H298.189ZM293.101 53.368C292.941 52.76 292.717 51.896 292.429 50.776C292.141 49.624 291.853 48.44 291.565 47.224C291.277 46.008 291.053 45.016 290.893 44.248C290.765 45.016 290.557 45.976 290.269 47.128C290.013 48.28 289.741 49.416 289.453 50.536C289.197 51.656 288.973 52.6 288.781 53.368L287.293 58.984H294.589L293.101 53.368ZM353.55 55.144C353.55 59.112 352.798 62.424 351.294 65.08C349.822 67.736 347.742 69.72 345.054 71.032C342.366 72.344 339.198 73 335.55 73H324.462V38.728H336.318C339.998 38.728 343.118 39.368 345.678 40.648C348.238 41.896 350.19 43.736 351.534 46.168C352.878 48.6 353.55 51.592 353.55 55.144ZM343.95 55.48C343.95 53.4 343.662 51.672 343.086 50.296C342.542 48.92 341.71 47.896 340.59 47.224C339.502 46.552 338.11 46.216 336.414 46.216H333.726V65.416H335.79C338.606 65.416 340.67 64.6 341.982 62.968C343.294 61.336 343.95 58.84 343.95 55.48ZM380.064 73H359.712V38.728H380.064V46.168H368.976V51.544H379.248V58.984H368.976V65.464H380.064V73ZM420.94 62.584C420.94 64.44 420.46 66.2 419.5 67.864C418.572 69.528 417.116 70.888 415.132 71.944C413.18 72.968 410.636 73.48 407.5 73.48C405.932 73.48 404.556 73.4 403.372 73.24C402.22 73.112 401.132 72.888 400.108 72.568C399.084 72.248 398.028 71.832 396.94 71.32V63.064C398.796 63.992 400.668 64.712 402.556 65.224C404.444 65.704 406.156 65.944 407.692 65.944C408.62 65.944 409.372 65.832 409.948 65.608C410.524 65.384 410.956 65.08 411.244 64.696C411.532 64.312 411.676 63.88 411.676 63.4C411.676 62.792 411.468 62.28 411.052 61.864C410.636 61.448 409.98 61.016 409.084 60.568C408.188 60.12 406.988 59.56 405.484 58.888C404.204 58.312 403.052 57.704 402.028 57.064C401.004 56.424 400.124 55.704 399.388 54.904C398.684 54.104 398.14 53.176 397.756 52.12C397.372 51.032 397.18 49.752 397.18 48.28C397.18 46.072 397.724 44.232 398.812 42.76C399.9 41.256 401.404 40.136 403.324 39.4C405.276 38.632 407.532 38.248 410.092 38.248C412.332 38.248 414.348 38.504 416.14 39.016C417.932 39.496 419.532 40.056 420.94 40.696L418.108 47.848C416.636 47.176 415.18 46.648 413.74 46.264C412.332 45.848 411.02 45.64 409.804 45.64C409.004 45.64 408.348 45.736 407.836 45.928C407.324 46.12 406.94 46.392 406.684 46.744C406.46 47.064 406.348 47.432 406.348 47.848C406.348 48.392 406.556 48.872 406.972 49.288C407.388 49.704 408.076 50.168 409.036 50.68C410.028 51.16 411.372 51.784 413.068 52.552C414.732 53.288 416.14 54.104 417.292 55C418.476 55.864 419.372 56.904 419.98 58.12C420.62 59.304 420.94 60.792 420.94 62.584ZM446.579 73H426.227V38.728H446.579V46.168H435.491V51.544H445.763V58.984H435.491V65.464H446.579V73ZM463.803 38.728C466.907 38.728 469.483 39.112 471.531 39.88C473.611 40.648 475.163 41.784 476.187 43.288C477.243 44.76 477.771 46.616 477.771 48.856C477.771 50.232 477.531 51.496 477.051 52.648C476.603 53.8 475.947 54.824 475.083 55.72C474.219 56.616 473.179 57.4 471.963 58.072L481.947 73H471.435L464.187 60.52H461.835V73H452.571V38.728H463.803ZM463.659 45.736H461.835V53.56H463.563C464.523 53.56 465.355 53.432 466.059 53.176C466.795 52.888 467.371 52.44 467.787 51.832C468.203 51.192 468.411 50.344 468.411 49.288C468.411 48.552 468.251 47.928 467.931 47.416C467.611 46.872 467.099 46.456 466.395 46.168C465.691 45.88 464.779 45.736 463.659 45.736ZM514.671 38.728L503.439 73H492.543L481.359 38.728H491.775L496.431 56.104C496.591 56.744 496.783 57.576 497.007 58.6C497.231 59.624 497.439 60.648 497.631 61.672C497.855 62.696 497.983 63.528 498.015 64.168C498.079 63.528 498.191 62.712 498.351 61.72C498.543 60.696 498.735 59.688 498.927 58.696C499.151 57.672 499.359 56.84 499.551 56.2L504.303 38.728H514.671ZM534.176 73H516.32V67.72L520.592 66.088V45.592L516.32 44.008V38.728H534.176V44.008L529.904 45.592V66.088L534.176 67.72V73ZM554.788 45.832C553.7 45.832 552.724 46.072 551.86 46.552C550.996 47 550.26 47.672 549.652 48.568C549.044 49.432 548.58 50.488 548.26 51.736C547.94 52.984 547.78 54.408 547.78 56.008C547.78 58.152 548.052 59.96 548.596 61.432C549.14 62.904 549.972 64.024 551.092 64.792C552.212 65.528 553.62 65.896 555.316 65.896C556.82 65.896 558.276 65.688 559.684 65.272C561.124 64.856 562.564 64.344 564.004 63.736V71.56C562.5 72.232 560.948 72.712 559.348 73C557.78 73.32 556.1 73.48 554.308 73.48C550.596 73.48 547.556 72.744 545.188 71.272C542.82 69.8 541.076 67.752 539.956 65.128C538.836 62.472 538.276 59.416 538.276 55.96C538.276 53.368 538.628 51 539.332 48.856C540.068 46.68 541.14 44.808 542.548 43.24C543.956 41.64 545.684 40.408 547.732 39.544C549.812 38.68 552.196 38.248 554.884 38.248C556.548 38.248 558.292 38.44 560.116 38.824C561.94 39.208 563.732 39.816 565.492 40.648L562.66 47.944C561.412 47.336 560.148 46.84 558.868 46.456C557.588 46.04 556.228 45.832 554.788 45.832ZM559.54 78.904C559.54 80.024 559.268 81 558.724 81.832C558.212 82.696 557.476 83.352 556.516 83.8C555.556 84.28 554.42 84.52 553.108 84.52C552.02 84.52 551.028 84.44 550.132 84.28C549.236 84.12 548.5 83.928 547.924 83.704V79.192C548.468 79.352 548.996 79.48 549.508 79.576C550.02 79.672 550.532 79.72 551.044 79.72C551.652 79.72 552.116 79.592 552.436 79.336C552.788 79.112 552.964 78.792 552.964 78.376C552.964 77.832 552.692 77.4 552.148 77.08C551.636 76.76 550.772 76.488 549.556 76.264L550.996 73H555.556L555.124 74.44C555.764 74.568 556.42 74.792 557.092 75.112C557.796 75.432 558.372 75.88 558.82 76.456C559.3 77.064 559.54 77.88 559.54 78.904ZM601.823 55.816C601.823 58.472 601.503 60.888 600.863 63.064C600.223 65.208 599.231 67.064 597.887 68.632C596.543 70.2 594.815 71.4 592.703 72.232C590.623 73.064 588.111 73.48 585.167 73.48C582.287 73.48 579.791 73.064 577.679 72.232C575.599 71.4 573.871 70.2 572.495 68.632C571.151 67.064 570.143 65.208 569.471 63.064C568.831 60.888 568.511 58.456 568.511 55.768C568.511 52.216 569.103 49.128 570.287 46.504C571.471 43.848 573.295 41.8 575.759 40.36C578.223 38.92 581.375 38.2 585.215 38.2C589.119 38.2 592.287 38.936 594.719 40.408C597.183 41.848 598.975 43.896 600.095 46.552C601.247 49.176 601.823 52.264 601.823 55.816ZM578.255 55.816C578.255 57.864 578.479 59.64 578.927 61.144C579.407 62.616 580.159 63.752 581.183 64.552C582.207 65.352 583.535 65.752 585.167 65.752C586.863 65.752 588.207 65.352 589.199 64.552C590.223 63.752 590.958 62.616 591.406 61.144C591.855 59.64 592.079 57.864 592.079 55.816C592.079 52.712 591.567 50.264 590.543 48.472C589.519 46.68 587.743 45.784 585.215 45.784C583.551 45.784 582.207 46.2 581.183 47.032C580.159 47.832 579.407 48.984 578.927 50.488C578.479 51.96 578.255 53.736 578.255 55.816ZM630.425 62.584C630.425 64.44 629.945 66.2 628.984 67.864C628.057 69.528 626.601 70.888 624.617 71.944C622.665 72.968 620.121 73.48 616.984 73.48C615.417 73.48 614.041 73.4 612.857 73.24C611.705 73.112 610.617 72.888 609.593 72.568C608.569 72.248 607.513 71.832 606.425 71.32V63.064C608.281 63.992 610.153 64.712 612.041 65.224C613.929 65.704 615.641 65.944 617.177 65.944C618.105 65.944 618.857 65.832 619.433 65.608C620.009 65.384 620.441 65.08 620.729 64.696C621.017 64.312 621.161 63.88 621.161 63.4C621.161 62.792 620.953 62.28 620.537 61.864C620.121 61.448 619.465 61.016 618.569 60.568C617.673 60.12 616.473 59.56 614.969 58.888C613.689 58.312 612.537 57.704 611.513 57.064C610.489 56.424 609.609 55.704 608.873 54.904C608.169 54.104 607.625 53.176 607.241 52.12C606.857 51.032 606.665 49.752 606.665 48.28C606.665 46.072 607.209 44.232 608.297 42.76C609.385 41.256 610.889 40.136 612.809 39.4C614.761 38.632 617.017 38.248 619.577 38.248C621.817 38.248 623.833 38.504 625.625 39.016C627.417 39.496 629.017 40.056 630.425 40.696L627.593 47.848C626.121 47.176 624.665 46.648 623.225 46.264C621.817 45.848 620.505 45.64 619.289 45.64C618.489 45.64 617.833 45.736 617.321 45.928C616.809 46.12 616.425 46.392 616.169 46.744C615.945 47.064 615.833 47.432 615.833 47.848C615.833 48.392 616.041 48.872 616.457 49.288C616.873 49.704 617.561 50.168 618.521 50.68C619.513 51.16 620.857 51.784 622.553 52.552C624.217 53.288 625.625 54.104 626.777 55C627.961 55.864 628.857 56.904 629.465 58.12C630.105 59.304 630.425 60.792 630.425 62.584ZM162.704 101.288C161.659 101.288 160.731 101.48 159.92 101.864C159.109 102.248 158.416 102.803 157.84 103.528C157.285 104.253 156.859 105.128 156.56 106.152C156.283 107.176 156.144 108.328 156.144 109.608C156.144 111.336 156.379 112.819 156.848 114.056C157.317 115.272 158.032 116.211 158.992 116.872C159.973 117.533 161.2 117.864 162.672 117.864C163.653 117.864 164.592 117.768 165.488 117.576C166.405 117.363 167.365 117.085 168.368 116.744V120.232C167.429 120.616 166.48 120.893 165.52 121.064C164.581 121.235 163.493 121.32 162.256 121.32C159.909 121.32 157.968 120.84 156.432 119.88C154.896 118.899 153.755 117.533 153.008 115.784C152.261 114.013 151.888 111.944 151.888 109.576C151.888 107.848 152.123 106.269 152.592 104.84C153.083 103.411 153.776 102.173 154.672 101.128C155.589 100.083 156.72 99.272 158.064 98.696C159.408 98.12 160.955 97.832 162.704 97.832C163.856 97.832 164.987 97.9707 166.096 98.248C167.227 98.504 168.283 98.8667 169.264 99.336L167.856 102.696C167.045 102.333 166.203 102.013 165.328 101.736C164.475 101.437 163.6 101.288 162.704 101.288ZM173.289 121V98.152H177.385V117.544H186.921V121H173.289ZM198.626 121H189.026V118.664L191.778 117.64V101.544L189.026 100.488V98.152H198.626V100.488L195.874 101.544V117.64L198.626 118.664V121ZM223.142 109.544C223.142 111.315 222.918 112.925 222.47 114.376C222.043 115.805 221.382 117.043 220.486 118.088C219.611 119.133 218.491 119.923 217.126 120.456L222.63 126.44H217.19L212.934 121.32C212.849 121.32 212.753 121.32 212.646 121.32C212.561 121.32 212.475 121.32 212.39 121.32C210.555 121.32 208.955 121.043 207.59 120.488C206.246 119.912 205.137 119.112 204.262 118.088C203.387 117.043 202.726 115.795 202.278 114.344C201.851 112.893 201.638 111.283 201.638 109.512C201.638 107.144 202.022 105.085 202.79 103.336C203.579 101.587 204.763 100.232 206.342 99.272C207.942 98.2907 209.969 97.8 212.422 97.8C214.833 97.8 216.827 98.2907 218.406 99.272C219.985 100.232 221.169 101.597 221.958 103.368C222.747 105.117 223.142 107.176 223.142 109.544ZM205.958 109.544C205.958 111.272 206.182 112.755 206.63 113.992C207.099 115.229 207.803 116.179 208.742 116.84C209.702 117.501 210.918 117.832 212.39 117.832C213.905 117.832 215.131 117.501 216.07 116.84C217.009 116.179 217.702 115.229 218.15 113.992C218.598 112.755 218.822 111.272 218.822 109.544C218.822 106.963 218.321 104.936 217.318 103.464C216.315 101.992 214.683 101.256 212.422 101.256C210.929 101.256 209.702 101.587 208.742 102.248C207.803 102.909 207.099 103.859 206.63 105.096C206.182 106.333 205.958 107.816 205.958 109.544ZM246.119 112.936C246.119 114.515 245.778 115.944 245.095 117.224C244.434 118.483 243.421 119.485 242.055 120.232C240.69 120.957 238.962 121.32 236.871 121.32C233.906 121.32 231.655 120.552 230.119 119.016C228.583 117.459 227.815 115.411 227.815 112.872V98.152H231.911V112.456C231.911 114.312 232.338 115.677 233.191 116.552C234.045 117.405 235.314 117.832 236.999 117.832C238.194 117.832 239.154 117.629 239.879 117.224C240.626 116.819 241.17 116.211 241.511 115.4C241.874 114.568 242.055 113.576 242.055 112.424V98.152H246.119V112.936ZM264.906 121H251.914V98.152H264.906V101.576H256.01V107.4H264.33V110.824H256.01V117.544H264.906V121ZM291.062 121H278.07V98.152H291.062V101.576H282.166V107.4H290.486V110.824H282.166V117.544H291.062V121ZM313.954 101.288C312.909 101.288 311.981 101.48 311.17 101.864C310.359 102.248 309.666 102.803 309.09 103.528C308.535 104.253 308.109 105.128 307.81 106.152C307.533 107.176 307.394 108.328 307.394 109.608C307.394 111.336 307.629 112.819 308.098 114.056C308.567 115.272 309.282 116.211 310.242 116.872C311.223 117.533 312.45 117.864 313.922 117.864C314.903 117.864 315.842 117.768 316.738 117.576C317.655 117.363 318.615 117.085 319.618 116.744V120.232C318.679 120.616 317.73 120.893 316.77 121.064C315.831 121.235 314.743 121.32 313.506 121.32C311.159 121.32 309.218 120.84 307.682 119.88C306.146 118.899 305.005 117.533 304.258 115.784C303.511 114.013 303.138 111.944 303.138 109.576C303.138 107.848 303.373 106.269 303.842 104.84C304.333 103.411 305.026 102.173 305.922 101.128C306.839 100.083 307.97 99.272 309.314 98.696C310.658 98.12 312.205 97.832 313.954 97.832C315.106 97.832 316.237 97.9707 317.346 98.248C318.477 98.504 319.533 98.8667 320.514 99.336L319.106 102.696C318.295 102.333 317.453 102.013 316.578 101.736C315.725 101.437 314.85 101.288 313.954 101.288ZM344.33 109.544C344.33 111.315 344.106 112.925 343.658 114.376C343.231 115.805 342.57 117.043 341.674 118.088C340.799 119.133 339.679 119.933 338.314 120.488C336.97 121.043 335.391 121.32 333.578 121.32C331.743 121.32 330.143 121.043 328.778 120.488C327.434 119.912 326.324 119.112 325.45 118.088C324.575 117.043 323.914 115.795 323.466 114.344C323.039 112.893 322.826 111.283 322.826 109.512C322.826 107.144 323.21 105.085 323.978 103.336C324.767 101.587 325.951 100.232 327.53 99.272C329.13 98.2907 331.156 97.8 333.61 97.8C336.02 97.8 338.015 98.2907 339.594 99.272C341.172 100.232 342.356 101.597 343.146 103.368C343.935 105.117 344.33 107.176 344.33 109.544ZM327.146 109.544C327.146 111.272 327.37 112.755 327.818 113.992C328.287 115.229 328.991 116.179 329.93 116.84C330.89 117.501 332.106 117.832 333.578 117.832C335.092 117.832 336.319 117.501 337.258 116.84C338.196 116.179 338.89 115.229 339.338 113.992C339.786 112.755 340.01 111.272 340.01 109.544C340.01 106.963 339.508 104.936 338.506 103.464C337.503 101.992 335.871 101.256 333.61 101.256C332.116 101.256 330.89 101.587 329.93 102.248C328.991 102.909 328.287 103.859 327.818 105.096C327.37 106.333 327.146 107.816 327.146 109.544ZM368.619 121H363.531L352.715 103.08H352.587C352.608 103.549 352.629 104.051 352.651 104.584C352.693 105.096 352.725 105.629 352.747 106.184C352.768 106.717 352.789 107.261 352.811 107.816C352.832 108.371 352.853 108.925 352.875 109.48V121H349.195V98.152H354.251L365.035 115.944H365.131C365.109 115.517 365.088 115.059 365.067 114.568C365.045 114.056 365.024 113.533 365.003 113C365.003 112.467 364.992 111.923 364.971 111.368C364.949 110.813 364.928 110.28 364.907 109.768V98.152H368.619V121ZM378.602 121H374.57V98.152H387.53V101.576H378.602V108.296H386.922V111.72H378.602V121ZM399.533 121H389.933V118.664L392.685 117.64V101.544L389.933 100.488V98.152H399.533V100.488L396.781 101.544V117.64L399.533 118.664V121ZM410.128 98.152C412.134 98.152 413.787 98.3973 415.088 98.888C416.39 99.3787 417.36 100.125 418 101.128C418.64 102.109 418.96 103.357 418.96 104.872C418.96 105.981 418.747 106.931 418.32 107.72C417.915 108.509 417.382 109.171 416.72 109.704C416.059 110.216 415.344 110.632 414.576 110.952L421.136 121H416.528L411.056 111.976H407.728V121H403.632V98.152H410.128ZM409.872 101.576H407.728V108.616H410C411.131 108.616 412.048 108.477 412.752 108.2C413.456 107.923 413.968 107.517 414.288 106.984C414.63 106.451 414.8 105.789 414.8 105C414.8 104.168 414.619 103.507 414.256 103.016C413.894 102.504 413.35 102.141 412.624 101.928C411.92 101.693 411.003 101.576 409.872 101.576ZM438.432 121L436.352 114.952H427.744L425.696 121H421.344L429.728 98.056H434.4L442.784 121H438.432ZM433.312 105.544C433.226 105.245 433.098 104.84 432.928 104.328C432.757 103.816 432.586 103.293 432.416 102.76C432.266 102.205 432.149 101.747 432.064 101.384C431.957 101.811 431.818 102.301 431.648 102.856C431.498 103.411 431.349 103.933 431.2 104.424C431.072 104.915 430.965 105.288 430.88 105.544L428.864 111.432H435.296L433.312 105.544Z" fill="#004680"/>
</g>
<defs>
<clipPath id="clip0_6871_149">
<rect width="1000" height="150" fill="white"/>
</clipPath>
</defs>
</svg>
