<svg width="1000" height="150" viewBox="0 0 1000 150" fill="none" xmlns="http://www.w3.org/2000/svg">
<rect width="1000" height="150" rx="8" fill="#EDEDED"/>
<path d="M180.735 54.26C180.735 57.98 180.03 61.085 178.62 63.575C177.24 66.065 175.29 67.925 172.77 69.155C170.25 70.385 167.28 71 163.86 71H153.465V38.87H164.58C168.03 38.87 170.955 39.47 173.355 40.67C175.755 41.84 177.585 43.565 178.845 45.845C180.105 48.125 180.735 50.93 180.735 54.26ZM171.735 54.575C171.735 52.625 171.465 51.005 170.925 49.715C170.415 48.425 169.635 47.465 168.585 46.835C167.565 46.205 166.26 45.89 164.67 45.89H162.15V63.89H164.085C166.725 63.89 168.66 63.125 169.89 61.595C171.12 60.065 171.735 57.725 171.735 54.575ZM201.317 71H184.577V66.05L188.582 64.52V45.305L184.577 43.82V38.87H201.317V43.82L197.312 45.305V64.52L201.317 66.05V71ZM226.041 71L224.466 64.97H214.026L212.406 71H202.866L213.351 38.735H224.916L235.536 71H226.041ZM221.271 52.595C221.121 52.025 220.911 51.215 220.641 50.165C220.371 49.085 220.101 47.975 219.831 46.835C219.561 45.695 219.351 44.765 219.201 44.045C219.081 44.765 218.886 45.665 218.616 46.745C218.376 47.825 218.121 48.89 217.851 49.94C217.611 50.99 217.401 51.875 217.221 52.595L215.826 57.86H222.666L221.271 52.595ZM229.956 29.735C229.416 30.155 228.741 30.68 227.931 31.31C227.121 31.91 226.251 32.54 225.321 33.2C224.391 33.83 223.491 34.445 222.621 35.045C221.781 35.615 221.061 36.095 220.461 36.485H214.746V35.855C215.256 35.285 215.871 34.625 216.591 33.875C217.311 33.095 218.031 32.3 218.751 31.49C219.471 30.68 220.071 29.945 220.551 29.285H229.956V29.735ZM249.513 38.87C252.423 38.87 254.838 39.23 256.758 39.95C258.708 40.67 260.163 41.735 261.123 43.145C262.113 44.525 262.608 46.265 262.608 48.365C262.608 49.655 262.383 50.84 261.933 51.92C261.513 53 260.898 53.96 260.088 54.8C259.278 55.64 258.303 56.375 257.163 57.005L266.523 71H256.668L249.873 59.3H247.668V71H238.983V38.87H249.513ZM249.378 45.44H247.668V52.775H249.288C250.188 52.775 250.968 52.655 251.628 52.415C252.318 52.145 252.858 51.725 253.248 51.155C253.638 50.555 253.833 49.76 253.833 48.77C253.833 48.08 253.683 47.495 253.383 47.015C253.083 46.505 252.603 46.115 251.943 45.845C251.283 45.575 250.428 45.44 249.378 45.44ZM284.242 71H267.502V66.05L271.507 64.52V45.305L267.502 43.82V38.87H284.242V43.82L280.237 45.305V64.52L284.242 66.05V71ZM319.316 54.89C319.316 57.38 319.016 59.645 318.416 61.685C317.816 63.695 316.886 65.435 315.626 66.905C314.366 68.375 312.746 69.5 310.766 70.28C308.816 71.06 306.461 71.45 303.701 71.45C301.001 71.45 298.661 71.06 296.681 70.28C294.731 69.5 293.111 68.375 291.821 66.905C290.561 65.435 289.616 63.695 288.986 61.685C288.386 59.645 288.086 57.365 288.086 54.845C288.086 51.515 288.641 48.62 289.751 46.16C290.861 43.67 292.571 41.75 294.881 40.4C297.191 39.05 300.146 38.375 303.746 38.375C307.406 38.375 310.376 39.065 312.656 40.445C314.966 41.795 316.646 43.715 317.696 46.205C318.776 48.665 319.316 51.56 319.316 54.89ZM297.221 54.89C297.221 56.81 297.431 58.475 297.851 59.885C298.301 61.265 299.006 62.33 299.966 63.08C300.926 63.83 302.171 64.205 303.701 64.205C305.291 64.205 306.551 63.83 307.481 63.08C308.441 62.33 309.131 61.265 309.551 59.885C309.971 58.475 310.181 56.81 310.181 54.89C310.181 51.98 309.701 49.685 308.741 48.005C307.781 46.325 306.116 45.485 303.746 45.485C302.186 45.485 300.926 45.875 299.966 46.655C299.006 47.405 298.301 48.485 297.851 49.895C297.431 51.275 297.221 52.94 297.221 54.89ZM366.865 54.89C366.865 57.38 366.565 59.645 365.965 61.685C365.365 63.695 364.435 65.435 363.175 66.905C361.915 68.375 360.295 69.5 358.315 70.28C356.365 71.06 354.01 71.45 351.25 71.45C348.55 71.45 346.21 71.06 344.23 70.28C342.28 69.5 340.66 68.375 339.37 66.905C338.11 65.435 337.165 63.695 336.535 61.685C335.935 59.645 335.635 57.365 335.635 54.845C335.635 51.515 336.19 48.62 337.3 46.16C338.41 43.67 340.12 41.75 342.43 40.4C344.74 39.05 347.695 38.375 351.295 38.375C354.955 38.375 357.925 39.065 360.205 40.445C362.515 41.795 364.195 43.715 365.245 46.205C366.325 48.665 366.865 51.56 366.865 54.89ZM344.77 54.89C344.77 56.81 344.98 58.475 345.4 59.885C345.85 61.265 346.555 62.33 347.515 63.08C348.475 63.83 349.72 64.205 351.25 64.205C352.84 64.205 354.1 63.83 355.03 63.08C355.99 62.33 356.68 61.265 357.1 59.885C357.52 58.475 357.73 56.81 357.73 54.89C357.73 51.98 357.25 49.685 356.29 48.005C355.33 46.325 353.665 45.485 351.295 45.485C349.735 45.485 348.475 45.875 347.515 46.655C346.555 47.405 345.85 48.485 345.4 49.895C344.98 51.275 344.77 52.94 344.77 54.89ZM381.214 71H372.664V38.87H391.654V45.845H381.214V51.965H390.844V58.94H381.214V71ZM411.727 71H394.987V66.05L398.992 64.52V45.305L394.987 43.82V38.87H411.727V43.82L407.722 45.305V64.52L411.727 66.05V71ZM431.051 45.53C430.031 45.53 429.116 45.755 428.306 46.205C427.496 46.625 426.806 47.255 426.236 48.095C425.666 48.905 425.231 49.895 424.931 51.065C424.631 52.235 424.481 53.57 424.481 55.07C424.481 57.08 424.736 58.775 425.246 60.155C425.756 61.535 426.536 62.585 427.586 63.305C428.636 63.995 429.956 64.34 431.546 64.34C432.956 64.34 434.321 64.145 435.641 63.755C436.991 63.365 438.341 62.885 439.691 62.315V69.65C438.281 70.28 436.826 70.73 435.326 71C433.856 71.3 432.281 71.45 430.601 71.45C427.121 71.45 424.271 70.76 422.051 69.38C419.831 68 418.196 66.08 417.146 63.62C416.096 61.13 415.571 58.265 415.571 55.025C415.571 52.595 415.901 50.375 416.561 48.365C417.251 46.325 418.256 44.57 419.576 43.1C420.896 41.6 422.516 40.445 424.436 39.635C426.386 38.825 428.621 38.42 431.141 38.42C432.701 38.42 434.336 38.6 436.046 38.96C437.756 39.32 439.436 39.89 441.086 40.67L438.431 47.51C437.261 46.94 436.076 46.475 434.876 46.115C433.676 45.725 432.401 45.53 431.051 45.53ZM460.77 71H444.03V66.05L448.035 64.52V45.305L444.03 43.82V38.87H460.77V43.82L456.765 45.305V64.52L460.77 66.05V71ZM485.494 71L483.919 64.97H473.479L471.859 71H462.319L472.804 38.735H484.369L494.989 71H485.494ZM480.724 52.595C480.574 52.025 480.364 51.215 480.094 50.165C479.824 49.085 479.554 47.975 479.284 46.835C479.014 45.695 478.804 44.765 478.654 44.045C478.534 44.765 478.339 45.665 478.069 46.745C477.829 47.825 477.574 48.89 477.304 49.94C477.064 50.99 476.854 51.875 476.674 52.595L475.279 57.86H482.119L480.724 52.595ZM498.436 71V38.87H507.121V63.98H519.496V71H498.436ZM563.587 54.26C563.587 57.98 562.882 61.085 561.472 63.575C560.092 66.065 558.142 67.925 555.622 69.155C553.102 70.385 550.132 71 546.712 71H536.317V38.87H547.432C550.882 38.87 553.807 39.47 556.207 40.67C558.607 41.84 560.437 43.565 561.697 45.845C562.957 48.125 563.587 50.93 563.587 54.26ZM554.587 54.575C554.587 52.625 554.317 51.005 553.777 49.715C553.267 48.425 552.487 47.465 551.437 46.835C550.417 46.205 549.112 45.89 547.522 45.89H545.002V63.89H546.937C549.577 63.89 551.512 63.125 552.742 61.595C553.972 60.065 554.587 57.725 554.587 54.575ZM599.423 54.89C599.423 57.38 599.123 59.645 598.523 61.685C597.923 63.695 596.993 65.435 595.733 66.905C594.473 68.375 592.853 69.5 590.873 70.28C588.923 71.06 586.568 71.45 583.808 71.45C581.108 71.45 578.768 71.06 576.788 70.28C574.838 69.5 573.218 68.375 571.928 66.905C570.668 65.435 569.723 63.695 569.093 61.685C568.493 59.645 568.193 57.365 568.193 54.845C568.193 51.515 568.748 48.62 569.858 46.16C570.968 43.67 572.678 41.75 574.988 40.4C577.298 39.05 580.253 38.375 583.853 38.375C587.513 38.375 590.483 39.065 592.763 40.445C595.073 41.795 596.753 43.715 597.803 46.205C598.883 48.665 599.423 51.56 599.423 54.89ZM577.328 54.89C577.328 56.81 577.538 58.475 577.958 59.885C578.408 61.265 579.113 62.33 580.073 63.08C581.033 63.83 582.278 64.205 583.808 64.205C585.398 64.205 586.658 63.83 587.588 63.08C588.548 62.33 589.238 61.265 589.658 59.885C590.078 58.475 590.288 56.81 590.288 54.89C590.288 51.98 589.808 49.685 588.848 48.005C587.888 46.325 586.223 45.485 583.853 45.485C582.293 45.485 581.033 45.875 580.073 46.655C579.113 47.405 578.408 48.485 577.958 49.895C577.538 51.275 577.328 52.94 577.328 54.89ZM630.907 71L624.337 47.87H624.157C624.217 48.47 624.277 49.28 624.337 50.3C624.397 51.32 624.457 52.43 624.517 53.63C624.577 54.8 624.607 55.94 624.607 57.05V71H616.912V38.87H628.477L635.182 61.685H635.362L641.932 38.87H653.497V71H645.532V56.915C645.532 55.895 645.547 54.815 645.577 53.675C645.607 52.505 645.652 51.41 645.712 50.39C645.772 49.34 645.817 48.515 645.847 47.915H645.667L639.187 71H630.907ZM687.733 58.22C687.733 60.92 687.223 63.26 686.203 65.24C685.183 67.22 683.638 68.75 681.568 69.83C679.528 70.91 676.963 71.45 673.873 71.45C669.433 71.45 666.043 70.325 663.703 68.075C661.393 65.795 660.238 62.57 660.238 58.4V38.87H668.968V57.725C668.968 60.005 669.388 61.655 670.228 62.675C671.098 63.695 672.358 64.205 674.008 64.205C675.208 64.205 676.168 63.98 676.888 63.53C677.638 63.08 678.178 62.375 678.508 61.415C678.868 60.455 679.048 59.21 679.048 57.68V38.87H687.733V58.22ZM725.076 71H713.691L701.946 48.365H701.766C701.826 48.875 701.871 49.475 701.901 50.165C701.961 50.855 702.006 51.575 702.036 52.325C702.066 53.075 702.096 53.81 702.126 54.53C702.156 55.25 702.171 55.91 702.171 56.51V71H694.476V38.87H705.816L717.516 61.19H717.651C717.621 60.68 717.576 60.095 717.516 59.435C717.486 58.745 717.456 58.055 717.426 57.365C717.396 56.645 717.366 55.94 717.336 55.25C717.336 54.56 717.336 53.945 717.336 53.405V38.87H725.076V71ZM746.81 71H730.07V66.05L734.075 64.52V45.305L730.07 43.82V38.87H746.81V43.82L742.805 45.305V64.52L746.81 66.05V71ZM766.134 45.53C765.114 45.53 764.199 45.755 763.389 46.205C762.579 46.625 761.889 47.255 761.319 48.095C760.749 48.905 760.314 49.895 760.014 51.065C759.714 52.235 759.564 53.57 759.564 55.07C759.564 57.08 759.819 58.775 760.329 60.155C760.839 61.535 761.619 62.585 762.669 63.305C763.719 63.995 765.039 64.34 766.629 64.34C768.039 64.34 769.404 64.145 770.724 63.755C772.074 63.365 773.424 62.885 774.774 62.315V69.65C773.364 70.28 771.909 70.73 770.409 71C768.939 71.3 767.364 71.45 765.684 71.45C762.204 71.45 759.354 70.76 757.134 69.38C754.914 68 753.279 66.08 752.229 63.62C751.179 61.13 750.654 58.265 750.654 55.025C750.654 52.595 750.984 50.375 751.644 48.365C752.334 46.325 753.339 44.57 754.659 43.1C755.979 41.6 757.599 40.445 759.519 39.635C761.469 38.825 763.704 38.42 766.224 38.42C767.784 38.42 769.419 38.6 771.129 38.96C772.839 39.32 774.519 39.89 776.169 40.67L773.514 47.51C772.344 46.94 771.159 46.475 769.959 46.115C768.759 45.725 767.484 45.53 766.134 45.53ZM795.853 71H779.113V66.05L783.118 64.52V45.305L779.113 43.82V38.87H795.853V43.82L791.848 45.305V64.52L795.853 66.05V71ZM798.238 29.735C797.698 30.155 797.023 30.68 796.213 31.31C795.403 31.91 794.533 32.54 793.603 33.2C792.673 33.83 791.773 34.445 790.903 35.045C790.063 35.615 789.343 36.095 788.743 36.485H783.028V35.855C783.538 35.285 784.153 34.625 784.873 33.875C785.593 33.095 786.313 32.3 787.033 31.49C787.753 30.68 788.353 29.945 788.833 29.285H798.238V29.735ZM811.982 38.87C816.062 38.87 819.107 39.755 821.117 41.525C823.157 43.295 824.177 45.815 824.177 49.085C824.177 50.555 823.967 51.965 823.547 53.315C823.127 54.635 822.437 55.835 821.477 56.915C820.547 57.965 819.302 58.805 817.742 59.435C816.182 60.035 814.262 60.335 811.982 60.335H809.552V71H800.867V38.87H811.982ZM811.802 45.89H809.552V53.27H811.262C812.012 53.27 812.702 53.15 813.332 52.91C813.992 52.64 814.517 52.22 814.907 51.65C815.297 51.05 815.492 50.27 815.492 49.31C815.492 48.29 815.192 47.465 814.592 46.835C813.992 46.205 813.062 45.89 811.802 45.89ZM844.105 71H827.365V66.05L831.37 64.52V45.305L827.365 43.82V38.87H844.105V43.82L840.1 45.305V64.52L844.105 66.05V71ZM879.179 54.89C879.179 57.38 878.879 59.645 878.279 61.685C877.679 63.695 876.749 65.435 875.489 66.905C874.229 68.375 872.609 69.5 870.629 70.28C868.679 71.06 866.324 71.45 863.564 71.45C860.864 71.45 858.524 71.06 856.544 70.28C854.594 69.5 852.974 68.375 851.684 66.905C850.424 65.435 849.479 63.695 848.849 61.685C848.249 59.645 847.949 57.365 847.949 54.845C847.949 51.515 848.504 48.62 849.614 46.16C850.724 43.67 852.434 41.75 854.744 40.4C857.054 39.05 860.009 38.375 863.609 38.375C867.269 38.375 870.239 39.065 872.519 40.445C874.829 41.795 876.509 43.715 877.559 46.205C878.639 48.665 879.179 51.56 879.179 54.89ZM857.084 54.89C857.084 56.81 857.294 58.475 857.714 59.885C858.164 61.265 858.869 62.33 859.829 63.08C860.789 63.83 862.034 64.205 863.564 64.205C865.154 64.205 866.414 63.83 867.344 63.08C868.304 62.33 868.994 61.265 869.414 59.885C869.834 58.475 870.044 56.81 870.044 54.89C870.044 51.98 869.564 49.685 868.604 48.005C867.644 46.325 865.979 45.485 863.609 45.485C862.049 45.485 860.789 45.875 859.829 46.655C858.869 47.405 858.164 48.485 857.714 49.895C857.294 51.275 857.084 52.94 857.084 54.89ZM162.704 99.288C161.659 99.288 160.731 99.48 159.92 99.864C159.109 100.248 158.416 100.803 157.84 101.528C157.285 102.253 156.859 103.128 156.56 104.152C156.283 105.176 156.144 106.328 156.144 107.608C156.144 109.336 156.379 110.819 156.848 112.056C157.317 113.272 158.032 114.211 158.992 114.872C159.973 115.533 161.2 115.864 162.672 115.864C163.653 115.864 164.592 115.768 165.488 115.576C166.405 115.363 167.365 115.085 168.368 114.744V118.232C167.429 118.616 166.48 118.893 165.52 119.064C164.581 119.235 163.493 119.32 162.256 119.32C159.909 119.32 157.968 118.84 156.432 117.88C154.896 116.899 153.755 115.533 153.008 113.784C152.261 112.013 151.888 109.944 151.888 107.576C151.888 105.848 152.123 104.269 152.592 102.84C153.083 101.411 153.776 100.173 154.672 99.128C155.589 98.0827 156.72 97.272 158.064 96.696C159.408 96.12 160.955 95.832 162.704 95.832C163.856 95.832 164.987 95.9707 166.096 96.248C167.227 96.504 168.283 96.8667 169.264 97.336L167.856 100.696C167.045 100.333 166.203 100.013 165.328 99.736C164.475 99.4373 163.6 99.288 162.704 99.288ZM173.289 119V96.152H177.385V115.544H186.921V119H173.289ZM198.626 119H189.026V116.664L191.778 115.64V99.544L189.026 98.488V96.152H198.626V98.488L195.874 99.544V115.64L198.626 116.664V119ZM223.142 107.544C223.142 109.315 222.918 110.925 222.47 112.376C222.043 113.805 221.382 115.043 220.486 116.088C219.611 117.133 218.491 117.923 217.126 118.456L222.63 124.44H217.19L212.934 119.32C212.849 119.32 212.753 119.32 212.646 119.32C212.561 119.32 212.475 119.32 212.39 119.32C210.555 119.32 208.955 119.043 207.59 118.488C206.246 117.912 205.137 117.112 204.262 116.088C203.387 115.043 202.726 113.795 202.278 112.344C201.851 110.893 201.638 109.283 201.638 107.512C201.638 105.144 202.022 103.085 202.79 101.336C203.579 99.5867 204.763 98.232 206.342 97.272C207.942 96.2907 209.969 95.8 212.422 95.8C214.833 95.8 216.827 96.2907 218.406 97.272C219.985 98.232 221.169 99.5973 221.958 101.368C222.747 103.117 223.142 105.176 223.142 107.544ZM205.958 107.544C205.958 109.272 206.182 110.755 206.63 111.992C207.099 113.229 207.803 114.179 208.742 114.84C209.702 115.501 210.918 115.832 212.39 115.832C213.905 115.832 215.131 115.501 216.07 114.84C217.009 114.179 217.702 113.229 218.15 111.992C218.598 110.755 218.822 109.272 218.822 107.544C218.822 104.963 218.321 102.936 217.318 101.464C216.315 99.992 214.683 99.256 212.422 99.256C210.929 99.256 209.702 99.5867 208.742 100.248C207.803 100.909 207.099 101.859 206.63 103.096C206.182 104.333 205.958 105.816 205.958 107.544ZM246.119 110.936C246.119 112.515 245.778 113.944 245.095 115.224C244.434 116.483 243.421 117.485 242.055 118.232C240.69 118.957 238.962 119.32 236.871 119.32C233.906 119.32 231.655 118.552 230.119 117.016C228.583 115.459 227.815 113.411 227.815 110.872V96.152H231.911V110.456C231.911 112.312 232.338 113.677 233.191 114.552C234.045 115.405 235.314 115.832 236.999 115.832C238.194 115.832 239.154 115.629 239.879 115.224C240.626 114.819 241.17 114.211 241.511 113.4C241.874 112.568 242.055 111.576 242.055 110.424V96.152H246.119V110.936ZM264.906 119H251.914V96.152H264.906V99.576H256.01V105.4H264.33V108.824H256.01V115.544H264.906V119ZM291.062 119H278.07V96.152H291.062V99.576H282.166V105.4H290.486V108.824H282.166V115.544H291.062V119ZM313.954 99.288C312.909 99.288 311.981 99.48 311.17 99.864C310.359 100.248 309.666 100.803 309.09 101.528C308.535 102.253 308.109 103.128 307.81 104.152C307.533 105.176 307.394 106.328 307.394 107.608C307.394 109.336 307.629 110.819 308.098 112.056C308.567 113.272 309.282 114.211 310.242 114.872C311.223 115.533 312.45 115.864 313.922 115.864C314.903 115.864 315.842 115.768 316.738 115.576C317.655 115.363 318.615 115.085 319.618 114.744V118.232C318.679 118.616 317.73 118.893 316.77 119.064C315.831 119.235 314.743 119.32 313.506 119.32C311.159 119.32 309.218 118.84 307.682 117.88C306.146 116.899 305.005 115.533 304.258 113.784C303.511 112.013 303.138 109.944 303.138 107.576C303.138 105.848 303.373 104.269 303.842 102.84C304.333 101.411 305.026 100.173 305.922 99.128C306.839 98.0827 307.97 97.272 309.314 96.696C310.658 96.12 312.205 95.832 313.954 95.832C315.106 95.832 316.237 95.9707 317.346 96.248C318.477 96.504 319.533 96.8667 320.514 97.336L319.106 100.696C318.295 100.333 317.453 100.013 316.578 99.736C315.725 99.4373 314.85 99.288 313.954 99.288ZM344.33 107.544C344.33 109.315 344.106 110.925 343.658 112.376C343.231 113.805 342.57 115.043 341.674 116.088C340.799 117.133 339.679 117.933 338.314 118.488C336.97 119.043 335.391 119.32 333.578 119.32C331.743 119.32 330.143 119.043 328.778 118.488C327.434 117.912 326.324 117.112 325.45 116.088C324.575 115.043 323.914 113.795 323.466 112.344C323.039 110.893 322.826 109.283 322.826 107.512C322.826 105.144 323.21 103.085 323.978 101.336C324.767 99.5867 325.951 98.232 327.53 97.272C329.13 96.2907 331.156 95.8 333.61 95.8C336.02 95.8 338.015 96.2907 339.594 97.272C341.172 98.232 342.356 99.5973 343.146 101.368C343.935 103.117 344.33 105.176 344.33 107.544ZM327.146 107.544C327.146 109.272 327.37 110.755 327.818 111.992C328.287 113.229 328.991 114.179 329.93 114.84C330.89 115.501 332.106 115.832 333.578 115.832C335.092 115.832 336.319 115.501 337.258 114.84C338.196 114.179 338.89 113.229 339.338 111.992C339.786 110.755 340.01 109.272 340.01 107.544C340.01 104.963 339.508 102.936 338.506 101.464C337.503 99.992 335.871 99.256 333.61 99.256C332.116 99.256 330.89 99.5867 329.93 100.248C328.991 100.909 328.287 101.859 327.818 103.096C327.37 104.333 327.146 105.816 327.146 107.544ZM368.619 119H363.531L352.715 101.08H352.587C352.608 101.549 352.629 102.051 352.651 102.584C352.693 103.096 352.725 103.629 352.747 104.184C352.768 104.717 352.789 105.261 352.811 105.816C352.832 106.371 352.853 106.925 352.875 107.48V119H349.195V96.152H354.251L365.035 113.944H365.131C365.109 113.517 365.088 113.059 365.067 112.568C365.045 112.056 365.024 111.533 365.003 111C365.003 110.467 364.992 109.923 364.971 109.368C364.949 108.813 364.928 108.28 364.907 107.768V96.152H368.619V119ZM378.602 119H374.57V96.152H387.53V99.576H378.602V106.296H386.922V109.72H378.602V119ZM399.533 119H389.933V116.664L392.685 115.64V99.544L389.933 98.488V96.152H399.533V98.488L396.781 99.544V115.64L399.533 116.664V119ZM410.128 96.152C412.134 96.152 413.787 96.3973 415.088 96.888C416.39 97.3787 417.36 98.1253 418 99.128C418.64 100.109 418.96 101.357 418.96 102.872C418.96 103.981 418.747 104.931 418.32 105.72C417.915 106.509 417.382 107.171 416.72 107.704C416.059 108.216 415.344 108.632 414.576 108.952L421.136 119H416.528L411.056 109.976H407.728V119H403.632V96.152H410.128ZM409.872 99.576H407.728V106.616H410C411.131 106.616 412.048 106.477 412.752 106.2C413.456 105.923 413.968 105.517 414.288 104.984C414.63 104.451 414.8 103.789 414.8 103C414.8 102.168 414.619 101.507 414.256 101.016C413.894 100.504 413.35 100.141 412.624 99.928C411.92 99.6933 411.003 99.576 409.872 99.576ZM438.432 119L436.352 112.952H427.744L425.696 119H421.344L429.728 96.056H434.4L442.784 119H438.432ZM433.312 103.544C433.226 103.245 433.098 102.84 432.928 102.328C432.757 101.816 432.586 101.293 432.416 100.76C432.266 100.205 432.149 99.7467 432.064 99.384C431.957 99.8107 431.818 100.301 431.648 100.856C431.498 101.411 431.349 101.933 431.2 102.424C431.072 102.915 430.965 103.288 430.88 103.544L428.864 109.432H435.296L433.312 103.544Z" fill="#004680"/>
</svg>
