<svg width="1000" height="150" viewBox="0 0 1000 150" fill="none" xmlns="http://www.w3.org/2000/svg">
<g clip-path="url(#clip0_6871_144)">
<rect width="1000" height="150" rx="8" fill="#EDEDED"/>
<path d="M153.696 73V38.728H162.96V65.512H176.16V73H153.696ZM197.426 73H179.57V67.72L183.842 66.088V45.592L179.57 44.008V38.728H197.426V44.008L193.154 45.592V66.088L197.426 67.72V73ZM235.414 73H223.27L210.742 48.856H210.55C210.614 49.4 210.662 50.04 210.694 50.776C210.758 51.512 210.806 52.28 210.838 53.08C210.87 53.88 210.902 54.664 210.934 55.432C210.966 56.2 210.982 56.904 210.982 57.544V73H202.774V38.728H214.87L227.35 62.536H227.494C227.462 61.992 227.414 61.368 227.35 60.664C227.318 59.928 227.286 59.192 227.254 58.456C227.222 57.688 227.19 56.936 227.158 56.2C227.158 55.464 227.158 54.808 227.158 54.232V38.728H235.414V73ZM272.085 73H261.621L254.853 59.896L252.117 61.528V73H242.805V38.728H252.117V53.608C252.501 52.872 252.949 52.136 253.461 51.4C253.973 50.632 254.469 49.912 254.949 49.24L262.149 38.728H272.277L261.477 54.088L272.085 73ZM298.175 62.584C298.175 64.44 297.695 66.2 296.734 67.864C295.807 69.528 294.351 70.888 292.367 71.944C290.415 72.968 287.871 73.48 284.734 73.48C283.167 73.48 281.791 73.4 280.607 73.24C279.455 73.112 278.367 72.888 277.343 72.568C276.319 72.248 275.263 71.832 274.175 71.32V63.064C276.031 63.992 277.903 64.712 279.791 65.224C281.679 65.704 283.391 65.944 284.927 65.944C285.855 65.944 286.607 65.832 287.183 65.608C287.759 65.384 288.191 65.08 288.479 64.696C288.767 64.312 288.911 63.88 288.911 63.4C288.911 62.792 288.703 62.28 288.287 61.864C287.871 61.448 287.215 61.016 286.319 60.568C285.423 60.12 284.223 59.56 282.719 58.888C281.439 58.312 280.287 57.704 279.263 57.064C278.239 56.424 277.359 55.704 276.623 54.904C275.919 54.104 275.375 53.176 274.991 52.12C274.607 51.032 274.415 49.752 274.415 48.28C274.415 46.072 274.959 44.232 276.047 42.76C277.135 41.256 278.639 40.136 280.559 39.4C282.511 38.632 284.767 38.248 287.327 38.248C289.567 38.248 291.583 38.504 293.375 39.016C295.167 39.496 296.767 40.056 298.175 40.696L295.343 47.848C293.871 47.176 292.415 46.648 290.975 46.264C289.567 45.848 288.255 45.64 287.039 45.64C286.239 45.64 285.583 45.736 285.071 45.928C284.559 46.12 284.175 46.392 283.919 46.744C283.695 47.064 283.583 47.432 283.583 47.848C283.583 48.392 283.791 48.872 284.207 49.288C284.623 49.704 285.311 50.168 286.271 50.68C287.263 51.16 288.607 51.784 290.303 52.552C291.967 53.288 293.375 54.104 294.527 55C295.711 55.864 296.607 56.904 297.215 58.12C297.855 59.304 298.175 60.792 298.175 62.584ZM345.066 59.368C345.066 62.248 344.522 64.744 343.434 66.856C342.346 68.968 340.698 70.6 338.49 71.752C336.314 72.904 333.578 73.48 330.282 73.48C325.546 73.48 321.93 72.28 319.434 69.88C316.97 67.448 315.738 64.008 315.738 59.56V38.728H325.05V58.84C325.05 61.272 325.498 63.032 326.394 64.12C327.322 65.208 328.666 65.752 330.426 65.752C331.706 65.752 332.73 65.512 333.498 65.032C334.298 64.552 334.874 63.8 335.226 62.776C335.61 61.752 335.802 60.424 335.802 58.792V38.728H345.066V59.368ZM341.898 28.984C341.322 29.432 340.602 29.992 339.738 30.664C338.874 31.304 337.946 31.976 336.954 32.68C335.962 33.352 335.002 34.008 334.074 34.648C333.178 35.256 332.41 35.768 331.77 36.184H325.674V35.512C326.218 34.904 326.874 34.2 327.642 33.4C328.41 32.568 329.178 31.72 329.946 30.856C330.714 29.992 331.354 29.208 331.866 28.504H341.898V28.984ZM367.379 73H358.115V46.312H349.763V38.728H375.731V46.312H367.379V73ZM400.97 73H380.618V38.728H400.97V46.168H389.882V51.544H400.154V58.984H389.882V65.464H400.97V73ZM422.754 73H404.898V67.72L409.17 66.088V45.592L404.898 44.008V38.728H422.754V44.008L418.482 45.592V66.088L422.754 67.72V73ZM450.518 62.584C450.518 64.44 450.038 66.2 449.078 67.864C448.15 69.528 446.694 70.888 444.71 71.944C442.758 72.968 440.214 73.48 437.078 73.48C435.51 73.48 434.134 73.4 432.95 73.24C431.798 73.112 430.71 72.888 429.686 72.568C428.662 72.248 427.606 71.832 426.518 71.32V63.064C428.374 63.992 430.246 64.712 432.134 65.224C434.022 65.704 435.734 65.944 437.27 65.944C438.198 65.944 438.95 65.832 439.526 65.608C440.102 65.384 440.534 65.08 440.822 64.696C441.11 64.312 441.254 63.88 441.254 63.4C441.254 62.792 441.046 62.28 440.63 61.864C440.214 61.448 439.558 61.016 438.662 60.568C437.766 60.12 436.566 59.56 435.062 58.888C433.782 58.312 432.63 57.704 431.606 57.064C430.582 56.424 429.702 55.704 428.966 54.904C428.262 54.104 427.718 53.176 427.334 52.12C426.95 51.032 426.758 49.752 426.758 48.28C426.758 46.072 427.302 44.232 428.39 42.76C429.478 41.256 430.982 40.136 432.902 39.4C434.854 38.632 437.11 38.248 439.67 38.248C441.91 38.248 443.926 38.504 445.718 39.016C447.51 39.496 449.11 40.056 450.518 40.696L447.686 47.848C446.214 47.176 444.758 46.648 443.318 46.264C441.91 45.848 440.598 45.64 439.382 45.64C438.582 45.64 437.926 45.736 437.414 45.928C436.902 46.12 436.518 46.392 436.262 46.744C436.038 47.064 435.926 47.432 435.926 47.848C435.926 48.392 436.134 48.872 436.55 49.288C436.966 49.704 437.654 50.168 438.614 50.68C439.606 51.16 440.95 51.784 442.646 52.552C444.31 53.288 445.718 54.104 446.87 55C448.054 55.864 448.95 56.904 449.558 58.12C450.198 59.304 450.518 60.792 450.518 62.584ZM162.704 101.288C161.659 101.288 160.731 101.48 159.92 101.864C159.109 102.248 158.416 102.803 157.84 103.528C157.285 104.253 156.859 105.128 156.56 106.152C156.283 107.176 156.144 108.328 156.144 109.608C156.144 111.336 156.379 112.819 156.848 114.056C157.317 115.272 158.032 116.211 158.992 116.872C159.973 117.533 161.2 117.864 162.672 117.864C163.653 117.864 164.592 117.768 165.488 117.576C166.405 117.363 167.365 117.085 168.368 116.744V120.232C167.429 120.616 166.48 120.893 165.52 121.064C164.581 121.235 163.493 121.32 162.256 121.32C159.909 121.32 157.968 120.84 156.432 119.88C154.896 118.899 153.755 117.533 153.008 115.784C152.261 114.013 151.888 111.944 151.888 109.576C151.888 107.848 152.123 106.269 152.592 104.84C153.083 103.411 153.776 102.173 154.672 101.128C155.589 100.083 156.72 99.272 158.064 98.696C159.408 98.12 160.955 97.832 162.704 97.832C163.856 97.832 164.987 97.9707 166.096 98.248C167.227 98.504 168.283 98.8667 169.264 99.336L167.856 102.696C167.045 102.333 166.203 102.013 165.328 101.736C164.475 101.437 163.6 101.288 162.704 101.288ZM173.289 121V98.152H177.385V117.544H186.921V121H173.289ZM198.626 121H189.026V118.664L191.778 117.64V101.544L189.026 100.488V98.152H198.626V100.488L195.874 101.544V117.64L198.626 118.664V121ZM223.142 109.544C223.142 111.315 222.918 112.925 222.47 114.376C222.043 115.805 221.382 117.043 220.486 118.088C219.611 119.133 218.491 119.923 217.126 120.456L222.63 126.44H217.19L212.934 121.32C212.849 121.32 212.753 121.32 212.646 121.32C212.561 121.32 212.475 121.32 212.39 121.32C210.555 121.32 208.955 121.043 207.59 120.488C206.246 119.912 205.137 119.112 204.262 118.088C203.387 117.043 202.726 115.795 202.278 114.344C201.851 112.893 201.638 111.283 201.638 109.512C201.638 107.144 202.022 105.085 202.79 103.336C203.579 101.587 204.763 100.232 206.342 99.272C207.942 98.2907 209.969 97.8 212.422 97.8C214.833 97.8 216.827 98.2907 218.406 99.272C219.985 100.232 221.169 101.597 221.958 103.368C222.747 105.117 223.142 107.176 223.142 109.544ZM205.958 109.544C205.958 111.272 206.182 112.755 206.63 113.992C207.099 115.229 207.803 116.179 208.742 116.84C209.702 117.501 210.918 117.832 212.39 117.832C213.905 117.832 215.131 117.501 216.07 116.84C217.009 116.179 217.702 115.229 218.15 113.992C218.598 112.755 218.822 111.272 218.822 109.544C218.822 106.963 218.321 104.936 217.318 103.464C216.315 101.992 214.683 101.256 212.422 101.256C210.929 101.256 209.702 101.587 208.742 102.248C207.803 102.909 207.099 103.859 206.63 105.096C206.182 106.333 205.958 107.816 205.958 109.544ZM246.119 112.936C246.119 114.515 245.778 115.944 245.095 117.224C244.434 118.483 243.421 119.485 242.055 120.232C240.69 120.957 238.962 121.32 236.871 121.32C233.906 121.32 231.655 120.552 230.119 119.016C228.583 117.459 227.815 115.411 227.815 112.872V98.152H231.911V112.456C231.911 114.312 232.338 115.677 233.191 116.552C234.045 117.405 235.314 117.832 236.999 117.832C238.194 117.832 239.154 117.629 239.879 117.224C240.626 116.819 241.17 116.211 241.511 115.4C241.874 114.568 242.055 113.576 242.055 112.424V98.152H246.119V112.936ZM264.906 121H251.914V98.152H264.906V101.576H256.01V107.4H264.33V110.824H256.01V117.544H264.906V121ZM291.062 121H278.07V98.152H291.062V101.576H282.166V107.4H290.486V110.824H282.166V117.544H291.062V121ZM313.954 101.288C312.909 101.288 311.981 101.48 311.17 101.864C310.359 102.248 309.666 102.803 309.09 103.528C308.535 104.253 308.109 105.128 307.81 106.152C307.533 107.176 307.394 108.328 307.394 109.608C307.394 111.336 307.629 112.819 308.098 114.056C308.567 115.272 309.282 116.211 310.242 116.872C311.223 117.533 312.45 117.864 313.922 117.864C314.903 117.864 315.842 117.768 316.738 117.576C317.655 117.363 318.615 117.085 319.618 116.744V120.232C318.679 120.616 317.73 120.893 316.77 121.064C315.831 121.235 314.743 121.32 313.506 121.32C311.159 121.32 309.218 120.84 307.682 119.88C306.146 118.899 305.005 117.533 304.258 115.784C303.511 114.013 303.138 111.944 303.138 109.576C303.138 107.848 303.373 106.269 303.842 104.84C304.333 103.411 305.026 102.173 305.922 101.128C306.839 100.083 307.97 99.272 309.314 98.696C310.658 98.12 312.205 97.832 313.954 97.832C315.106 97.832 316.237 97.9707 317.346 98.248C318.477 98.504 319.533 98.8667 320.514 99.336L319.106 102.696C318.295 102.333 317.453 102.013 316.578 101.736C315.725 101.437 314.85 101.288 313.954 101.288ZM344.33 109.544C344.33 111.315 344.106 112.925 343.658 114.376C343.231 115.805 342.57 117.043 341.674 118.088C340.799 119.133 339.679 119.933 338.314 120.488C336.97 121.043 335.391 121.32 333.578 121.32C331.743 121.32 330.143 121.043 328.778 120.488C327.434 119.912 326.324 119.112 325.45 118.088C324.575 117.043 323.914 115.795 323.466 114.344C323.039 112.893 322.826 111.283 322.826 109.512C322.826 107.144 323.21 105.085 323.978 103.336C324.767 101.587 325.951 100.232 327.53 99.272C329.13 98.2907 331.156 97.8 333.61 97.8C336.02 97.8 338.015 98.2907 339.594 99.272C341.172 100.232 342.356 101.597 343.146 103.368C343.935 105.117 344.33 107.176 344.33 109.544ZM327.146 109.544C327.146 111.272 327.37 112.755 327.818 113.992C328.287 115.229 328.991 116.179 329.93 116.84C330.89 117.501 332.106 117.832 333.578 117.832C335.092 117.832 336.319 117.501 337.258 116.84C338.196 116.179 338.89 115.229 339.338 113.992C339.786 112.755 340.01 111.272 340.01 109.544C340.01 106.963 339.508 104.936 338.506 103.464C337.503 101.992 335.871 101.256 333.61 101.256C332.116 101.256 330.89 101.587 329.93 102.248C328.991 102.909 328.287 103.859 327.818 105.096C327.37 106.333 327.146 107.816 327.146 109.544ZM368.619 121H363.531L352.715 103.08H352.587C352.608 103.549 352.629 104.051 352.651 104.584C352.693 105.096 352.725 105.629 352.747 106.184C352.768 106.717 352.789 107.261 352.811 107.816C352.832 108.371 352.853 108.925 352.875 109.48V121H349.195V98.152H354.251L365.035 115.944H365.131C365.109 115.517 365.088 115.059 365.067 114.568C365.045 114.056 365.024 113.533 365.003 113C365.003 112.467 364.992 111.923 364.971 111.368C364.949 110.813 364.928 110.28 364.907 109.768V98.152H368.619V121ZM378.602 121H374.57V98.152H387.53V101.576H378.602V108.296H386.922V111.72H378.602V121ZM399.533 121H389.933V118.664L392.685 117.64V101.544L389.933 100.488V98.152H399.533V100.488L396.781 101.544V117.64L399.533 118.664V121ZM410.128 98.152C412.134 98.152 413.787 98.3973 415.088 98.888C416.39 99.3787 417.36 100.125 418 101.128C418.64 102.109 418.96 103.357 418.96 104.872C418.96 105.981 418.747 106.931 418.32 107.72C417.915 108.509 417.382 109.171 416.72 109.704C416.059 110.216 415.344 110.632 414.576 110.952L421.136 121H416.528L411.056 111.976H407.728V121H403.632V98.152H410.128ZM409.872 101.576H407.728V108.616H410C411.131 108.616 412.048 108.477 412.752 108.2C413.456 107.923 413.968 107.517 414.288 106.984C414.63 106.451 414.8 105.789 414.8 105C414.8 104.168 414.619 103.507 414.256 103.016C413.894 102.504 413.35 102.141 412.624 101.928C411.92 101.693 411.003 101.576 409.872 101.576ZM438.432 121L436.352 114.952H427.744L425.696 121H421.344L429.728 98.056H434.4L442.784 121H438.432ZM433.312 105.544C433.226 105.245 433.098 104.84 432.928 104.328C432.757 103.816 432.586 103.293 432.416 102.76C432.266 102.205 432.149 101.747 432.064 101.384C431.957 101.811 431.818 102.301 431.648 102.856C431.498 103.411 431.349 103.933 431.2 104.424C431.072 104.915 430.965 105.288 430.88 105.544L428.864 111.432H435.296L433.312 105.544Z" fill="#004680"/>
</g>
<defs>
<clipPath id="clip0_6871_144">
<rect width="1000" height="150" fill="white"/>
</clipPath>
</defs>
</svg>
