<svg width="440" height="440" viewBox="0 0 440 440" fill="none" xmlns="http://www.w3.org/2000/svg">
<g clip-path="url(#clip0_6117_6)">
<rect width="440" height="440" fill="#161B22"/>
<rect width="440" height="440" transform="matrix(-1 0 0 1 440 0)" fill="#161B22"/>
<rect width="440" height="440" rx="220" transform="matrix(-1 0 0 1 440 0)" fill="#161B22"/>
<path d="M167.622 306V229.968H114.374V306H72.39V128.592H114.374V197.2H167.622V128.592H209.606V306H167.622ZM301.258 238.16H284.874V306H242.89V128.592H301.002C325.237 128.592 343.413 133.029 355.53 141.904C367.818 150.779 373.962 164.347 373.962 182.608C373.962 194.043 371.231 203.6 365.77 211.28C360.309 218.789 351.69 225.189 339.914 230.48L384.97 306H337.61L301.258 238.16ZM284.874 209.232H302.538C311.925 209.232 318.922 207.099 323.53 202.832C328.309 198.565 330.698 191.824 330.698 182.608C330.698 174.075 328.138 167.845 323.018 163.92C318.069 159.995 310.389 158.032 299.978 158.032H284.874V209.232Z" fill="#FFFDFC"/>
</g>
<defs>
<clipPath id="clip0_6117_6">
<rect width="440" height="440" fill="white"/>
</clipPath>
</defs>
</svg>
