<svg width="1280" height="720" viewBox="0 0 1280 720" fill="none" xmlns="http://www.w3.org/2000/svg">
<rect width="1280" height="720" fill="#E9EDF8"/>
<path d="M447.91 536.864C446.993 536.864 446.172 537.045 445.446 537.408C444.742 537.771 444.145 538.293 443.654 538.976C443.164 539.637 442.79 540.448 442.534 541.408C442.3 542.368 442.182 543.445 442.182 544.64C442.182 546.261 442.374 547.648 442.758 548.8C443.164 549.931 443.793 550.795 444.646 551.392C445.5 551.989 446.588 552.288 447.91 552.288C448.849 552.288 449.777 552.181 450.694 551.968C451.633 551.755 452.646 551.456 453.734 551.072V555.136C452.732 555.541 451.74 555.84 450.758 556.032C449.777 556.224 448.678 556.32 447.462 556.32C445.116 556.32 443.174 555.84 441.638 554.88C440.124 553.899 439.004 552.533 438.278 550.784C437.553 549.013 437.19 546.955 437.19 544.608C437.19 542.88 437.425 541.301 437.894 539.872C438.364 538.421 439.046 537.173 439.942 536.128C440.86 535.083 441.98 534.272 443.302 533.696C444.646 533.12 446.182 532.832 447.91 532.832C449.041 532.832 450.172 532.981 451.302 533.28C452.454 533.557 453.553 533.941 454.598 534.432L453.03 538.368C452.177 537.963 451.313 537.611 450.438 537.312C449.585 537.013 448.742 536.864 447.91 536.864ZM474.173 556L472.509 550.56H464.189L462.525 556H457.309L465.373 533.056H471.293L479.389 556H474.173ZM469.693 541.184C469.587 540.821 469.448 540.363 469.277 539.808C469.107 539.253 468.936 538.688 468.765 538.112C468.595 537.536 468.456 537.035 468.349 536.608C468.243 537.035 468.093 537.568 467.901 538.208C467.731 538.827 467.56 539.424 467.389 540C467.24 540.555 467.123 540.949 467.037 541.184L465.405 546.496H471.357L469.693 541.184ZM471.133 526.112C471.432 526.581 471.816 527.115 472.285 527.712C472.776 528.288 473.277 528.853 473.789 529.408C474.301 529.963 474.749 530.432 475.133 530.816V531.232H471.965C471.411 530.891 470.803 530.496 470.141 530.048C469.48 529.579 468.872 529.056 468.317 528.48C467.763 529.056 467.165 529.568 466.525 530.016C465.885 530.464 465.288 530.869 464.733 531.232H461.565V530.816C461.971 530.411 462.419 529.941 462.909 529.408C463.421 528.853 463.912 528.288 464.381 527.712C464.872 527.115 465.267 526.581 465.565 526.112H471.133ZM493.547 556L488.043 538.08H487.915C487.936 538.507 487.968 539.147 488.011 540C488.054 540.853 488.096 541.771 488.139 542.752C488.182 543.712 488.203 544.587 488.203 545.376V556H483.883V533.152H490.475L495.883 550.624H495.979L501.707 533.152H508.299V556H503.787V545.184C503.787 544.459 503.798 543.627 503.819 542.688C503.862 541.749 503.894 540.864 503.915 540.032C503.958 539.179 503.99 538.539 504.011 538.112H503.883L497.995 556H493.547ZM529.655 556L527.991 550.56H519.671L518.007 556H512.791L520.855 533.056H526.775L534.871 556H529.655ZM525.175 541.184C525.068 540.821 524.929 540.363 524.759 539.808C524.588 539.253 524.417 538.688 524.247 538.112C524.076 537.536 523.937 537.035 523.831 536.608C523.724 537.035 523.575 537.568 523.383 538.208C523.212 538.827 523.041 539.424 522.871 540C522.721 540.555 522.604 540.949 522.519 541.184L520.887 546.496H526.839L525.175 541.184ZM546.02 533.152C548.09 533.152 549.796 533.408 551.14 533.92C552.484 534.411 553.487 535.168 554.148 536.192C554.81 537.195 555.14 538.464 555.14 540C555.14 541.045 554.938 541.963 554.532 542.752C554.148 543.52 553.626 544.181 552.964 544.736C552.324 545.269 551.631 545.707 550.884 546.048L557.604 556H552.228L546.788 547.232H544.196V556H539.364V533.152H546.02ZM545.668 537.12H544.196V543.296H545.764C546.831 543.296 547.695 543.179 548.356 542.944C549.018 542.709 549.498 542.357 549.796 541.888C550.095 541.397 550.244 540.811 550.244 540.128C550.244 539.403 550.074 538.827 549.732 538.4C549.412 537.952 548.911 537.632 548.228 537.44C547.567 537.227 546.714 537.12 545.668 537.12ZM576.073 556L574.409 550.56H566.089L564.425 556H559.209L567.273 533.056H573.193L581.289 556H576.073ZM571.593 541.184C571.487 540.821 571.348 540.363 571.177 539.808C571.007 539.253 570.836 538.688 570.665 538.112C570.495 537.536 570.356 537.035 570.249 536.608C570.143 537.035 569.993 537.568 569.801 538.208C569.631 538.827 569.46 539.424 569.289 540C569.14 540.555 569.023 540.949 568.937 541.184L567.305 546.496H573.257L571.593 541.184ZM605.36 556L599.856 538.08H599.728C599.749 538.507 599.781 539.147 599.824 540C599.866 540.853 599.909 541.771 599.952 542.752C599.994 543.712 600.016 544.587 600.016 545.376V556H595.696V533.152H602.288L607.696 550.624H607.792L613.52 533.152H620.112V556H615.6V545.184C615.6 544.459 615.61 543.627 615.632 542.688C615.674 541.749 615.706 540.864 615.728 540.032C615.77 539.179 615.802 538.539 615.824 538.112H615.696L609.808 556H605.36ZM646.075 547.936C646.075 549.515 645.723 550.944 645.019 552.224C644.336 553.483 643.291 554.485 641.883 555.232C640.496 555.957 638.736 556.32 636.603 556.32C633.574 556.32 631.27 555.552 629.691 554.016C628.112 552.459 627.323 550.411 627.323 547.872V533.152H632.155V547.136C632.155 549.013 632.539 550.336 633.307 551.104C634.075 551.872 635.216 552.256 636.731 552.256C637.798 552.256 638.662 552.075 639.323 551.712C639.984 551.349 640.464 550.784 640.763 550.016C641.083 549.248 641.243 548.277 641.243 547.104V533.152H646.075V547.936ZM673.527 556H667.383L657.431 538.72H657.303C657.324 539.253 657.345 539.797 657.367 540.352C657.388 540.885 657.409 541.429 657.431 541.984C657.473 542.517 657.505 543.061 657.527 543.616C657.548 544.149 657.569 544.693 657.591 545.248V556H653.271V533.152H659.383L669.303 550.272H669.399C669.377 549.739 669.356 549.216 669.335 548.704C669.313 548.171 669.292 547.648 669.271 547.136C669.271 546.603 669.26 546.08 669.239 545.568C669.217 545.035 669.196 544.501 669.175 543.968V533.152H673.527V556ZM689.446 556H679.046V553.248L681.83 551.968V537.184L679.046 535.904V533.152H689.446V535.904L686.662 537.184V551.968L689.446 553.248V556ZM704.635 536.864C703.718 536.864 702.897 537.045 702.171 537.408C701.467 537.771 700.87 538.293 700.379 538.976C699.889 539.637 699.515 540.448 699.259 541.408C699.025 542.368 698.907 543.445 698.907 544.64C698.907 546.261 699.099 547.648 699.483 548.8C699.889 549.931 700.518 550.795 701.371 551.392C702.225 551.989 703.313 552.288 704.635 552.288C705.574 552.288 706.502 552.181 707.419 551.968C708.358 551.755 709.371 551.456 710.459 551.072V555.136C709.457 555.541 708.465 555.84 707.483 556.032C706.502 556.224 705.403 556.32 704.187 556.32C701.841 556.32 699.899 555.84 698.363 554.88C696.849 553.899 695.729 552.533 695.003 550.784C694.278 549.013 693.915 546.955 693.915 544.608C693.915 542.88 694.15 541.301 694.619 539.872C695.089 538.421 695.771 537.173 696.667 536.128C697.585 535.083 698.705 534.272 700.027 533.696C701.371 533.12 702.907 532.832 704.635 532.832C705.766 532.832 706.897 532.981 708.027 533.28C709.179 533.557 710.278 533.941 711.323 534.432L709.755 538.368C708.902 537.963 708.038 537.611 707.163 537.312C706.31 537.013 705.467 536.864 704.635 536.864ZM725.458 556H715.058V553.248L717.842 551.968V537.184L715.058 535.904V533.152H725.458V535.904L722.674 537.184V551.968L725.458 553.248V556ZM738.248 533.152C741.192 533.152 743.336 533.792 744.68 535.072C746.045 536.331 746.728 538.069 746.728 540.288C746.728 541.291 746.579 542.251 746.28 543.168C745.981 544.064 745.48 544.875 744.776 545.6C744.093 546.304 743.187 546.859 742.056 547.264C740.925 547.669 739.528 547.872 737.864 547.872H735.784V556H730.952V533.152H738.248ZM737.992 537.12H735.784V543.904H737.384C738.301 543.904 739.091 543.787 739.752 543.552C740.413 543.317 740.925 542.944 741.288 542.432C741.651 541.92 741.832 541.259 741.832 540.448C741.832 539.317 741.523 538.485 740.904 537.952C740.285 537.397 739.315 537.12 737.992 537.12ZM765.036 556L763.372 550.56H755.052L753.388 556H748.172L756.236 533.056H762.156L770.252 556H765.036ZM760.556 541.184C760.449 540.821 760.311 540.363 760.14 539.808C759.969 539.253 759.799 538.688 759.628 538.112C759.457 537.536 759.319 537.035 759.212 536.608C759.105 537.035 758.956 537.568 758.764 538.208C758.593 538.827 758.423 539.424 758.252 540C758.103 540.555 757.985 540.949 757.9 541.184L756.268 546.496H762.22L760.556 541.184ZM774.746 556V533.152H779.578V552H788.858V556H774.746ZM823.296 544.352C823.296 546.912 822.805 549.056 821.824 550.784C820.843 552.512 819.413 553.813 817.536 554.688C815.68 555.563 813.44 556 810.816 556H804.352V533.152H811.52C813.909 533.152 815.979 533.579 817.728 534.432C819.499 535.285 820.864 536.544 821.824 538.208C822.805 539.851 823.296 541.899 823.296 544.352ZM818.272 544.48C818.272 542.795 818.027 541.408 817.536 540.32C817.045 539.232 816.309 538.432 815.328 537.92C814.368 537.387 813.184 537.12 811.776 537.12H809.184V552H811.264C813.632 552 815.392 551.371 816.544 550.112C817.696 548.853 818.272 546.976 818.272 544.48ZM842.791 556H829.639V533.152H842.791V537.12H834.471V542.144H842.215V546.112H834.471V552H842.791V556ZM452.28 578.588C457.539 578.588 461.464 579.729 464.054 582.01C466.684 584.291 467.998 587.539 467.998 591.754C467.998 593.649 467.728 595.466 467.186 597.206C466.645 598.907 465.756 600.454 464.518 601.846C463.32 603.199 461.715 604.282 459.704 605.094C457.694 605.867 455.219 606.254 452.28 606.254H449.148V620H437.954V578.588H452.28ZM452.048 587.636H449.148V597.148H451.352C452.319 597.148 453.208 596.993 454.02 596.684C454.871 596.336 455.548 595.795 456.05 595.06C456.553 594.287 456.804 593.281 456.804 592.044C456.804 590.729 456.418 589.666 455.644 588.854C454.871 588.042 453.672 587.636 452.048 587.636ZM513.345 599.236C513.345 602.445 512.958 605.365 512.185 607.994C511.411 610.585 510.213 612.827 508.589 614.722C506.965 616.617 504.877 618.067 502.325 619.072C499.811 620.077 496.776 620.58 493.219 620.58C489.739 620.58 486.723 620.077 484.171 619.072C481.657 618.067 479.569 616.617 477.907 614.722C476.283 612.827 475.065 610.585 474.253 607.994C473.479 605.365 473.093 602.426 473.093 599.178C473.093 594.886 473.808 591.155 475.239 587.984C476.669 584.775 478.873 582.3 481.851 580.56C484.828 578.82 488.637 577.95 493.277 577.95C497.994 577.95 501.822 578.839 504.761 580.618C507.738 582.358 509.903 584.833 511.257 588.042C512.649 591.213 513.345 594.944 513.345 599.236ZM484.867 599.236C484.867 601.711 485.137 603.857 485.679 605.674C486.259 607.453 487.167 608.825 488.405 609.792C489.642 610.759 491.247 611.242 493.219 611.242C495.268 611.242 496.892 610.759 498.091 609.792C499.328 608.825 500.217 607.453 500.759 605.674C501.3 603.857 501.571 601.711 501.571 599.236C501.571 595.485 500.952 592.527 499.715 590.362C498.477 588.197 496.331 587.114 493.277 587.114C491.266 587.114 489.642 587.617 488.405 588.622C487.167 589.589 486.259 590.981 485.679 592.798C485.137 594.577 484.867 596.723 484.867 599.236ZM534.392 578.588C538.142 578.588 541.255 579.052 543.73 579.98C546.243 580.908 548.118 582.281 549.356 584.098C550.632 585.877 551.27 588.119 551.27 590.826C551.27 592.489 550.98 594.016 550.4 595.408C549.858 596.8 549.066 598.037 548.022 599.12C546.978 600.203 545.721 601.15 544.252 601.962L556.316 620H543.614L534.856 604.92H532.014V620H520.82V578.588H534.392ZM534.218 587.056H532.014V596.51H534.102C535.262 596.51 536.267 596.355 537.118 596.046C538.007 595.698 538.703 595.157 539.206 594.422C539.708 593.649 539.96 592.624 539.96 591.348C539.96 590.459 539.766 589.705 539.38 589.086C538.993 588.429 538.374 587.926 537.524 587.578C536.673 587.23 535.571 587.056 534.218 587.056ZM578.341 620H567.147V587.752H557.055V578.588H588.433V587.752H578.341V620ZM631.95 599.236C631.95 602.445 631.564 605.365 630.79 607.994C630.017 610.585 628.818 612.827 627.194 614.722C625.57 616.617 623.482 618.067 620.93 619.072C618.417 620.077 615.382 620.58 611.824 620.58C608.344 620.58 605.328 620.077 602.776 619.072C600.263 618.067 598.175 616.617 596.512 614.722C594.888 612.827 593.67 610.585 592.858 607.994C592.085 605.365 591.698 602.426 591.698 599.178C591.698 594.886 592.414 591.155 593.844 587.984C595.275 584.775 597.479 582.3 600.456 580.56C603.434 578.82 607.242 577.95 611.882 577.95C616.6 577.95 620.428 578.839 623.366 580.618C626.344 582.358 628.509 584.833 629.862 588.042C631.254 591.213 631.95 594.944 631.95 599.236ZM603.472 599.236C603.472 601.711 603.743 603.857 604.284 605.674C604.864 607.453 605.773 608.825 607.01 609.792C608.248 610.759 609.852 611.242 611.824 611.242C613.874 611.242 615.498 610.759 616.696 609.792C617.934 608.825 618.823 607.453 619.364 605.674C619.906 603.857 620.176 601.711 620.176 599.236C620.176 595.485 619.558 592.527 618.32 590.362C617.083 588.197 614.937 587.114 611.882 587.114C609.872 587.114 608.248 587.617 607.01 588.622C605.773 589.589 604.864 590.981 604.284 592.798C603.743 594.577 603.472 596.723 603.472 599.236ZM690.277 578.588L676.705 620H663.539L650.025 578.588H662.611L668.237 599.584C668.431 600.357 668.663 601.363 668.933 602.6C669.204 603.837 669.455 605.075 669.687 606.312C669.958 607.549 670.113 608.555 670.151 609.328C670.229 608.555 670.364 607.569 670.557 606.37C670.789 605.133 671.021 603.915 671.253 602.716C671.524 601.479 671.775 600.473 672.007 599.7L677.749 578.588H690.277ZM719.355 620H694.763V578.588H719.355V587.578H705.957V594.074H718.369V603.064H705.957V610.894H719.355V620ZM726.595 620V578.588H737.789V610.952H753.739V620H726.595ZM795.849 620H784.597V603.122H771.605V620H760.353V578.588H771.605V593.958H784.597V578.588H795.849V620ZM843.503 599.236C843.503 602.445 843.116 605.365 842.343 607.994C841.57 610.585 840.371 612.827 838.747 614.722C837.123 616.617 835.035 618.067 832.483 619.072C829.97 620.077 826.934 620.58 823.377 620.58C819.897 620.58 816.881 620.077 814.329 619.072C811.816 618.067 809.728 616.617 808.065 614.722C806.441 612.827 805.223 610.585 804.411 607.994C803.638 605.365 803.251 602.426 803.251 599.178C803.251 594.886 803.966 591.155 805.397 587.984C806.828 584.775 809.032 582.3 812.009 580.56C814.986 578.82 818.795 577.95 823.435 577.95C828.152 577.95 831.98 578.839 834.919 580.618C837.896 582.358 840.062 584.833 841.415 588.042C842.807 591.213 843.503 594.944 843.503 599.236ZM815.025 599.236C815.025 601.711 815.296 603.857 815.837 605.674C816.417 607.453 817.326 608.825 818.563 609.792C819.8 610.759 821.405 611.242 823.377 611.242C825.426 611.242 827.05 610.759 828.249 609.792C829.486 608.825 830.376 607.453 830.917 605.674C831.458 603.857 831.729 601.711 831.729 599.236C831.729 595.485 831.11 592.527 829.873 590.362C828.636 588.197 826.49 587.114 823.435 587.114C821.424 587.114 819.8 587.617 818.563 588.622C817.326 589.589 816.417 590.981 815.837 592.798C815.296 594.577 815.025 596.723 815.025 599.236Z" fill="#1A1A1A"/>
<path d="M639.496 473.412L620.871 458.073L599.445 469.226L584.433 450.37L561.144 456.849L550.402 435.302L526.267 436.823L520.265 413.525L496.339 410.024L495.339 385.994L472.668 377.621L476.713 353.909L456.288 341.032L465.201 318.675L447.915 301.856L461.307 281.83L447.915 261.804L465.201 244.985L456.288 222.628L476.713 209.751L472.668 186.039L495.339 177.667L496.339 153.637L520.265 150.135L526.267 126.837L550.402 128.359L561.144 106.811L584.433 113.29L599.445 94.4348L620.871 105.588L639.496 90.2482L658.122 105.588L679.548 94.4348L694.56 113.29L717.849 106.811L728.591 128.359L752.725 126.837L758.728 150.135L782.653 153.637L783.654 177.667L806.324 186.039L802.28 209.751L822.705 222.628L813.791 244.986L831.078 261.804L817.685 281.83L831.078 301.856L813.791 318.675L822.705 341.032L802.28 353.909L806.324 377.621L783.654 385.994L782.653 410.024L758.728 413.525L752.725 436.823L728.591 435.302L717.849 456.849L694.56 450.37L679.548 469.226L658.122 458.073L639.496 473.412Z" fill="#EDC102" stroke="black" stroke-width="0.346668"/>
<path d="M462.056 281.83L639.498 281.83M639.498 281.83L465.933 244.739M639.498 281.83L477.396 209.268M639.498 281.83L495.944 176.969M639.498 281.83L520.766 149.253M639.498 281.83L550.777 127.331M639.498 281.83L584.666 112.162M639.498 281.83L620.951 104.407M639.498 281.83L658.046 104.407M639.498 281.83L694.331 112.162M639.498 281.83L728.22 127.331M639.498 281.83L758.231 149.253M639.498 281.83L783.053 176.969M639.498 281.83L801.6 209.268M639.498 281.83L813.064 244.739M639.498 281.83H816.941M639.498 281.83L813.064 318.922M639.498 281.83L801.6 354.392M639.498 281.83L783.053 386.691M639.498 281.83L758.231 414.408M639.498 281.83L728.22 436.33M639.498 281.83L694.331 451.499M639.498 281.83L658.046 459.253M639.498 281.83L620.951 459.253M639.498 281.83L584.666 451.499M639.498 281.83L550.777 436.33M639.498 281.83L520.766 414.408M639.498 281.83L495.944 386.691M639.498 281.83L477.396 354.392M639.498 281.83L465.933 318.922M639.498 281.83L639.498 473.661M639.498 281.83L599.399 469.469M639.498 281.83L561.052 457.076M639.498 281.83L526.134 437.024M639.498 281.83L496.171 410.19M639.498 281.83L472.471 377.746M639.498 281.83L456.071 341.109M639.498 281.83L447.688 301.882M639.498 281.83L447.688 261.779M639.498 281.83L456.071 222.552M639.498 281.83L472.471 185.915M639.498 281.83L496.171 153.471M639.498 281.83L526.134 126.636M639.498 281.83L561.052 106.585M639.498 281.83L599.399 94.1919M639.498 281.83V90M639.498 281.83L679.598 94.1919M639.498 281.83L717.944 106.585M639.498 281.83L752.862 126.636M639.498 281.83L782.826 153.471M639.498 281.83L806.526 185.915M639.498 281.83L822.925 222.552M639.498 281.83L831.308 261.779M639.498 281.83L831.308 301.882M639.498 281.83L822.925 341.109M639.498 281.83L806.526 377.746M639.498 281.83L782.826 410.19M639.498 281.83L752.862 437.024M639.498 281.83L717.944 457.076M639.498 281.83L679.598 469.469" stroke="black" stroke-width="0.346668"/>
<path d="M640.324 402.513L678.124 249.993L715.4 402.513" stroke="black" stroke-width="1.46414" stroke-linejoin="round"/>
<path d="M639.669 336.364C639.669 336.364 665.132 344.943 677.864 344.943C690.596 344.943 716.06 336.364 716.06 336.364V238.144H639.669V336.364Z" fill="black" stroke="#E3E4E5" stroke-width="0.346667"/>
<path d="M716.06 240.288H639.669V248.438H716.06V240.288Z" fill="black" stroke="#E3E4E5" stroke-width="0.346667"/>
<path d="M725.357 242.073H630.367L677.862 199.619L725.357 242.073Z" fill="black" stroke="#E3E4E5" stroke-width="0.346667"/>
<path d="M601.958 402.513L639.758 249.993L677.034 402.513" stroke="black" stroke-width="1.46414" stroke-linejoin="round"/>
<path d="M601.3 336.364C601.3 336.364 626.764 344.943 639.496 344.943C652.227 344.943 677.691 336.364 677.691 336.364V238.144H601.3V336.364Z" fill="black" stroke="#E3E4E5" stroke-width="0.346667"/>
<path d="M677.691 240.289H601.3V248.438H677.691V240.289Z" fill="black" stroke="#E3E4E5" stroke-width="0.346667"/>
<path d="M686.992 242.073H592.002L639.497 199.619L686.992 242.073Z" fill="black" stroke="#E3E4E5" stroke-width="0.346667"/>
<path d="M563.588 402.513L601.388 249.993L638.664 402.513" stroke="black" stroke-width="1.46414" stroke-linejoin="round"/>
<path d="M562.933 336.364C562.933 336.364 588.397 344.942 601.128 344.942C613.86 344.942 639.324 336.364 639.324 336.364V238.144H562.933V336.364Z" fill="black" stroke="#E3E4E5" stroke-width="0.346667"/>
<path d="M639.324 240.288H562.933V248.438H639.324V240.288Z" fill="black" stroke="#E3E4E5" stroke-width="0.346667"/>
<path d="M648.625 242.073H553.635L601.13 199.619L648.625 242.073Z" fill="black" stroke="#E3E4E5" stroke-width="0.346667"/>
<path fill-rule="evenodd" clip-rule="evenodd" d="M764.647 195.626C762.304 212.14 765.938 218.059 767.115 228.334L764.976 239.354C758.849 223.654 750.498 203.459 733.721 186.076C741.562 192.052 753.352 200.308 763.167 222.038C760.773 205.049 763.35 199.702 764.647 195.626Z" fill="#008F4C" stroke="black" stroke-width="0.346667"/>
<path fill-rule="evenodd" clip-rule="evenodd" d="M773.857 206.296C770.012 222.026 771.588 232.576 770.867 245.476L762.342 260.518C762.027 243.267 756.182 228.587 737.338 210.144C742.6 212.565 751.467 220.088 764.118 237.954C766.8 225.482 769.177 214.227 773.857 206.296Z" fill="#008F4C" stroke="black" stroke-width="0.346667"/>
<path fill-rule="evenodd" clip-rule="evenodd" d="M784.879 221.513C778.917 236.084 772.567 249.524 774.022 261.217L767.278 281.682L761.52 271.537C761.337 260.529 756.306 244.15 748.031 230.958C754.827 236.978 759.761 243.993 763.823 257.719C770.645 244.046 777.02 228.015 784.879 221.513Z" fill="#008F4C" stroke="black" stroke-width="0.346667"/>
<path fill-rule="evenodd" clip-rule="evenodd" d="M786.361 242.852C776.077 262.791 772.547 282.731 771.721 302.671L768.595 305.674L759.877 284.253C758.715 270.159 751.074 259.008 745.687 248.799C752.665 257.196 759.643 260.793 766.621 279.933C769.231 264.255 777.748 253.513 786.361 242.852Z" fill="#008F4C" stroke="black" stroke-width="0.346667"/>
<path fill-rule="evenodd" clip-rule="evenodd" d="M792.823 276.434C781.579 282.386 770.853 301.444 769.581 304.245C766.191 286.757 752.225 273.657 741.944 264.89C751.273 276.828 757.932 292.42 761.027 305.994C756.284 299.157 751.511 291.582 745.07 287.454C761.885 308.813 758.328 329.207 757.296 339.409L767.278 324.534C771.707 308.166 781.201 290.211 792.823 276.434Z" fill="#008F4C" stroke="black" stroke-width="0.346667"/>
<path fill-rule="evenodd" clip-rule="evenodd" d="M786.033 307.568C772.49 315.847 764.116 325.984 757.081 338.877C755.669 323.246 751.827 303.273 742.112 293.75C755.332 318.821 755.11 348.865 746.389 358.292L746.224 362.49L756.094 352.695C758.187 343.357 768.563 322.305 780.966 316.361C780.765 319.426 779.204 324.365 776.986 331.706C784.615 321.669 787.25 306.503 786.033 307.568Z" fill="#008F4C" stroke="black" stroke-width="0.346667"/>
<path fill-rule="evenodd" clip-rule="evenodd" d="M767.115 377.182C758.126 378.198 735.678 388.769 727.635 400.282L702.795 407.791C710.687 397.856 725.29 393.145 725.541 364.414C730.613 385.758 721.93 389.932 717.765 399.745C732.848 387.46 749.164 375.92 767.115 377.182Z" fill="#008F4C" stroke="black" stroke-width="0.346667"/>
<path fill-rule="evenodd" clip-rule="evenodd" d="M720.33 405.452C701.92 414.534 692.674 413.377 664.966 416.385C627.054 420.982 610.416 423.194 602.702 432.412H583.859C585.549 428.982 594.565 424.05 598.282 423.087C602.441 421.299 640.975 416.68 656.621 413.368C674.204 410.022 690.469 405.984 696.456 401.814C701.914 399.142 710.186 390.486 719.574 379.456C710.766 395.771 703.636 401.375 696.544 406.742C710.104 407.756 735.646 394.282 751.816 395.547C746.984 396.582 736.823 395.79 720.33 405.452Z" fill="#008F4C" stroke="black" stroke-width="0.346667"/>
<path fill-rule="evenodd" clip-rule="evenodd" d="M778.734 336.37C761.339 342.453 755.41 352.384 746.879 360.391C750.401 340.057 746.728 321.947 739.641 312.641C746.587 335.487 742.936 362.402 736.351 367.037L733.933 382.604L748.713 370.361C755.335 360.251 760.569 350.63 778.734 336.37Z" fill="#008F4C" stroke="black" stroke-width="0.346667"/>
<path fill-rule="evenodd" clip-rule="evenodd" d="M756.752 369.936C752.999 372.695 745.116 379.586 739.314 384.528L722.876 395.893L716.449 400.969L724.576 388.039C726.743 384.099 728.443 380.944 732.405 367.387C735.063 357.685 736.093 342.357 733.886 332.23C741.342 343.365 738.622 363.485 735.121 380.855C745.015 371.416 752.243 365.792 760.427 359.99C764.778 357.838 757.88 380.942 756.258 387.152C756.559 379.229 757.989 370.009 756.752 369.936Z" fill="#008F4C" stroke="black" stroke-width="0.346667"/>
<path fill-rule="evenodd" clip-rule="evenodd" d="M525.903 333.193C524.526 329.361 522.34 326.257 522.18 317.755C522.18 317.755 519.881 316.924 520.011 320.078C520.267 326.277 523.954 335.889 524.542 335.506C525.43 334.93 524.745 333.761 525.903 333.193Z" fill="#008F4C" stroke="black" stroke-width="0.346667"/>
<path fill-rule="evenodd" clip-rule="evenodd" d="M510.317 252.254C510.82 243.801 509.609 229.813 502.215 220.525C497.228 236.735 501.301 244.644 510.317 252.254Z" fill="#008F4C" stroke="black" stroke-width="0.346667"/>
<path fill-rule="evenodd" clip-rule="evenodd" d="M516.419 253.095C524.647 247.901 540.624 238.951 538.153 225.08C528.372 229.793 514.475 237.246 516.419 253.095Z" fill="#008F4C" stroke="black" stroke-width="0.346667"/>
<path fill-rule="evenodd" clip-rule="evenodd" d="M517.406 247.487C519.83 241.936 525.889 243.104 533.692 231.745Z" fill="#008F4C"/>
<path d="M517.406 247.487C519.83 241.936 525.889 243.104 533.692 231.745" stroke="black" stroke-width="0.346667"/>
<path fill-rule="evenodd" clip-rule="evenodd" d="M510.169 248.546C503.326 240.875 504.348 237.51 503.255 225.99Z" fill="#008F4C"/>
<path d="M510.169 248.546C503.326 240.875 504.348 237.51 503.255 225.99" stroke="black" stroke-width="0.346976"/>
<path fill-rule="evenodd" clip-rule="evenodd" d="M510.35 252.614C513.759 244.958 516.136 231.887 512.498 220.349C502.225 233.447 504.621 241.998 510.35 252.614Z" fill="#008F4C" stroke="black" stroke-width="0.346667"/>
<path fill-rule="evenodd" clip-rule="evenodd" d="M511.141 249.057C508.74 240.163 510.749 236.973 511.302 227.726Z" fill="#008F4C"/>
<path d="M511.141 249.057C508.74 240.163 510.749 236.973 511.302 227.726" stroke="black" stroke-width="0.346976"/>
<path fill-rule="evenodd" clip-rule="evenodd" d="M522.799 228.341C535.12 219.983 536.525 202.379 534.301 187.061C518.105 199.366 521.325 209.418 522.799 228.341Z" fill="#008F4C" stroke="black" stroke-width="0.346667"/>
<path fill-rule="evenodd" clip-rule="evenodd" d="M525.62 217.053C526.557 205.87 527.593 205.077 531.542 194.489Z" fill="#008F4C"/>
<path d="M525.62 217.053C526.557 205.87 527.593 205.077 531.542 194.489" stroke="black" stroke-width="0.346667"/>
<path fill-rule="evenodd" clip-rule="evenodd" d="M523.382 229.974C529.126 215.685 527.421 203.865 518.645 187.877C513.968 206.172 512.131 215.229 523.382 229.974Z" fill="#008F4C" stroke="black" stroke-width="0.346667"/>
<path fill-rule="evenodd" clip-rule="evenodd" d="M523.594 223.75C520.66 212.874 520.713 210.133 519.552 198.811Z" fill="#008F4C"/>
<path d="M523.594 223.75C520.66 212.874 520.713 210.133 519.552 198.811" stroke="black" stroke-width="0.34689"/>
<path fill-rule="evenodd" clip-rule="evenodd" d="M523.213 230.167C535.855 222.369 541.138 211.814 543.1 193.419C529.06 205.105 522.492 211.195 523.213 230.167Z" fill="#008F4C" stroke="black" stroke-width="0.346667"/>
<path fill-rule="evenodd" clip-rule="evenodd" d="M527.112 226.286C530.352 214.054 531.388 212.56 538.134 202.498Z" fill="#008F4C"/>
<path d="M527.112 226.286C530.352 214.054 531.388 212.56 538.134 202.498" stroke="black" stroke-width="0.346667"/>
<path fill-rule="evenodd" clip-rule="evenodd" d="M515.692 250.688C522.672 243.728 533.653 232.741 528.425 219.764C519.831 226.61 511.785 239.175 515.692 250.688Z" fill="#008F4C" stroke="black" stroke-width="0.346667"/>
<path fill-rule="evenodd" clip-rule="evenodd" d="M510.506 283.554C521.891 275.663 521.405 260.699 513.958 244.476C504.56 259.893 502.503 266.58 510.506 283.554Z" fill="#008F4C" stroke="black" stroke-width="0.346667"/>
<path fill-rule="evenodd" clip-rule="evenodd" d="M516.84 299.867C515.721 295.942 513.747 292.682 514.151 284.188C514.151 284.188 511.913 283.187 511.834 286.343C511.677 292.546 514.717 302.41 515.329 302.073C516.253 301.564 515.647 300.348 516.84 299.867Z" fill="#008F4C" stroke="black" stroke-width="0.346667"/>
<path fill-rule="evenodd" clip-rule="evenodd" d="M513.374 285.53C512.172 273.823 511.892 264.983 512.716 253.521Z" fill="#008F4C"/>
<path d="M513.374 285.53C512.172 273.823 511.892 264.983 512.716 253.521" stroke="black" stroke-width="0.346667"/>
<path fill-rule="evenodd" clip-rule="evenodd" d="M514.302 288.369C511.673 271.128 502.578 259.653 486.277 254.604C489.794 273.168 497.105 283.253 514.302 288.369Z" fill="#008F4C" stroke="black" stroke-width="0.346667"/>
<path fill-rule="evenodd" clip-rule="evenodd" d="M511.072 285.005C503.126 277.321 497.746 270.405 490.674 259.468Z" fill="#008F4C"/>
<path d="M511.072 285.005C503.126 277.321 497.746 270.405 490.674 259.468" stroke="black" stroke-width="0.346667"/>
<path fill-rule="evenodd" clip-rule="evenodd" d="M512.718 288.112C527.917 281.488 531.929 274.944 532.866 256.919C517.591 265.507 513.515 269.143 512.718 288.112Z" fill="#008F4C" stroke="black" stroke-width="0.346667"/>
<path fill-rule="evenodd" clip-rule="evenodd" d="M522.412 325.21C519.782 307.969 510.687 296.494 494.386 291.446C497.904 310.009 505.215 320.094 522.412 325.21Z" fill="#008F4C" stroke="black" stroke-width="0.346667"/>
<path fill-rule="evenodd" clip-rule="evenodd" d="M569.502 404.178C581.631 407.324 590.877 410.125 611.838 415.112C647.656 424.903 667.086 425.879 674.799 435.097H693.643C691.953 431.666 682.936 426.734 679.219 425.771C662.266 424.478 629.315 415.406 613.669 412.094C594.923 407.512 577.727 404.198 571.74 401.777C561.156 396.558 566.695 406.826 569.502 404.178Z" fill="#008F4C" stroke="black" stroke-width="0.346667"/>
<path fill-rule="evenodd" clip-rule="evenodd" d="M570.743 405.023C555.559 396.108 551.475 398.085 536.534 403.014C557.899 416.362 559.634 402.865 570.743 405.023Z" fill="#008F4C" stroke="black" stroke-width="0.346667"/>
<path fill-rule="evenodd" clip-rule="evenodd" d="M562.518 402.687C551.553 404.358 553.782 404.179 544.672 403.45Z" fill="#008F4C"/>
<path d="M562.518 402.687C551.553 404.358 553.782 404.179 544.672 403.45" stroke="black" stroke-width="0.346935"/>
<path fill-rule="evenodd" clip-rule="evenodd" d="M545.281 381.063C542.204 378.591 538.803 377.191 534.427 370.072C534.427 370.072 532.064 370.663 533.747 373.264C537.054 378.376 544.973 384.448 545.281 383.792C545.746 382.802 544.583 382.198 545.281 381.063Z" fill="#008F4C" stroke="black" stroke-width="0.346667"/>
<path fill-rule="evenodd" clip-rule="evenodd" d="M572.936 405.401C567.031 388.409 557.001 381.162 542.337 375.367C544.685 394.677 551.528 401.777 572.936 405.401Z" fill="#008F4C" stroke="black" stroke-width="0.346667"/>
<path fill-rule="evenodd" clip-rule="evenodd" d="M569.513 402.389C557.944 393.16 553.346 389.523 547.499 382.059Z" fill="#008F4C"/>
<path d="M569.513 402.389C557.944 393.16 553.346 389.523 547.499 382.059" stroke="black" stroke-width="0.346718"/>
<path fill-rule="evenodd" clip-rule="evenodd" d="M572.552 404.861C568.938 386.674 567.575 383.101 556.519 371.333C554.94 390.671 557.674 391.703 572.552 404.861Z" fill="#008F4C" stroke="black" stroke-width="0.346667"/>
<path fill-rule="evenodd" clip-rule="evenodd" d="M524.695 335.206C519.435 323.332 512.125 322.734 499.275 318.529C503.839 329.115 505.036 335.38 524.695 335.206Z" fill="#008F4C" stroke="black" stroke-width="0.346667"/>
<path fill-rule="evenodd" clip-rule="evenodd" d="M515.091 285.156C519.647 275.723 523.808 271.081 529.402 263.643Z" fill="#008F4C"/>
<path d="M515.091 285.156C519.647 275.723 523.808 271.081 529.402 263.643" stroke="black" stroke-width="0.346667"/>
<path fill-rule="evenodd" clip-rule="evenodd" d="M522.734 325.279C533.34 309.031 527.504 296.008 515.675 283.059C510.577 300.8 513.413 312.048 522.734 325.279Z" fill="#008F4C" stroke="black" stroke-width="0.346667"/>
<path fill-rule="evenodd" clip-rule="evenodd" d="M532.919 363.294C545.613 352.406 543.618 336.229 539.846 320.087C529.121 335.795 528.637 342.877 532.919 363.294Z" fill="#008F4C" stroke="black" stroke-width="0.346667"/>
<path fill-rule="evenodd" clip-rule="evenodd" d="M533.921 356.738C535.347 348.733 537.823 336.876 538.227 328.887Z" fill="#008F4C"/>
<path d="M533.921 356.738C535.347 348.733 537.823 336.876 538.227 328.887" stroke="black" stroke-width="0.346718"/>
<path fill-rule="evenodd" clip-rule="evenodd" d="M519.916 335.206C513.498 326.831 510.253 329.454 503.731 321.908Z" fill="#008F4C"/>
<path d="M519.916 335.206C513.498 326.831 510.253 329.454 503.731 321.908" stroke="black" stroke-width="0.346678"/>
<path fill-rule="evenodd" clip-rule="evenodd" d="M524.711 334.7C511.144 329.194 509.213 335.688 500.475 340.568C510.93 344.033 515.881 344.428 524.711 334.7Z" fill="#008F4C" stroke="black" stroke-width="0.346667"/>
<path fill-rule="evenodd" clip-rule="evenodd" d="M535.07 374.979C536.382 360.195 533.587 344.43 524.94 330.568C518.397 347.459 519.478 358.509 535.07 374.979Z" fill="#008F4C" stroke="black" stroke-width="0.346667"/>
<path fill-rule="evenodd" clip-rule="evenodd" d="M519.012 321.801C511.844 313.558 506.882 309.217 501.165 298.999Z" fill="#008F4C"/>
<path d="M519.012 321.801C511.844 313.558 506.882 309.217 501.165 298.999" stroke="black" stroke-width="0.34699"/>
<path fill-rule="evenodd" clip-rule="evenodd" d="M522.603 321.231C522.714 307.979 520.583 301.544 517.039 292.156Z" fill="#008F4C"/>
<path d="M522.603 321.231C522.714 307.979 520.583 301.544 517.039 292.156" stroke="black" stroke-width="0.346718"/>
<path fill-rule="evenodd" clip-rule="evenodd" d="M516.749 244.951C520.324 240.554 521.284 239.818 527.112 224.136Z" fill="#008F4C"/>
<path d="M516.749 244.951C520.324 240.554 521.284 239.818 527.112 224.136" stroke="black" stroke-width="0.346667"/>
<path fill-rule="evenodd" clip-rule="evenodd" d="M526.015 340.333C527.153 352.152 528.909 359.401 532.978 368.318Z" fill="#008F4C"/>
<path d="M526.015 340.333C527.153 352.152 528.909 359.401 532.978 368.318" stroke="black" stroke-width="0.346774"/>
<path fill-rule="evenodd" clip-rule="evenodd" d="M570.279 401.147C563.862 391.547 563.742 390.148 560.181 381.202Z" fill="#008F4C"/>
<path d="M570.279 401.147C563.862 391.547 563.742 390.148 560.181 381.202" stroke="black" stroke-width="0.346678"/>
<path fill-rule="evenodd" clip-rule="evenodd" d="M522.071 335.266C511.454 338.625 515.599 338.469 506.486 339.165Z" fill="#008F4C"/>
<path d="M522.071 335.266C511.454 338.625 515.599 338.469 506.486 339.165" stroke="black" stroke-width="0.346848"/>
<path d="M632.82 479.218C632.097 479.199 631.622 479.177 631.012 479.159C631.012 479.159 631.012 479.165 631.012 479.165C630.374 479.145 629.928 479.126 629.419 479.107C628.714 479.081 627.824 479.042 627.125 479.007C626.557 478.98 626.037 478.956 625.312 478.915C625.312 478.908 625.314 478.908 625.314 478.906C624.704 478.87 624.229 478.851 623.507 478.805C623.617 477.751 623.724 476.697 623.834 475.643C619.67 475.358 615.516 474.958 611.379 474.448C611.18 475.513 610.982 476.578 610.783 477.642C610.067 477.557 609.6 477.49 608.997 477.415C608.996 477.415 608.996 477.422 608.996 477.425C608.189 477.323 607.601 477.244 606.98 477.16C606.492 477.094 605.858 477.006 605.37 476.936C604.753 476.847 604.169 476.763 603.37 476.642C603.371 476.636 603.372 476.636 603.373 476.632C602.774 476.54 602.305 476.477 601.595 476.363C601.86 475.295 602.124 474.227 602.389 473.159C598.296 472.488 594.227 471.709 590.194 470.816C589.838 471.881 589.483 472.947 589.127 474.012C588.427 473.859 587.971 473.748 587.381 473.616C587.381 473.623 587.379 473.623 587.379 473.625C586.734 473.479 586.28 473.37 585.77 473.251C585.04 473.081 584.123 472.86 583.394 472.679C582.917 472.561 582.501 472.461 581.907 472.31C581.908 472.31 581.909 472.304 581.91 472.303C581.327 472.154 580.87 472.046 580.18 471.865C580.603 470.807 581.025 469.748 581.447 468.689C577.476 467.635 573.548 466.466 569.67 465.188C569.157 466.232 568.646 467.276 568.133 468.32C567.461 468.1 567.024 467.945 566.458 467.755C566.457 467.755 566.456 467.762 566.455 467.762C565.99 467.605 565.68 467.495 565.295 467.364C564.354 467.043 563.227 466.646 562.293 466.306C561.93 466.174 561.639 466.072 561.205 465.912C561.206 465.912 561.207 465.912 561.208 465.906C560.651 465.699 560.213 465.546 559.555 465.298C560.132 464.272 560.707 463.244 561.284 462.218C557.486 460.778 553.746 459.229 550.074 457.565C549.413 458.56 548.754 459.556 548.093 460.551C547.457 460.263 547.046 460.063 546.512 459.817C546.51 459.817 546.508 459.824 546.506 459.827C545.842 459.519 545.366 459.291 544.852 459.048C544.311 458.791 543.618 458.457 543.078 458.192C542.599 457.956 542.162 457.744 541.554 457.441C541.556 457.441 541.558 457.434 541.56 457.434C541.036 457.17 540.623 456.973 540.005 456.657C540.724 455.69 541.442 454.722 542.161 453.755C538.591 451.928 535.1 449.986 531.689 447.934C530.892 448.859 530.096 449.784 529.299 450.708C528.708 450.353 528.328 450.108 527.832 449.805C527.83 449.805 527.829 449.811 527.826 449.812C527.315 449.497 526.96 449.271 526.552 449.017C525.92 448.622 525.134 448.12 524.511 447.714C524.107 447.452 523.751 447.224 523.248 446.892C523.25 446.892 523.252 446.885 523.254 446.885C522.771 446.564 522.388 446.321 521.818 445.936C522.667 445.048 523.515 444.159 524.365 443.271C521.027 441.017 517.841 438.678 514.799 436.264C513.877 437.102 512.956 437.942 512.034 438.78C509.268 436.594 507.917 435.462 505.286 433.127C506.263 432.324 507.239 431.52 508.216 430.717C505.242 428.056 502.427 425.313 499.764 422.494C498.705 423.249 497.647 424.005 496.588 424.76C494.153 422.22 492.973 420.912 490.692 418.223C491.813 417.503 492.934 416.784 494.056 416.065C491.505 412.999 489.121 409.854 486.891 406.638C485.676 407.305 484.463 407.972 483.248 408.639C481.193 405.745 480.207 404.262 478.327 401.219C479.61 400.595 480.892 399.97 482.175 399.346C480.091 395.885 478.185 392.347 476.428 388.748C475.052 389.305 473.677 389.862 472.301 390.418C470.674 387.168 469.908 385.504 468.476 382.105C469.907 381.609 471.338 381.112 472.769 380.616C471.18 376.766 469.757 372.852 468.497 368.88C467.01 369.28 465.523 369.682 464.036 370.082C462.884 366.475 462.363 364.632 461.427 360.874C462.934 360.552 464.441 360.229 465.948 359.908C464.874 355.66 463.971 351.359 463.231 347.011C461.735 347.216 460.24 347.421 458.744 347.625C458.117 343.66 457.86 341.638 457.468 337.522C458.924 337.405 460.379 337.288 461.835 337.171C461.281 332.308 460.906 327.401 460.719 322.46C461.55 322.466 461.966 322.46 462.799 322.466C462.984 327.349 463.354 332.199 463.902 337.005C470.941 336.442 477.98 335.877 485.019 335.31C484.459 331.111 484.072 326.849 483.883 322.524C484.715 322.524 485.131 322.53 485.963 322.53C486.149 326.798 486.532 331.002 487.085 335.144C488.036 335.068 488.987 334.992 489.938 334.915C490.059 336.187 490.166 337.11 490.278 338.072C490.354 338.726 490.45 339.481 490.538 340.129C490.668 341.077 490.794 341.987 490.988 343.21C490.147 343.325 489.306 343.44 488.465 343.555C489.198 347.278 490.085 350.938 491.113 354.535C491.807 354.386 492.502 354.238 493.197 354.089C493.492 355.273 493.726 356.132 493.97 357.023C494.122 357.579 494.308 358.231 494.469 358.78C494.729 359.661 494.98 360.51 495.344 361.648C494.74 361.811 494.135 361.973 493.53 362.136C494.717 365.505 496.032 368.811 497.479 372.047C497.984 371.871 498.49 371.697 498.996 371.521C499.478 372.663 499.849 373.499 500.234 374.35C500.402 374.723 500.613 375.183 500.785 375.55C501.187 376.404 501.587 377.238 502.143 378.346C501.693 378.529 501.243 378.71 500.793 378.893C502.373 381.934 504.072 384.906 505.886 387.805C506.289 387.609 506.692 387.413 507.094 387.217C507.65 388.116 508.07 388.762 508.511 389.443C508.886 390.022 509.307 390.653 509.699 391.228C510.141 391.877 510.554 392.487 511.141 393.312C510.753 393.526 510.365 393.739 509.977 393.952C511.911 396.684 513.952 399.343 516.098 401.924C516.485 401.676 516.873 401.428 517.26 401.179C517.925 401.962 518.42 402.521 518.944 403.115C519.439 403.676 519.974 404.268 520.498 404.833C520.997 405.372 521.454 405.872 522.105 406.551C521.707 406.835 521.308 407.119 520.91 407.404C523.171 409.835 525.532 412.188 527.989 414.46C528.411 414.113 528.833 413.766 529.254 413.419C530.013 414.091 530.575 414.569 531.171 415.079C531.707 415.537 532.295 416.029 532.844 416.478C533.446 416.971 534.01 417.437 534.8 418.061C534.361 418.462 533.921 418.862 533.482 419.262C536.047 421.389 538.703 423.434 541.45 425.392C541.914 424.906 542.379 424.42 542.843 423.933C543.698 424.511 544.33 424.92 544.998 425.355C545.506 425.686 546.082 426.056 546.582 426.37C547.312 426.827 548.02 427.269 548.99 427.852C548.514 428.405 548.037 428.957 547.562 429.509C550.404 431.32 553.331 433.045 556.341 434.678C556.822 434.03 557.305 433.383 557.786 432.735C558.874 433.291 559.688 433.694 560.521 434.1C560.858 434.264 561.28 434.468 561.617 434.629C562.465 435.031 563.301 435.422 564.434 435.934C563.96 436.649 563.485 437.364 563.011 438.079C566.096 439.558 569.259 440.946 572.498 442.239C572.949 441.436 573.401 440.633 573.851 439.829C575.07 440.289 575.985 440.622 576.912 440.952C577.204 441.056 577.579 441.188 577.873 441.29C578.785 441.606 579.687 441.911 580.903 442.309C580.481 443.169 580.058 444.03 579.636 444.891C582.918 446.023 586.27 447.063 589.691 448.004C590.061 447.076 590.432 446.148 590.801 445.22C591.935 445.517 592.775 445.727 593.644 445.941C594.2 446.078 594.855 446.234 595.421 446.365C596.256 446.56 597.055 446.745 598.149 446.983C597.827 447.95 597.503 448.917 597.181 449.883C600.608 450.663 604.094 451.355 607.645 451.943C607.895 450.932 608.146 449.922 608.396 448.912C609.434 449.077 610.191 449.186 610.996 449.305C611.786 449.421 612.623 449.537 613.425 449.642C614.21 449.744 614.938 449.841 615.949 449.961C615.757 450.993 615.564 452.024 615.372 453.056C618.883 453.487 622.455 453.817 626.075 454.06C626.183 453.01 626.292 451.961 626.401 450.912C627.447 450.979 628.206 451.015 629.018 451.057C629.713 451.093 630.476 451.129 631.148 451.155C632.037 451.188 632.893 451.219 634.055 451.247C634.009 452.308 633.961 453.37 633.915 454.431C635.846 454.485 637.786 454.524 639.745 454.525C641.41 454.525 643.061 454.5 644.705 454.461C644.664 453.382 644.624 452.304 644.583 451.225C645.43 451.2 646.023 451.172 646.7 451.147C647.831 451.104 648.811 451.056 649.898 450.994C650.635 450.951 651.302 450.917 652.238 450.854C652.345 451.946 652.45 453.039 652.557 454.131C656.19 453.906 659.768 453.581 663.293 453.167C663.094 452.063 662.895 450.959 662.697 449.856C663.746 449.728 664.505 449.623 665.315 449.514C666.043 449.416 666.831 449.303 667.547 449.196C668.381 449.071 669.173 448.954 670.252 448.778C670.519 449.883 670.785 450.987 671.052 452.092C674.623 451.52 678.131 450.847 681.579 450.082C681.221 448.992 680.866 447.902 680.508 446.813C681.722 446.545 682.617 446.337 683.532 446.12C683.99 446.011 684.549 445.875 685.012 445.76C685.884 445.543 686.728 445.33 687.867 445.03C688.286 446.097 688.704 447.164 689.123 448.231C692.572 447.301 695.951 446.272 699.26 445.149C698.767 444.133 698.276 443.115 697.783 442.099C698.727 441.789 699.402 441.556 700.133 441.307C701.002 441.01 701.855 440.708 702.75 440.382C703.413 440.141 704.01 439.928 704.845 439.614C705.382 440.581 705.918 441.549 706.455 442.517C709.722 441.231 712.912 439.85 716.024 438.376C715.443 437.491 714.862 436.606 714.281 435.721C715.09 435.357 715.658 435.089 716.293 434.795C717.194 434.377 718.024 433.98 718.903 433.549C719.545 433.233 720.13 432.95 720.94 432.539C721.541 433.354 722.141 434.171 722.743 434.986C725.777 433.358 728.728 431.638 731.594 429.83C730.983 429.114 730.372 428.398 729.761 427.683C730.69 427.13 731.363 426.715 732.067 426.28C732.573 425.966 733.15 425.603 733.649 425.283C734.349 424.834 735.019 424.403 735.921 423.802C736.528 424.443 737.133 425.084 737.74 425.725C740.502 423.774 743.174 421.736 745.754 419.615C745.166 419.075 744.579 418.535 743.99 417.995C744.854 417.323 745.478 416.819 746.128 416.294C746.581 415.928 747.1 415.5 747.551 415.121C748.171 414.602 748.762 414.106 749.555 413.416C750.125 413.889 750.695 414.363 751.265 414.837C753.726 412.581 756.093 410.245 758.361 407.831C757.818 407.44 757.276 407.048 756.733 406.656C757.36 406.016 757.797 405.548 758.282 405.039C758.902 404.385 759.492 403.745 760.093 403.077C760.567 402.549 761.003 402.071 761.597 401.387C762.125 401.731 762.653 402.074 763.181 402.417C765.324 399.868 767.365 397.244 769.3 394.548C768.781 394.257 768.262 393.966 767.742 393.676C768.383 392.797 768.842 392.141 769.319 391.458C769.633 391.007 769.995 390.476 770.3 390.02C770.767 389.32 771.216 388.647 771.808 387.716C772.332 387.976 772.856 388.237 773.38 388.497C775.187 385.654 776.882 382.74 778.464 379.759C777.903 379.526 777.343 379.293 776.783 379.06C777.343 377.976 777.746 377.161 778.152 376.326C778.32 375.981 778.527 375.546 778.69 375.196C779.082 374.359 779.46 373.536 779.95 372.413C780.556 372.63 781.162 372.849 781.767 373.066C783.214 369.914 784.54 366.696 785.739 363.415C785.034 363.215 784.33 363.014 783.625 362.814C783.953 361.824 784.176 361.094 784.416 360.317C784.625 359.643 784.844 358.899 785.034 358.231C785.271 357.391 785.499 356.588 785.786 355.479C786.591 355.663 787.395 355.848 788.2 356.033C789.244 352.548 790.145 348.998 790.912 345.393C789.947 345.244 788.982 345.093 788.017 344.943C788.184 343.936 788.286 343.202 788.404 342.406C788.539 341.485 788.664 340.553 788.774 339.633C788.874 338.793 788.971 338.015 789.08 336.925C790.183 337.036 791.286 337.148 792.388 337.259C793.126 332.365 793.619 327.38 793.842 322.308C794.676 322.314 795.094 322.314 795.928 322.314C795.7 327.454 795.198 332.507 794.45 337.466C801.437 338.17 808.425 338.876 815.413 339.582C816.239 333.952 816.781 328.217 817.007 322.384C817.841 322.391 818.256 322.384 819.089 322.391C818.859 328.292 818.311 334.094 817.474 339.789C818.825 339.926 820.175 340.062 821.525 340.199C821.126 344.168 820.868 346.118 820.231 349.949C818.752 349.718 817.272 349.49 815.794 349.259C814.913 353.458 813.865 357.589 812.656 361.648C814.274 362.02 815.891 362.39 817.509 362.762C816.562 366.4 816.034 368.184 814.873 371.682C813.186 371.202 811.498 370.724 809.811 370.245C808.42 374.067 806.883 377.817 805.2 381.49C806.931 382.112 808.663 382.733 810.394 383.356C808.95 386.661 808.179 388.277 806.54 391.44C804.814 390.722 803.087 390.004 801.36 389.285C799.518 392.755 797.538 396.146 795.431 399.457C797.113 400.294 798.797 401.129 800.48 401.966C800.138 402.502 799.849 402.947 799.555 403.401H799.556C799.535 403.433 799.524 403.449 799.503 403.48C798.191 405.501 797.203 406.925 795.53 409.215C793.906 408.307 792.281 407.399 790.658 406.49C788.401 409.627 786.022 412.679 783.521 415.645C785.031 416.627 786.541 417.607 788.05 418.589C786.198 420.72 785.036 421.993 783.379 423.71C783.35 423.74 783.335 423.757 783.306 423.788H783.304C782.932 424.173 782.567 424.552 782.126 425.001C780.718 423.983 779.309 422.966 777.9 421.948C775.255 424.754 772.494 427.47 769.621 430.093C770.877 431.137 772.135 432.181 773.391 433.226C772.878 433.672 772.532 433.954 772.096 434.327C772.098 434.327 772.1 434.333 772.103 434.333C771.675 434.698 771.373 434.946 771.026 435.237C770.427 435.74 769.675 436.358 769.065 436.849C768.709 437.136 768.404 437.386 767.959 437.739C767.957 437.739 767.954 437.733 767.952 437.733C767.501 438.088 767.159 438.372 766.621 438.789C765.483 437.742 764.342 436.696 763.203 435.649C760.193 438.112 757.077 440.479 753.856 442.745C754.836 443.781 755.819 444.816 756.799 445.852C756.226 446.234 755.842 446.474 755.357 446.792C755.359 446.792 755.362 446.799 755.364 446.799C754.829 447.148 754.446 447.39 754.02 447.662C753.376 448.075 752.563 448.584 751.902 448.99C751.535 449.217 751.229 449.41 750.776 449.685C750.775 449.685 750.774 449.685 750.772 449.678C750.274 449.979 749.894 450.221 749.301 450.573C748.43 449.553 747.558 448.533 746.687 447.512C743.347 449.61 739.907 451.605 736.372 453.495C737.101 454.487 737.833 455.478 738.562 456.47C737.941 456.785 737.527 456.982 737.001 457.244C737.002 457.244 737.004 457.251 737.007 457.252C736.39 457.557 735.947 457.771 735.461 458.008C734.888 458.286 734.155 458.636 733.576 458.908C733.096 459.133 732.662 459.338 732.049 459.62C732.048 459.62 732.046 459.614 732.044 459.613C731.507 459.858 731.095 460.057 730.456 460.344C729.818 459.371 729.177 458.399 728.539 457.426C724.913 459.136 721.198 460.741 717.392 462.233C717.918 463.182 718.445 464.131 718.971 465.079C718.311 465.328 717.871 465.48 717.313 465.686C717.314 465.686 717.316 465.693 717.317 465.693C716.74 465.905 716.333 466.048 715.869 466.215C715.161 466.47 714.27 466.784 713.557 467.029C713.079 467.193 712.659 467.341 712.059 467.543C712.057 467.543 712.056 467.536 712.054 467.536C711.487 467.725 711.049 467.881 710.375 468.101C709.921 467.163 709.466 466.225 709.012 465.286C705.16 466.589 701.227 467.784 697.213 468.864C697.578 469.797 697.945 470.73 698.31 471.663C697.62 471.845 697.163 471.954 696.579 472.104C696.58 472.104 696.58 472.111 696.581 472.111C696.149 472.221 695.863 472.29 695.499 472.382C694.537 472.625 693.379 472.907 692.421 473.13C691.99 473.231 691.63 473.319 691.102 473.44C691.102 473.44 691.102 473.433 691.101 473.433C690.512 473.567 690.058 473.679 689.358 473.833C689.051 472.893 688.742 471.954 688.435 471.014C684.422 471.903 680.34 472.687 676.183 473.353C676.414 474.309 676.645 475.264 676.876 476.22C676.164 476.336 675.694 476.401 675.093 476.495C675.094 476.495 675.094 476.502 675.095 476.502C674.505 476.593 674.093 476.652 673.617 476.723C672.872 476.835 671.939 476.971 671.199 477.071C670.653 477.146 670.158 477.215 669.464 477.306C669.463 477.306 669.463 477.299 669.462 477.297C668.859 477.374 668.391 477.442 667.675 477.53C667.5 476.555 667.325 475.581 667.15 474.606C663.048 475.089 658.881 475.459 654.654 475.723C654.751 476.729 654.85 477.734 654.947 478.739C654.225 478.789 653.75 478.81 653.14 478.848C653.14 478.848 653.14 478.854 653.14 478.854C652.585 478.887 652.204 478.907 651.751 478.932C650.915 478.979 649.881 479.031 649.052 479.065C648.538 479.087 648.087 479.108 647.442 479.132C647.442 479.125 647.442 479.125 647.442 479.123C646.831 479.144 646.357 479.169 645.633 479.19C645.595 478.165 645.556 477.14 645.518 476.116C645.037 476.127 644.559 476.148 644.076 476.156C640.373 476.223 636.665 476.197 632.958 476.088C632.912 477.131 632.867 478.174 632.82 479.217L632.82 479.218ZM640.152 474.409C641.446 474.409 642.739 474.395 644.032 474.371C644.507 474.362 644.977 474.343 645.451 474.331C645.226 468.304 644.999 462.276 644.772 456.248C643.103 456.287 641.428 456.312 639.74 456.311C637.756 456.311 635.791 456.273 633.836 456.218C633.571 462.247 633.305 468.276 633.037 474.306C635.409 474.375 637.781 474.412 640.152 474.409ZM654.482 473.943C658.659 473.682 662.777 473.316 666.831 472.838C665.758 466.871 664.685 460.904 663.61 454.938C660.038 455.357 656.411 455.685 652.729 455.913C653.316 461.923 653.9 467.933 654.482 473.943ZM624.019 473.864C624.646 467.857 625.269 461.848 625.89 455.84C622.22 455.594 618.601 455.26 615.042 454.823C613.932 460.776 612.822 466.73 611.709 472.683C615.798 473.186 619.904 473.582 624.019 473.864ZM675.76 471.599C679.868 470.941 683.903 470.166 687.869 469.287C685.962 463.461 684.054 457.636 682.145 451.811C678.651 452.586 675.095 453.267 671.475 453.846C672.905 459.764 674.333 465.681 675.76 471.599ZM602.823 471.409C604.287 465.504 605.75 459.6 607.212 453.695C603.613 453.099 600.078 452.398 596.605 451.608C594.661 457.437 592.716 463.266 590.769 469.093C594.756 469.977 598.777 470.746 602.823 471.409ZM696.545 467.164C700.513 466.096 704.4 464.915 708.208 463.627C705.495 458.021 702.781 452.416 700.064 446.812C696.71 447.95 693.285 448.991 689.79 449.934C692.044 455.676 694.296 461.42 696.545 467.164ZM582.124 466.991C584.422 461.229 586.719 455.467 589.015 449.704C585.547 448.75 582.149 447.695 578.822 446.548C576.044 452.209 573.265 457.87 570.485 463.531C574.317 464.793 578.199 465.949 582.124 466.991ZM716.489 460.609C720.25 459.134 723.924 457.549 727.508 455.859C724.025 450.554 720.541 445.249 717.055 439.946C713.9 441.44 710.667 442.84 707.356 444.143C710.402 449.631 713.446 455.12 716.489 460.609ZM562.195 460.595C565.328 455.018 568.46 449.441 571.589 443.861C568.306 442.55 565.1 441.143 561.972 439.644C558.356 445.096 554.737 450.547 551.117 455.998C554.746 457.642 558.442 459.172 562.195 460.595ZM543.296 452.231C547.27 446.888 551.243 441.543 555.214 436.198C552.163 434.542 549.196 432.794 546.315 430.958C541.86 436.133 537.403 441.306 532.945 446.478C536.315 448.505 539.768 450.425 543.296 452.231ZM735.25 451.975C738.745 450.107 742.145 448.133 745.446 446.06C741.243 441.134 737.039 436.209 732.834 431.284C729.929 433.117 726.939 434.86 723.863 436.511C727.661 441.664 731.456 446.819 735.25 451.975ZM525.705 441.869C530.511 436.842 535.315 431.814 540.118 426.785C537.335 424.801 534.644 422.727 532.044 420.572C526.781 425.364 521.517 430.155 516.252 434.944C519.258 437.331 522.406 439.641 525.705 441.869ZM752.533 441.347C755.717 439.107 758.797 436.767 761.771 434.333C756.91 429.865 752.049 425.398 747.185 420.932C744.57 423.081 741.862 425.146 739.064 427.123C743.555 431.863 748.046 436.604 752.533 441.347ZM509.745 429.462C515.323 424.877 520.901 420.292 526.476 415.705C523.986 413.402 521.595 411.016 519.303 408.552C513.333 412.814 507.362 417.075 501.391 421.335C504.022 424.121 506.805 426.832 509.745 429.462ZM768.116 428.842C770.955 426.25 773.684 423.566 776.299 420.792C770.854 416.857 765.408 412.922 759.961 408.989C757.663 411.436 755.265 413.803 752.77 416.089C757.887 420.339 763.002 424.59 768.116 428.842ZM495.75 414.978C501.976 410.986 508.203 406.993 514.426 402.998C512.251 400.381 510.182 397.686 508.222 394.917C501.705 398.501 495.187 402.082 488.668 405.662C490.872 408.84 493.229 411.949 495.75 414.978ZM781.855 414.563C784.327 411.632 786.681 408.616 788.911 405.516C782.957 402.185 777.004 398.854 771.047 395.525C769.086 398.259 767.018 400.918 764.846 403.502C770.517 407.187 776.187 410.875 781.855 414.563ZM793.628 398.561C795.711 395.289 797.667 391.938 799.488 388.508C793.103 385.85 786.719 383.193 780.333 380.538C778.73 383.559 777.012 386.512 775.182 389.393C781.332 392.448 787.48 395.504 793.628 398.561ZM484.007 398.455C490.698 395.2 497.388 391.945 504.077 388.687C502.238 385.747 500.516 382.736 498.914 379.653C492.052 382.432 485.19 385.208 478.326 387.983C480.062 391.539 481.947 395.035 484.007 398.455ZM803.284 380.801C804.948 377.172 806.468 373.465 807.842 369.687C801.131 367.781 794.419 365.877 787.707 363.975C786.492 367.3 785.148 370.561 783.682 373.755C790.217 376.103 796.75 378.451 803.284 380.801ZM474.71 379.944C481.659 377.536 488.608 375.127 495.556 372.716C494.089 369.436 492.756 366.085 491.554 362.67C484.533 364.564 477.511 366.455 470.488 368.345C471.733 372.27 473.139 376.139 474.71 379.944ZM810.656 361.189C811.85 357.177 812.883 353.093 813.753 348.943C806.82 347.864 799.887 346.786 792.953 345.711C792.175 349.365 791.262 352.962 790.202 356.494C797.021 358.057 803.838 359.623 810.656 361.189ZM467.969 359.478C475.014 357.975 482.059 356.471 489.103 354.965C488.062 351.319 487.163 347.609 486.42 343.836C479.375 344.803 472.329 345.768 465.283 346.731C466.015 351.028 466.908 355.279 467.969 359.478Z" fill="black" stroke="black" stroke-width="0.346667"/>
<path fill-rule="evenodd" clip-rule="evenodd" d="M470.116 417.776L583.865 417.739L583.877 433.41C583.292 441.304 604.831 432.846 605.198 439.328C605.454 443.854 597.13 443.323 587.158 443.65L471.37 443.776C455.162 443.881 441.111 450.637 432.423 457.768C434.461 448.399 443.075 437.495 456.491 432.102C451.961 431.123 437.325 430.199 429 432.807C437.384 421.757 455.9 417.472 470.116 417.776Z" fill="#0071BC" stroke="black" stroke-width="0.346664"/>
<path fill-rule="evenodd" clip-rule="evenodd" d="M810.114 417.777L699.767 417.74L699.755 433.411C700.323 441.304 679.428 432.847 679.072 439.329C678.824 443.855 686.898 443.324 696.573 443.651L808.897 443.777C824.621 443.881 838.252 450.637 846.68 457.769C844.703 448.4 836.346 437.495 823.332 432.103C827.726 431.124 841.924 430.2 850.001 432.808C841.867 421.757 823.905 417.473 810.114 417.777Z" fill="#0071BC" stroke="black" stroke-width="0.346664"/>
<path fill-rule="evenodd" clip-rule="evenodd" d="M554.889 407.471C555.55 401.642 621.718 400.925 641.672 400.925C661.626 400.925 727.793 401.642 728.454 407.471L728.442 417.739L728.422 433.41C728.014 429.817 702.724 428.184 678.711 427.461C663.771 427.011 649.325 426.913 641.672 426.913C634.019 426.913 619.573 427.011 604.633 427.461C580.62 428.184 555.329 429.817 554.922 433.41L554.902 417.739L554.889 407.471Z" fill="#0071BC" stroke="black" stroke-width="0.346664"/>
<path fill-rule="evenodd" clip-rule="evenodd" d="M678.68 439.329L678.712 427.462C702.726 428.185 728.016 429.818 728.424 433.411C729.32 441.304 679.241 432.847 678.68 439.329Z" fill="#0071BC" stroke="black" stroke-width="0.346664"/>
<path fill-rule="evenodd" clip-rule="evenodd" d="M604.634 427.462L604.666 439.329C604.105 432.847 554.026 441.304 554.923 433.411C555.33 429.818 580.621 428.185 604.634 427.462Z" fill="#0071BC" stroke="black" stroke-width="0.346664"/>
<path fill-rule="evenodd" clip-rule="evenodd" d="M490.058 436.252V437.98H480.377C480.364 437.547 480.434 437.131 480.587 436.731C480.833 436.072 481.226 435.422 481.766 434.783C482.312 434.144 483.098 433.404 484.124 432.565C485.716 431.259 486.791 430.227 487.351 429.468C487.91 428.702 488.19 427.979 488.19 427.3C488.19 426.587 487.934 425.987 487.421 425.501C486.915 425.008 486.252 424.762 485.433 424.762C484.567 424.762 483.874 425.022 483.354 425.541C482.835 426.061 482.572 426.78 482.565 427.699L480.717 427.509C480.843 426.131 481.32 425.082 482.146 424.362C482.971 423.636 484.08 423.273 485.473 423.273C486.878 423.273 487.99 423.663 488.81 424.442C489.629 425.221 490.039 426.187 490.039 427.34C490.039 427.926 489.919 428.502 489.679 429.068C489.439 429.634 489.039 430.23 488.48 430.856C487.927 431.483 487.005 432.342 485.712 433.434C484.633 434.34 483.941 434.956 483.634 435.283C483.328 435.602 483.075 435.925 482.875 436.252H490.058Z" fill="black" stroke="black" stroke-width="0.173334"/>
<path fill-rule="evenodd" clip-rule="evenodd" d="M498.401 437.981V423.334H503.447C504.586 423.334 505.455 423.404 506.055 423.544C506.894 423.737 507.61 424.086 508.203 424.593C508.975 425.245 509.551 426.081 509.931 427.1C510.317 428.113 510.511 429.272 510.511 430.577C510.511 431.69 510.381 432.675 510.121 433.535C509.861 434.394 509.528 435.107 509.122 435.673C508.716 436.232 508.269 436.675 507.783 437.002C507.303 437.321 506.721 437.564 506.035 437.731C505.355 437.898 504.573 437.981 503.687 437.981H498.401ZM500.34 436.252H503.467C504.433 436.252 505.189 436.162 505.735 435.983C506.288 435.803 506.727 435.55 507.054 435.223C507.513 434.764 507.87 434.148 508.123 433.375C508.382 432.596 508.512 431.653 508.512 430.547C508.512 429.015 508.259 427.84 507.753 427.02C507.254 426.195 506.644 425.642 505.925 425.362C505.405 425.162 504.569 425.062 503.417 425.062H500.34V436.252Z" fill="black" stroke="black" stroke-width="0.173334"/>
<path fill-rule="evenodd" clip-rule="evenodd" d="M513.227 437.981V423.334H523.818V425.062H515.165V429.548H523.268V431.267H515.165V436.252H524.157V437.981H513.227Z" fill="black" stroke="black" stroke-width="0.173334"/>
<path fill-rule="evenodd" clip-rule="evenodd" d="M763.924 437.731H762.125V426.271C761.692 426.684 761.123 427.097 760.417 427.51C759.717 427.923 759.088 428.233 758.528 428.439V426.701C759.534 426.228 760.413 425.655 761.166 424.982C761.919 424.31 762.451 423.657 762.765 423.024H763.924V437.731Z" fill="black" stroke="black" stroke-width="0.173334"/>
<path fill-rule="evenodd" clip-rule="evenodd" d="M768.809 434.343L770.537 434.183C770.684 434.996 770.964 435.585 771.377 435.952C771.789 436.318 772.319 436.501 772.965 436.501C773.518 436.501 774.001 436.374 774.414 436.121C774.833 435.868 775.176 435.532 775.443 435.112C775.709 434.686 775.932 434.113 776.112 433.394C776.292 432.674 776.382 431.942 776.382 431.196C776.382 431.116 776.379 430.996 776.372 430.836C776.012 431.409 775.52 431.875 774.893 432.235C774.274 432.588 773.601 432.764 772.875 432.764C771.663 432.764 770.637 432.325 769.798 431.446C768.959 430.566 768.539 429.407 768.539 427.969C768.539 426.483 768.975 425.288 769.848 424.382C770.727 423.476 771.826 423.023 773.145 423.023C774.097 423.023 774.967 423.279 775.753 423.792C776.545 424.305 777.145 425.038 777.551 425.99C777.964 426.936 778.171 428.308 778.171 430.107C778.171 431.978 777.967 433.47 777.561 434.583C777.155 435.688 776.549 436.531 775.743 437.11C774.943 437.69 774.004 437.98 772.925 437.98C771.78 437.98 770.844 437.663 770.118 437.031C769.392 436.391 768.955 435.495 768.809 434.343ZM776.172 427.879C776.172 426.846 775.896 426.027 775.343 425.421C774.797 424.815 774.137 424.512 773.365 424.512C772.565 424.512 771.869 424.838 771.277 425.491C770.684 426.144 770.387 426.989 770.387 428.029C770.387 428.961 770.667 429.72 771.227 430.307C771.793 430.886 772.489 431.176 773.315 431.176C774.147 431.176 774.83 430.886 775.363 430.307C775.903 429.72 776.172 428.911 776.172 427.879Z" fill="black" stroke="black" stroke-width="0.173334"/>
<path fill-rule="evenodd" clip-rule="evenodd" d="M786.704 437.73H784.905V426.27C784.472 426.683 783.903 427.096 783.197 427.509C782.498 427.922 781.868 428.232 781.309 428.438V426.7C782.314 426.227 783.194 425.654 783.946 424.981C784.699 424.309 785.232 423.656 785.545 423.023H786.704V437.73Z" fill="black" stroke="black" stroke-width="0.173334"/>
<path fill-rule="evenodd" clip-rule="evenodd" d="M797.085 437.73V434.223H790.731V432.575L797.415 423.083H798.884V432.575H800.862V434.223H798.884V437.73H797.085ZM797.085 432.575V425.971L792.499 432.575H797.085Z" fill="black" stroke="black" stroke-width="0.173334"/>
<path fill-rule="evenodd" clip-rule="evenodd" d="M588.95 413.956C588.95 411.524 589.602 409.623 590.908 408.251C592.213 406.872 593.899 406.182 595.963 406.182C597.316 406.182 598.535 406.506 599.62 407.152C600.706 407.798 601.532 408.7 602.098 409.859C602.671 411.012 602.957 412.32 602.957 413.786C602.957 415.271 602.658 416.6 602.058 417.772C601.459 418.945 600.609 419.834 599.51 420.44C598.411 421.039 597.226 421.339 595.953 421.339C594.575 421.339 593.342 421.006 592.257 420.34C591.171 419.674 590.348 418.765 589.789 417.612C589.229 416.46 588.95 415.241 588.95 413.956ZM590.948 413.986C590.948 415.751 591.421 417.143 592.367 418.162C593.319 419.174 594.511 419.681 595.944 419.681C597.402 419.681 598.601 419.168 599.54 418.142C600.486 417.116 600.959 415.661 600.959 413.776C600.959 412.583 600.756 411.544 600.35 410.659C599.95 409.766 599.36 409.077 598.581 408.59C597.809 408.097 596.939 407.851 595.973 407.851C594.601 407.851 593.419 408.324 592.427 409.27C591.441 410.209 590.948 411.781 590.948 413.986Z" fill="black" stroke="black" stroke-width="0.173334"/>
<path fill-rule="evenodd" clip-rule="evenodd" d="M615.057 406.442H616.995V414.905C616.995 416.377 616.829 417.546 616.496 418.412C616.163 419.278 615.56 419.984 614.687 420.53C613.822 421.069 612.683 421.339 611.27 421.339C609.898 421.339 608.776 421.103 607.903 420.63C607.031 420.157 606.408 419.474 606.035 418.582C605.662 417.682 605.476 416.457 605.476 414.905V406.442H607.414V414.895C607.414 416.167 607.53 417.106 607.764 417.712C608.003 418.312 608.41 418.775 608.982 419.101C609.562 419.427 610.268 419.591 611.101 419.591C612.526 419.591 613.542 419.268 614.148 418.621C614.754 417.975 615.057 416.733 615.057 414.895V406.442Z" fill="black" stroke="black" stroke-width="0.173334"/>
<path fill-rule="evenodd" clip-rule="evenodd" d="M623.96 421.089V408.171H619.134V406.442H630.743V408.171H625.898V421.089H623.96Z" fill="black" stroke="black" stroke-width="0.173334"/>
<path fill-rule="evenodd" clip-rule="evenodd" d="M642.435 406.442H644.373V414.905C644.373 416.377 644.206 417.546 643.873 418.412C643.54 419.277 642.937 419.983 642.065 420.53C641.199 421.069 640.06 421.339 638.648 421.339C637.276 421.339 636.153 421.102 635.281 420.63C634.408 420.157 633.786 419.474 633.413 418.581C633.04 417.682 632.853 416.457 632.853 414.905V406.442H634.791V414.895C634.791 416.167 634.908 417.106 635.141 417.712C635.381 418.312 635.787 418.775 636.36 419.101C636.939 419.427 637.645 419.591 638.478 419.591C639.903 419.591 640.919 419.267 641.525 418.621C642.131 417.975 642.435 416.733 642.435 414.895V406.442Z" fill="black" stroke="black" stroke-width="0.173334"/>
<path fill-rule="evenodd" clip-rule="evenodd" d="M647.53 421.089V406.442H653.025C654.144 406.442 655.04 406.592 655.713 406.892C656.392 407.185 656.922 407.641 657.302 408.261C657.688 408.873 657.881 409.516 657.881 410.189C657.881 410.815 657.711 411.405 657.372 411.957C657.032 412.51 656.519 412.956 655.833 413.296C656.719 413.556 657.398 413.999 657.871 414.625C658.351 415.251 658.59 415.99 658.59 416.843C658.59 417.529 658.444 418.169 658.151 418.761C657.864 419.348 657.508 419.8 657.082 420.12C656.656 420.44 656.119 420.683 655.473 420.85C654.834 421.009 654.048 421.089 653.115 421.089H647.53ZM649.469 412.597H652.636C653.495 412.597 654.111 412.54 654.484 412.427C654.977 412.28 655.347 412.037 655.593 411.698C655.846 411.358 655.973 410.932 655.973 410.419C655.973 409.933 655.856 409.506 655.623 409.14C655.39 408.767 655.057 408.514 654.624 408.381C654.191 408.241 653.448 408.171 652.396 408.171H649.469V412.597ZM649.469 419.361H653.115C653.741 419.361 654.181 419.338 654.434 419.291C654.88 419.211 655.253 419.078 655.553 418.891C655.853 418.705 656.099 418.435 656.292 418.082C656.486 417.722 656.582 417.309 656.582 416.843C656.582 416.297 656.442 415.824 656.163 415.424C655.883 415.018 655.493 414.735 654.994 414.575C654.501 414.409 653.788 414.325 652.856 414.325H649.469V419.361Z" fill="black" stroke="black" stroke-width="0.173334"/>
<path fill-rule="evenodd" clip-rule="evenodd" d="M661.309 421.089V406.442H667.803C669.108 406.442 670.101 406.575 670.78 406.842C671.46 407.102 672.002 407.565 672.409 408.231C672.815 408.897 673.018 409.633 673.018 410.439C673.018 411.478 672.682 412.354 672.009 413.066C671.336 413.779 670.297 414.232 668.892 414.425C669.405 414.672 669.794 414.915 670.061 415.155C670.627 415.674 671.163 416.324 671.669 417.103L674.217 421.089H671.779L669.841 418.042C669.275 417.163 668.809 416.49 668.442 416.024C668.076 415.558 667.746 415.231 667.453 415.045C667.167 414.858 666.874 414.728 666.574 414.655C666.354 414.608 665.994 414.585 665.495 414.585H663.247V421.089H661.309ZM663.247 412.907H667.413C668.299 412.907 668.992 412.817 669.491 412.637C669.991 412.45 670.371 412.157 670.63 411.758C670.89 411.351 671.02 410.912 671.02 410.439C671.02 409.746 670.767 409.176 670.261 408.73C669.761 408.284 668.968 408.061 667.883 408.061H663.247V412.907Z" fill="black" stroke="black" stroke-width="0.173334"/>
<path fill-rule="evenodd" clip-rule="evenodd" d="M675.474 413.956C675.474 411.524 676.127 409.623 677.432 408.251C678.738 406.872 680.423 406.182 682.488 406.182C683.84 406.182 685.059 406.506 686.145 407.152C687.23 407.798 688.056 408.7 688.622 409.859C689.195 411.012 689.482 412.32 689.482 413.786C689.482 415.271 689.182 416.6 688.582 417.772C687.983 418.945 687.134 419.834 686.035 420.44C684.936 421.039 683.75 421.339 682.478 421.339C681.099 421.339 679.867 421.006 678.781 420.34C677.695 419.674 676.873 418.765 676.313 417.612C675.754 416.46 675.474 415.241 675.474 413.956ZM677.472 413.986C677.472 415.751 677.945 417.143 678.891 418.162C679.844 419.174 681.036 419.681 682.468 419.681C683.927 419.681 685.126 419.168 686.065 418.142C687.011 417.116 687.483 415.661 687.483 413.776C687.483 412.583 687.28 411.544 686.874 410.659C686.474 409.766 685.885 409.077 685.106 408.59C684.333 408.097 683.464 407.851 682.498 407.851C681.126 407.851 679.943 408.324 678.951 409.27C677.965 410.209 677.472 411.781 677.472 413.986Z" fill="black" stroke="black" stroke-width="0.173334"/>
<path d="M558.559 178.11L549.247 163.203L554.87 159.69C555.859 159.072 556.645 158.647 557.226 158.416C558.035 158.081 558.794 157.932 559.505 157.968C560.212 157.998 560.907 158.228 561.59 158.659C562.281 159.085 562.857 159.668 563.318 160.407C564.11 161.674 564.378 163.001 564.122 164.386C563.861 165.764 562.677 167.112 560.569 168.429L556.746 170.817L560.531 176.878L558.559 178.11ZM555.647 169.058L559.5 166.651C560.775 165.855 561.532 165.052 561.771 164.243C562.01 163.434 561.861 162.599 561.323 161.738C560.933 161.114 560.441 160.682 559.848 160.44C559.256 160.187 558.658 160.151 558.054 160.33C557.667 160.45 557.026 160.789 556.131 161.348L552.318 163.73L555.647 169.058Z" fill="black" stroke="black" stroke-width="0.173334"/>
<path d="M568.081 162.133C566.784 159.52 566.471 157.128 567.142 154.956C567.81 152.778 569.254 151.138 571.473 150.036C572.927 149.315 574.409 149.012 575.921 149.127C577.433 149.243 578.802 149.772 580.029 150.716C581.259 151.649 582.265 152.903 583.047 154.478C583.839 156.075 584.226 157.663 584.207 159.243C584.188 160.823 583.749 162.232 582.891 163.47C582.03 164.7 580.915 165.655 579.548 166.334C578.066 167.069 576.563 167.369 575.041 167.232C573.519 167.095 572.149 166.556 570.933 165.616C569.717 164.676 568.766 163.515 568.081 162.133ZM570.244 161.099C571.186 162.997 572.437 164.241 573.997 164.832C575.561 165.412 577.113 165.32 578.652 164.556C580.22 163.778 581.235 162.587 581.698 160.984C582.167 159.377 581.899 157.56 580.894 155.534C580.258 154.252 579.485 153.244 578.576 152.508C577.67 151.762 576.669 151.335 575.572 151.228C574.478 151.111 573.412 151.309 572.374 151.825C570.899 152.556 569.881 153.695 569.318 155.242C568.76 156.777 569.068 158.73 570.244 161.099Z" fill="black" stroke="black" stroke-width="0.173334"/>
<path d="M589.763 161.197L583.84 144.649L591.177 142.022C592.652 141.494 593.827 141.243 594.702 141.27C595.575 141.288 596.376 141.592 597.104 142.18C597.832 142.768 598.36 143.518 598.686 144.428C599.106 145.602 599.08 146.728 598.608 147.805C598.136 148.882 597.146 149.814 595.636 150.601C596.315 150.672 596.853 150.789 597.251 150.952C598.101 151.31 598.97 151.827 599.857 152.503L604.347 155.976L601.593 156.962L598.171 154.303C597.176 153.539 596.377 152.967 595.774 152.589C595.172 152.21 594.667 151.975 594.261 151.883C593.862 151.788 593.478 151.759 593.11 151.798C592.843 151.834 592.427 151.953 591.863 152.155L589.323 153.064L591.953 160.413L589.763 161.197ZM588.644 151.168L593.351 149.483C594.352 149.125 595.098 148.743 595.59 148.338C596.079 147.925 596.389 147.44 596.521 146.884C596.65 146.32 596.619 145.771 596.428 145.236C596.148 144.454 595.632 143.913 594.879 143.613C594.134 143.311 593.149 143.379 591.922 143.818L586.684 145.693L588.644 151.168Z" fill="black" stroke="black" stroke-width="0.173334"/>
<path d="M610.48 154.624L606.987 139.52L601.345 140.824L600.878 138.804L614.451 135.665L614.919 137.686L609.253 138.996L612.746 154.099L610.48 154.624Z" fill="black" stroke="black" stroke-width="0.173334"/>
<path d="M618.96 143.951C618.689 141.046 619.256 138.701 620.663 136.916C622.069 135.123 624.006 134.111 626.473 133.881C628.088 133.73 629.581 133.98 630.95 134.631C632.319 135.282 633.407 136.268 634.212 137.59C635.025 138.902 635.514 140.434 635.677 142.185C635.843 143.96 635.633 145.581 635.047 147.048C634.462 148.516 633.547 149.673 632.301 150.52C631.055 151.359 629.672 151.849 628.152 151.991C626.504 152.145 624.995 151.885 623.623 151.21C622.252 150.535 621.168 149.541 620.37 148.226C619.573 146.912 619.103 145.487 618.96 143.951ZM621.351 143.764C621.548 145.873 622.268 147.483 623.512 148.595C624.763 149.699 626.244 150.17 627.955 150.011C629.698 149.848 631.073 149.101 632.08 147.771C633.096 146.44 633.499 144.648 633.289 142.396C633.156 140.972 632.797 139.753 632.213 138.74C631.636 137.718 630.854 136.96 629.869 136.466C628.891 135.963 627.825 135.766 626.671 135.873C625.031 136.026 623.672 136.723 622.591 137.964C621.518 139.196 621.105 141.129 621.351 143.764Z" fill="black" stroke="black" stroke-width="0.173334"/>
<path d="M651.314 151.752L646.453 133.54L648.956 133.813L652.111 147.002C652.365 148.059 652.567 149.046 652.716 149.963C653.09 149.039 653.508 148.12 653.97 147.205L660.076 135.027L662.436 135.285L653.686 152.011L651.314 151.752Z" fill="black" stroke="black" stroke-width="0.173334"/>
<path d="M662.647 153.261L666.793 136.181L679.143 139.178L678.654 141.194L668.564 138.745L667.295 143.976L676.744 146.27L676.257 148.274L666.808 145.98L665.397 151.794L675.883 154.339L675.394 156.355L662.647 153.261Z" fill="black" stroke="black" stroke-width="0.173334"/>
<path d="M678.375 157.379L684.358 140.852L686.545 141.643L681.269 156.22L689.408 159.166L688.702 161.116L678.375 157.379Z" fill="black" stroke="black" stroke-width="0.173334"/>
<path d="M691.35 162.205L698.974 146.368L701.07 147.377L697.939 153.88L706.171 157.843L709.301 151.34L711.397 152.349L703.773 168.186L701.678 167.177L705.271 159.712L697.039 155.749L693.446 163.214L691.35 162.205Z" fill="black" stroke="black" stroke-width="0.173334"/>
<path d="M711.075 162.391C712.604 159.906 714.466 158.373 716.663 157.791C718.864 157.202 721.02 157.557 723.131 158.855C724.513 159.705 725.556 160.801 726.26 162.144C726.963 163.487 727.24 164.929 727.09 166.469C726.952 168.007 726.422 169.525 725.5 171.023C724.567 172.541 723.425 173.711 722.075 174.533C720.726 175.354 719.299 175.729 717.794 175.658C716.294 175.58 714.894 175.141 713.593 174.341C712.184 173.474 711.134 172.359 710.443 170.996C709.751 169.633 709.482 168.186 709.635 166.657C709.787 165.127 710.267 163.705 711.075 162.391ZM713.099 163.678C711.99 165.482 711.598 167.203 711.924 168.839C712.261 170.472 713.162 171.739 714.626 172.64C716.117 173.556 717.665 173.786 719.269 173.328C720.881 172.874 722.279 171.683 723.464 169.757C724.214 168.538 724.659 167.348 724.801 166.187C724.953 165.024 724.784 163.948 724.293 162.961C723.813 161.972 723.08 161.174 722.092 160.566C720.69 159.704 719.184 159.444 717.575 159.787C715.977 160.127 714.485 161.424 713.099 163.678Z" fill="black" stroke="black" stroke-width="0.173334"/>
<path d="M639.498 189.833L654.231 201.065L648.556 182.956L663.29 171.724H645.063L639.498 153.501L633.93 171.724H615.707L630.44 182.956L624.765 201.065L639.498 189.833Z" fill="#E3E4E5" stroke="black" stroke-width="0.346667" stroke-linejoin="round"/>
<path d="M639.497 179.747L663.288 171.724H645.061L639.497 179.747Z" fill="#E3E4E5" stroke="black" stroke-width="0.346667" stroke-linejoin="round"/>
<path d="M639.499 179.747V153.501L633.931 171.724L639.499 179.747Z" fill="#E3E4E5" stroke="black" stroke-width="0.346667" stroke-linejoin="round"/>
<path d="M639.498 179.747L615.707 171.724L630.44 182.956L639.498 179.747Z" fill="#E3E4E5" stroke="black" stroke-width="0.346667" stroke-linejoin="round"/>
<path d="M639.498 179.747L624.765 201.065L639.498 189.833V179.747Z" fill="#E3E4E5" stroke="black" stroke-width="0.346667" stroke-linejoin="round"/>
<path d="M639.497 179.747L654.23 201.065L648.555 182.956L639.497 179.747Z" fill="#E3E4E5" stroke="black" stroke-width="0.346667" stroke-linejoin="round"/>
<path d="M639.497 179.747V153.501L645.061 171.724L639.497 179.747Z" fill="#E3E4E5" stroke="black" stroke-width="0.346667" stroke-linejoin="round"/>
<path d="M639.498 179.747L615.707 171.724H633.93L639.498 179.747Z" fill="#E3E4E5" stroke="black" stroke-width="0.346667" stroke-linejoin="round"/>
<path d="M639.498 179.747L624.765 201.065L630.44 182.956L639.498 179.747Z" fill="#E3E4E5" stroke="black" stroke-width="0.346667" stroke-linejoin="round"/>
<path d="M639.497 179.747L654.23 201.065L639.497 189.833V179.747Z" fill="#E3E4E5" stroke="black" stroke-width="0.346667" stroke-linejoin="round"/>
<path d="M639.497 179.747L663.288 171.724L648.555 182.956L639.497 179.747Z" fill="#E3E4E5" stroke="black" stroke-width="0.346667" stroke-linejoin="round"/>
</svg>
