<svg width="1000" height="150" viewBox="0 0 1000 150" fill="none" xmlns="http://www.w3.org/2000/svg">
<g clip-path="url(#clip0_6871_155)">
<rect width="1000" height="150" rx="8" fill="#EDEDED"/>
<path d="M183.525 54.89C183.525 57.38 183.225 59.645 182.625 61.685C182.025 63.695 181.095 65.435 179.835 66.905C178.575 68.375 176.955 69.5 174.975 70.28C173.025 71.06 170.67 71.45 167.91 71.45C165.21 71.45 162.87 71.06 160.89 70.28C158.94 69.5 157.32 68.375 156.03 66.905C154.77 65.435 153.825 63.695 153.195 61.685C152.595 59.645 152.295 57.365 152.295 54.845C152.295 51.515 152.85 48.62 153.96 46.16C155.07 43.67 156.78 41.75 159.09 40.4C161.4 39.05 164.355 38.375 167.955 38.375C171.615 38.375 174.585 39.065 176.865 40.445C179.175 41.795 180.855 43.715 181.905 46.205C182.985 48.665 183.525 51.56 183.525 54.89ZM161.43 54.89C161.43 56.81 161.64 58.475 162.06 59.885C162.51 61.265 163.215 62.33 164.175 63.08C165.135 63.83 166.38 64.205 167.91 64.205C169.5 64.205 170.76 63.83 171.69 63.08C172.65 62.33 173.34 61.265 173.76 59.885C174.18 58.475 174.39 56.81 174.39 54.89C174.39 51.98 173.91 49.685 172.95 48.005C171.99 46.325 170.325 45.485 167.955 45.485C166.395 45.485 165.135 45.875 164.175 46.655C163.215 47.405 162.51 48.485 162.06 49.895C161.64 51.275 161.43 52.94 161.43 54.89ZM216.639 58.22C216.639 60.92 216.129 63.26 215.109 65.24C214.089 67.22 212.544 68.75 210.474 69.83C208.434 70.91 205.869 71.45 202.779 71.45C198.339 71.45 194.949 70.325 192.609 68.075C190.299 65.795 189.144 62.57 189.144 58.4V38.87H197.874V57.725C197.874 60.005 198.294 61.655 199.134 62.675C200.004 63.695 201.264 64.205 202.914 64.205C204.114 64.205 205.074 63.98 205.794 63.53C206.544 63.08 207.084 62.375 207.414 61.415C207.774 60.455 207.954 59.21 207.954 57.68V38.87H216.639V58.22ZM251.147 38.87L240.617 71H230.402L219.917 38.87H229.682L234.047 55.16C234.197 55.76 234.377 56.54 234.587 57.5C234.797 58.46 234.992 59.42 235.172 60.38C235.382 61.34 235.502 62.12 235.532 62.72C235.592 62.12 235.697 61.355 235.847 60.425C236.027 59.465 236.207 58.52 236.387 57.59C236.597 56.63 236.792 55.85 236.972 55.25L241.427 38.87H251.147ZM269.432 71H252.692V66.05L256.697 64.52V45.305L252.692 43.82V38.87H269.432V43.82L265.427 45.305V64.52L269.432 66.05V71ZM301.716 54.26C301.716 57.98 301.011 61.085 299.601 63.575C298.221 66.065 296.271 67.925 293.751 69.155C291.231 70.385 288.261 71 284.841 71H274.446V38.87H285.561C289.011 38.87 291.936 39.47 294.336 40.67C296.736 41.84 298.566 43.565 299.826 45.845C301.086 48.125 301.716 50.93 301.716 54.26ZM292.716 54.575C292.716 52.625 292.446 51.005 291.906 49.715C291.396 48.425 290.616 47.465 289.566 46.835C288.546 46.205 287.241 45.89 285.651 45.89H283.131V63.89H285.066C287.706 63.89 289.641 63.125 290.871 61.595C292.101 60.065 292.716 57.725 292.716 54.575ZM337.553 54.89C337.553 57.38 337.253 59.645 336.653 61.685C336.053 63.695 335.123 65.435 333.863 66.905C332.603 68.375 330.983 69.5 329.003 70.28C327.053 71.06 324.698 71.45 321.938 71.45C319.238 71.45 316.898 71.06 314.918 70.28C312.968 69.5 311.348 68.375 310.058 66.905C308.798 65.435 307.853 63.695 307.223 61.685C306.623 59.645 306.323 57.365 306.323 54.845C306.323 51.515 306.878 48.62 307.988 46.16C309.098 43.67 310.808 41.75 313.118 40.4C315.428 39.05 318.383 38.375 321.983 38.375C325.643 38.375 328.613 39.065 330.893 40.445C333.203 41.795 334.883 43.715 335.933 46.205C337.013 48.665 337.553 51.56 337.553 54.89ZM315.458 54.89C315.458 56.81 315.668 58.475 316.088 59.885C316.538 61.265 317.243 62.33 318.203 63.08C319.163 63.83 320.408 64.205 321.938 64.205C323.528 64.205 324.788 63.83 325.718 63.08C326.678 62.33 327.368 61.265 327.788 59.885C328.208 58.475 328.418 56.81 328.418 54.89C328.418 51.98 327.938 49.685 326.978 48.005C326.018 46.325 324.353 45.485 321.983 45.485C320.423 45.485 319.163 45.875 318.203 46.655C317.243 47.405 316.538 48.485 316.088 49.895C315.668 51.275 315.458 52.94 315.458 54.89ZM353.883 38.87C356.793 38.87 359.208 39.23 361.128 39.95C363.078 40.67 364.533 41.735 365.493 43.145C366.483 44.525 366.978 46.265 366.978 48.365C366.978 49.655 366.753 50.84 366.303 51.92C365.883 53 365.268 53.96 364.458 54.8C363.648 55.64 362.673 56.375 361.533 57.005L370.893 71H361.038L354.243 59.3H352.038V71H343.353V38.87H353.883ZM353.748 45.44H352.038V52.775H353.658C354.558 52.775 355.338 52.655 355.998 52.415C356.688 52.145 357.228 51.725 357.618 51.155C358.008 50.555 358.203 49.76 358.203 48.77C358.203 48.08 358.053 47.495 357.753 47.015C357.453 46.505 356.973 46.115 356.313 45.845C355.653 45.575 354.798 45.44 353.748 45.44ZM388.612 71H371.872V66.05L375.877 64.52V45.305L371.872 43.82V38.87H388.612V43.82L384.607 45.305V64.52L388.612 66.05V71ZM413.336 71L411.761 64.97H401.321L399.701 71H390.161L400.646 38.735H412.211L422.831 71H413.336ZM408.566 52.595C408.416 52.025 408.206 51.215 407.936 50.165C407.666 49.085 407.396 47.975 407.126 46.835C406.856 45.695 406.646 44.765 406.496 44.045C406.376 44.765 406.181 45.665 405.911 46.745C405.671 47.825 405.416 48.89 405.146 49.94C404.906 50.99 404.696 51.875 404.516 52.595L403.121 57.86H409.961L408.566 52.595ZM162.704 99.288C161.659 99.288 160.731 99.48 159.92 99.864C159.109 100.248 158.416 100.803 157.84 101.528C157.285 102.253 156.859 103.128 156.56 104.152C156.283 105.176 156.144 106.328 156.144 107.608C156.144 109.336 156.379 110.819 156.848 112.056C157.317 113.272 158.032 114.211 158.992 114.872C159.973 115.533 161.2 115.864 162.672 115.864C163.653 115.864 164.592 115.768 165.488 115.576C166.405 115.363 167.365 115.085 168.368 114.744V118.232C167.429 118.616 166.48 118.893 165.52 119.064C164.581 119.235 163.493 119.32 162.256 119.32C159.909 119.32 157.968 118.84 156.432 117.88C154.896 116.899 153.755 115.533 153.008 113.784C152.261 112.013 151.888 109.944 151.888 107.576C151.888 105.848 152.123 104.269 152.592 102.84C153.083 101.411 153.776 100.173 154.672 99.128C155.589 98.0827 156.72 97.272 158.064 96.696C159.408 96.12 160.955 95.832 162.704 95.832C163.856 95.832 164.987 95.9707 166.096 96.248C167.227 96.504 168.283 96.8667 169.264 97.336L167.856 100.696C167.045 100.333 166.203 100.013 165.328 99.736C164.475 99.4373 163.6 99.288 162.704 99.288ZM173.289 119V96.152H177.385V115.544H186.921V119H173.289ZM198.626 119H189.026V116.664L191.778 115.64V99.544L189.026 98.488V96.152H198.626V98.488L195.874 99.544V115.64L198.626 116.664V119ZM223.142 107.544C223.142 109.315 222.918 110.925 222.47 112.376C222.043 113.805 221.382 115.043 220.486 116.088C219.611 117.133 218.491 117.923 217.126 118.456L222.63 124.44H217.19L212.934 119.32C212.849 119.32 212.753 119.32 212.646 119.32C212.561 119.32 212.475 119.32 212.39 119.32C210.555 119.32 208.955 119.043 207.59 118.488C206.246 117.912 205.137 117.112 204.262 116.088C203.387 115.043 202.726 113.795 202.278 112.344C201.851 110.893 201.638 109.283 201.638 107.512C201.638 105.144 202.022 103.085 202.79 101.336C203.579 99.5867 204.763 98.232 206.342 97.272C207.942 96.2907 209.969 95.8 212.422 95.8C214.833 95.8 216.827 96.2907 218.406 97.272C219.985 98.232 221.169 99.5973 221.958 101.368C222.747 103.117 223.142 105.176 223.142 107.544ZM205.958 107.544C205.958 109.272 206.182 110.755 206.63 111.992C207.099 113.229 207.803 114.179 208.742 114.84C209.702 115.501 210.918 115.832 212.39 115.832C213.905 115.832 215.131 115.501 216.07 114.84C217.009 114.179 217.702 113.229 218.15 111.992C218.598 110.755 218.822 109.272 218.822 107.544C218.822 104.963 218.321 102.936 217.318 101.464C216.315 99.992 214.683 99.256 212.422 99.256C210.929 99.256 209.702 99.5867 208.742 100.248C207.803 100.909 207.099 101.859 206.63 103.096C206.182 104.333 205.958 105.816 205.958 107.544ZM246.119 110.936C246.119 112.515 245.778 113.944 245.095 115.224C244.434 116.483 243.421 117.485 242.055 118.232C240.69 118.957 238.962 119.32 236.871 119.32C233.906 119.32 231.655 118.552 230.119 117.016C228.583 115.459 227.815 113.411 227.815 110.872V96.152H231.911V110.456C231.911 112.312 232.338 113.677 233.191 114.552C234.045 115.405 235.314 115.832 236.999 115.832C238.194 115.832 239.154 115.629 239.879 115.224C240.626 114.819 241.17 114.211 241.511 113.4C241.874 112.568 242.055 111.576 242.055 110.424V96.152H246.119V110.936ZM264.906 119H251.914V96.152H264.906V99.576H256.01V105.4H264.33V108.824H256.01V115.544H264.906V119ZM291.062 119H278.07V96.152H291.062V99.576H282.166V105.4H290.486V108.824H282.166V115.544H291.062V119ZM313.954 99.288C312.909 99.288 311.981 99.48 311.17 99.864C310.359 100.248 309.666 100.803 309.09 101.528C308.535 102.253 308.109 103.128 307.81 104.152C307.533 105.176 307.394 106.328 307.394 107.608C307.394 109.336 307.629 110.819 308.098 112.056C308.567 113.272 309.282 114.211 310.242 114.872C311.223 115.533 312.45 115.864 313.922 115.864C314.903 115.864 315.842 115.768 316.738 115.576C317.655 115.363 318.615 115.085 319.618 114.744V118.232C318.679 118.616 317.73 118.893 316.77 119.064C315.831 119.235 314.743 119.32 313.506 119.32C311.159 119.32 309.218 118.84 307.682 117.88C306.146 116.899 305.005 115.533 304.258 113.784C303.511 112.013 303.138 109.944 303.138 107.576C303.138 105.848 303.373 104.269 303.842 102.84C304.333 101.411 305.026 100.173 305.922 99.128C306.839 98.0827 307.97 97.272 309.314 96.696C310.658 96.12 312.205 95.832 313.954 95.832C315.106 95.832 316.237 95.9707 317.346 96.248C318.477 96.504 319.533 96.8667 320.514 97.336L319.106 100.696C318.295 100.333 317.453 100.013 316.578 99.736C315.725 99.4373 314.85 99.288 313.954 99.288ZM344.33 107.544C344.33 109.315 344.106 110.925 343.658 112.376C343.231 113.805 342.57 115.043 341.674 116.088C340.799 117.133 339.679 117.933 338.314 118.488C336.97 119.043 335.391 119.32 333.578 119.32C331.743 119.32 330.143 119.043 328.778 118.488C327.434 117.912 326.324 117.112 325.45 116.088C324.575 115.043 323.914 113.795 323.466 112.344C323.039 110.893 322.826 109.283 322.826 107.512C322.826 105.144 323.21 103.085 323.978 101.336C324.767 99.5867 325.951 98.232 327.53 97.272C329.13 96.2907 331.156 95.8 333.61 95.8C336.02 95.8 338.015 96.2907 339.594 97.272C341.172 98.232 342.356 99.5973 343.146 101.368C343.935 103.117 344.33 105.176 344.33 107.544ZM327.146 107.544C327.146 109.272 327.37 110.755 327.818 111.992C328.287 113.229 328.991 114.179 329.93 114.84C330.89 115.501 332.106 115.832 333.578 115.832C335.092 115.832 336.319 115.501 337.258 114.84C338.196 114.179 338.89 113.229 339.338 111.992C339.786 110.755 340.01 109.272 340.01 107.544C340.01 104.963 339.508 102.936 338.506 101.464C337.503 99.992 335.871 99.256 333.61 99.256C332.116 99.256 330.89 99.5867 329.93 100.248C328.991 100.909 328.287 101.859 327.818 103.096C327.37 104.333 327.146 105.816 327.146 107.544ZM368.619 119H363.531L352.715 101.08H352.587C352.608 101.549 352.629 102.051 352.651 102.584C352.693 103.096 352.725 103.629 352.747 104.184C352.768 104.717 352.789 105.261 352.811 105.816C352.832 106.371 352.853 106.925 352.875 107.48V119H349.195V96.152H354.251L365.035 113.944H365.131C365.109 113.517 365.088 113.059 365.067 112.568C365.045 112.056 365.024 111.533 365.003 111C365.003 110.467 364.992 109.923 364.971 109.368C364.949 108.813 364.928 108.28 364.907 107.768V96.152H368.619V119ZM378.602 119H374.57V96.152H387.53V99.576H378.602V106.296H386.922V109.72H378.602V119ZM399.533 119H389.933V116.664L392.685 115.64V99.544L389.933 98.488V96.152H399.533V98.488L396.781 99.544V115.64L399.533 116.664V119ZM410.128 96.152C412.134 96.152 413.787 96.3973 415.088 96.888C416.39 97.3787 417.36 98.1253 418 99.128C418.64 100.109 418.96 101.357 418.96 102.872C418.96 103.981 418.747 104.931 418.32 105.72C417.915 106.509 417.382 107.171 416.72 107.704C416.059 108.216 415.344 108.632 414.576 108.952L421.136 119H416.528L411.056 109.976H407.728V119H403.632V96.152H410.128ZM409.872 99.576H407.728V106.616H410C411.131 106.616 412.048 106.477 412.752 106.2C413.456 105.923 413.968 105.517 414.288 104.984C414.63 104.451 414.8 103.789 414.8 103C414.8 102.168 414.619 101.507 414.256 101.016C413.894 100.504 413.35 100.141 412.624 99.928C411.92 99.6933 411.003 99.576 409.872 99.576ZM438.432 119L436.352 112.952H427.744L425.696 119H421.344L429.728 96.056H434.4L442.784 119H438.432ZM433.312 103.544C433.226 103.245 433.098 102.84 432.928 102.328C432.757 101.816 432.586 101.293 432.416 100.76C432.266 100.205 432.149 99.7467 432.064 99.384C431.957 99.8107 431.818 100.301 431.648 100.856C431.498 101.411 431.349 101.933 431.2 102.424C431.072 102.915 430.965 103.288 430.88 103.544L428.864 109.432H435.296L433.312 103.544Z" fill="#004680"/>
</g>
<defs>
<clipPath id="clip0_6871_155">
<rect width="1000" height="150" fill="white"/>
</clipPath>
</defs>
</svg>
