<svg width="1000" height="150" viewBox="0 0 1000 150" fill="none" xmlns="http://www.w3.org/2000/svg">
<g clip-path="url(#clip0_6871_165)">
<rect width="1000" height="150" rx="8" fill="#EDEDED"/>
<path d="M165.552 38.728C169.904 38.728 173.152 39.672 175.296 41.56C177.472 43.448 178.56 46.136 178.56 49.624C178.56 51.192 178.336 52.696 177.888 54.136C177.44 55.544 176.704 56.824 175.68 57.976C174.688 59.096 173.36 59.992 171.696 60.664C170.032 61.304 167.984 61.624 165.552 61.624H162.96V73H153.696V38.728H165.552ZM165.36 46.216H162.96V54.088H164.784C165.584 54.088 166.32 53.96 166.992 53.704C167.696 53.416 168.256 52.968 168.672 52.36C169.088 51.72 169.296 50.888 169.296 49.864C169.296 48.776 168.976 47.896 168.336 47.224C167.696 46.552 166.704 46.216 165.36 46.216ZM216.088 55.816C216.088 58.472 215.768 60.888 215.128 63.064C214.488 65.208 213.496 67.064 212.152 68.632C210.808 70.2 209.08 71.4 206.968 72.232C204.888 73.064 202.376 73.48 199.432 73.48C196.552 73.48 194.056 73.064 191.944 72.232C189.864 71.4 188.136 70.2 186.76 68.632C185.416 67.064 184.408 65.208 183.736 63.064C183.096 60.888 182.776 58.456 182.776 55.768C182.776 52.216 183.368 49.128 184.552 46.504C185.736 43.848 187.56 41.8 190.024 40.36C192.488 38.92 195.64 38.2 199.48 38.2C203.384 38.2 206.552 38.936 208.984 40.408C211.448 41.848 213.24 43.896 214.36 46.552C215.512 49.176 216.088 52.264 216.088 55.816ZM192.52 55.816C192.52 57.864 192.744 59.64 193.192 61.144C193.672 62.616 194.424 63.752 195.448 64.552C196.472 65.352 197.8 65.752 199.432 65.752C201.128 65.752 202.472 65.352 203.464 64.552C204.488 63.752 205.224 62.616 205.672 61.144C206.12 59.64 206.344 57.864 206.344 55.816C206.344 52.712 205.832 50.264 204.808 48.472C203.784 46.68 202.008 45.784 199.48 45.784C197.816 45.784 196.472 46.2 195.448 47.032C194.424 47.832 193.672 48.984 193.192 50.488C192.744 51.96 192.52 53.736 192.52 55.816ZM233.506 38.728C236.61 38.728 239.186 39.112 241.234 39.88C243.314 40.648 244.866 41.784 245.89 43.288C246.946 44.76 247.474 46.616 247.474 48.856C247.474 50.232 247.234 51.496 246.754 52.648C246.306 53.8 245.65 54.824 244.786 55.72C243.922 56.616 242.882 57.4 241.666 58.072L251.65 73H241.138L233.89 60.52H231.538V73H222.274V38.728H233.506ZM233.362 45.736H231.538V53.56H233.266C234.226 53.56 235.058 53.432 235.762 53.176C236.498 52.888 237.074 52.44 237.49 51.832C237.906 51.192 238.114 50.344 238.114 49.288C238.114 48.552 237.954 47.928 237.634 47.416C237.314 46.872 236.802 46.456 236.098 46.168C235.394 45.88 234.482 45.736 233.362 45.736ZM269.879 73H260.615V46.312H252.263V38.728H278.231V46.312H269.879V73ZM300.767 73L299.087 66.568H287.951L286.223 73H276.047L287.231 38.584H299.567L310.895 73H300.767ZM295.679 53.368C295.519 52.76 295.295 51.896 295.007 50.776C294.719 49.624 294.431 48.44 294.143 47.224C293.855 46.008 293.631 45.016 293.471 44.248C293.343 45.016 293.135 45.976 292.847 47.128C292.591 48.28 292.319 49.416 292.031 50.536C291.775 51.656 291.551 52.6 291.359 53.368L289.871 58.984H297.167L295.679 53.368ZM314.571 73V38.728H323.835V65.512H337.035V73H314.571ZM384.065 55.144C384.065 59.112 383.313 62.424 381.809 65.08C380.337 67.736 378.257 69.72 375.569 71.032C372.881 72.344 369.713 73 366.065 73H354.977V38.728H366.833C370.513 38.728 373.633 39.368 376.193 40.648C378.753 41.896 380.705 43.736 382.049 46.168C383.393 48.6 384.065 51.592 384.065 55.144ZM374.465 55.48C374.465 53.4 374.177 51.672 373.601 50.296C373.057 48.92 372.225 47.896 371.105 47.224C370.017 46.552 368.625 46.216 366.929 46.216H364.241V65.416H366.305C369.121 65.416 371.185 64.6 372.497 62.968C373.809 61.336 374.465 58.84 374.465 55.48ZM422.291 55.816C422.291 58.472 421.971 60.888 421.331 63.064C420.691 65.208 419.699 67.064 418.355 68.632C417.011 70.2 415.283 71.4 413.171 72.232C411.091 73.064 408.579 73.48 405.635 73.48C402.755 73.48 400.259 73.064 398.147 72.232C396.067 71.4 394.339 70.2 392.963 68.632C391.619 67.064 390.611 65.208 389.939 63.064C389.299 60.888 388.979 58.456 388.979 55.768C388.979 52.216 389.571 49.128 390.755 46.504C391.939 43.848 393.763 41.8 396.227 40.36C398.691 38.92 401.843 38.2 405.683 38.2C409.587 38.2 412.755 38.936 415.187 40.408C417.651 41.848 419.443 43.896 420.563 46.552C421.715 49.176 422.291 52.264 422.291 55.816ZM398.723 55.816C398.723 57.864 398.947 59.64 399.395 61.144C399.875 62.616 400.627 63.752 401.651 64.552C402.675 65.352 404.003 65.752 405.635 65.752C407.331 65.752 408.675 65.352 409.667 64.552C410.691 63.752 411.427 62.616 411.875 61.144C412.323 59.64 412.547 57.864 412.547 55.816C412.547 52.712 412.035 50.264 411.011 48.472C409.987 46.68 408.211 45.784 405.683 45.784C404.019 45.784 402.675 46.2 401.651 47.032C400.627 47.832 399.875 48.984 399.395 50.488C398.947 51.96 398.723 53.736 398.723 55.816ZM463.362 62.584C463.362 64.44 462.882 66.2 461.922 67.864C460.994 69.528 459.538 70.888 457.554 71.944C455.602 72.968 453.058 73.48 449.922 73.48C448.354 73.48 446.978 73.4 445.794 73.24C444.642 73.112 443.554 72.888 442.53 72.568C441.506 72.248 440.45 71.832 439.362 71.32V63.064C441.218 63.992 443.09 64.712 444.978 65.224C446.866 65.704 448.578 65.944 450.114 65.944C451.042 65.944 451.794 65.832 452.37 65.608C452.946 65.384 453.378 65.08 453.666 64.696C453.954 64.312 454.098 63.88 454.098 63.4C454.098 62.792 453.89 62.28 453.474 61.864C453.058 61.448 452.402 61.016 451.506 60.568C450.61 60.12 449.41 59.56 447.906 58.888C446.626 58.312 445.474 57.704 444.45 57.064C443.426 56.424 442.546 55.704 441.81 54.904C441.106 54.104 440.562 53.176 440.178 52.12C439.794 51.032 439.602 49.752 439.602 48.28C439.602 46.072 440.146 44.232 441.234 42.76C442.322 41.256 443.826 40.136 445.746 39.4C447.698 38.632 449.954 38.248 452.514 38.248C454.754 38.248 456.77 38.504 458.562 39.016C460.354 39.496 461.954 40.056 463.362 40.696L460.53 47.848C459.058 47.176 457.602 46.648 456.162 46.264C454.754 45.848 453.442 45.64 452.226 45.64C451.426 45.64 450.77 45.736 450.258 45.928C449.746 46.12 449.362 46.392 449.106 46.744C448.882 47.064 448.77 47.432 448.77 47.848C448.77 48.392 448.978 48.872 449.394 49.288C449.81 49.704 450.498 50.168 451.458 50.68C452.45 51.16 453.794 51.784 455.49 52.552C457.154 53.288 458.562 54.104 459.714 55C460.898 55.864 461.794 56.904 462.402 58.12C463.042 59.304 463.362 60.792 463.362 62.584ZM489.001 73H468.649V38.728H489.001V46.168H477.913V51.544H488.185V58.984H477.913V65.464H489.001V73ZM506.225 38.728C509.329 38.728 511.905 39.112 513.953 39.88C516.033 40.648 517.585 41.784 518.609 43.288C519.665 44.76 520.193 46.616 520.193 48.856C520.193 50.232 519.953 51.496 519.473 52.648C519.025 53.8 518.369 54.824 517.505 55.72C516.641 56.616 515.601 57.4 514.385 58.072L524.369 73H513.857L506.609 60.52H504.257V73H494.993V38.728H506.225ZM506.081 45.736H504.257V53.56H505.985C506.945 53.56 507.777 53.432 508.481 53.176C509.217 52.888 509.793 52.44 510.209 51.832C510.625 51.192 510.833 50.344 510.833 49.288C510.833 48.552 510.673 47.928 510.353 47.416C510.033 46.872 509.521 46.456 508.817 46.168C508.113 45.88 507.201 45.736 506.081 45.736ZM557.093 38.728L545.861 73H534.965L523.781 38.728H534.197L538.853 56.104C539.013 56.744 539.205 57.576 539.429 58.6C539.653 59.624 539.861 60.648 540.053 61.672C540.277 62.696 540.405 63.528 540.437 64.168C540.501 63.528 540.613 62.712 540.773 61.72C540.965 60.696 541.157 59.688 541.349 58.696C541.573 57.672 541.781 56.84 541.973 56.2L546.725 38.728H557.093ZM576.597 73H558.741V67.72L563.013 66.088V45.592L558.741 44.008V38.728H576.597V44.008L572.325 45.592V66.088L576.597 67.72V73ZM611.034 55.144C611.034 59.112 610.282 62.424 608.778 65.08C607.306 67.736 605.226 69.72 602.538 71.032C599.85 72.344 596.682 73 593.034 73H581.946V38.728H593.802C597.482 38.728 600.602 39.368 603.162 40.648C605.722 41.896 607.674 43.736 609.018 46.168C610.362 48.6 611.034 51.592 611.034 55.144ZM601.434 55.48C601.434 53.4 601.146 51.672 600.57 50.296C600.026 48.92 599.194 47.896 598.074 47.224C596.986 46.552 595.594 46.216 593.898 46.216H591.21V65.416H593.274C596.09 65.416 598.154 64.6 599.466 62.968C600.778 61.336 601.434 58.84 601.434 55.48ZM649.26 55.816C649.26 58.472 648.94 60.888 648.3 63.064C647.66 65.208 646.668 67.064 645.324 68.632C643.98 70.2 642.252 71.4 640.14 72.232C638.06 73.064 635.548 73.48 632.604 73.48C629.724 73.48 627.228 73.064 625.116 72.232C623.036 71.4 621.308 70.2 619.932 68.632C618.588 67.064 617.58 65.208 616.908 63.064C616.268 60.888 615.948 58.456 615.948 55.768C615.948 52.216 616.54 49.128 617.724 46.504C618.908 43.848 620.732 41.8 623.196 40.36C625.66 38.92 628.812 38.2 632.652 38.2C636.556 38.2 639.724 38.936 642.156 40.408C644.62 41.848 646.412 43.896 647.532 46.552C648.684 49.176 649.26 52.264 649.26 55.816ZM625.692 55.816C625.692 57.864 625.916 59.64 626.364 61.144C626.844 62.616 627.596 63.752 628.62 64.552C629.644 65.352 630.972 65.752 632.604 65.752C634.3 65.752 635.644 65.352 636.636 64.552C637.66 63.752 638.396 62.616 638.844 61.144C639.292 59.64 639.516 57.864 639.516 55.816C639.516 52.712 639.004 50.264 637.98 48.472C636.956 46.68 635.18 45.784 632.652 45.784C630.988 45.784 629.644 46.2 628.62 47.032C627.596 47.832 626.844 48.984 626.364 50.488C625.916 51.96 625.692 53.736 625.692 55.816ZM666.678 38.728C669.782 38.728 672.358 39.112 674.406 39.88C676.486 40.648 678.038 41.784 679.062 43.288C680.118 44.76 680.646 46.616 680.646 48.856C680.646 50.232 680.406 51.496 679.926 52.648C679.478 53.8 678.822 54.824 677.958 55.72C677.094 56.616 676.054 57.4 674.838 58.072L684.822 73H674.31L667.062 60.52H664.71V73H655.446V38.728H666.678ZM666.534 45.736H664.71V53.56H666.438C667.398 53.56 668.23 53.432 668.934 53.176C669.67 52.888 670.246 52.44 670.662 51.832C671.078 51.192 671.286 50.344 671.286 49.288C671.286 48.552 671.126 47.928 670.806 47.416C670.486 46.872 669.974 46.456 669.27 46.168C668.566 45.88 667.654 45.736 666.534 45.736ZM162.704 101.288C161.659 101.288 160.731 101.48 159.92 101.864C159.109 102.248 158.416 102.803 157.84 103.528C157.285 104.253 156.859 105.128 156.56 106.152C156.283 107.176 156.144 108.328 156.144 109.608C156.144 111.336 156.379 112.819 156.848 114.056C157.317 115.272 158.032 116.211 158.992 116.872C159.973 117.533 161.2 117.864 162.672 117.864C163.653 117.864 164.592 117.768 165.488 117.576C166.405 117.363 167.365 117.085 168.368 116.744V120.232C167.429 120.616 166.48 120.893 165.52 121.064C164.581 121.235 163.493 121.32 162.256 121.32C159.909 121.32 157.968 120.84 156.432 119.88C154.896 118.899 153.755 117.533 153.008 115.784C152.261 114.013 151.888 111.944 151.888 109.576C151.888 107.848 152.123 106.269 152.592 104.84C153.083 103.411 153.776 102.173 154.672 101.128C155.589 100.083 156.72 99.272 158.064 98.696C159.408 98.12 160.955 97.832 162.704 97.832C163.856 97.832 164.987 97.9707 166.096 98.248C167.227 98.504 168.283 98.8667 169.264 99.336L167.856 102.696C167.045 102.333 166.203 102.013 165.328 101.736C164.475 101.437 163.6 101.288 162.704 101.288ZM173.289 121V98.152H177.385V117.544H186.921V121H173.289ZM198.626 121H189.026V118.664L191.778 117.64V101.544L189.026 100.488V98.152H198.626V100.488L195.874 101.544V117.64L198.626 118.664V121ZM223.142 109.544C223.142 111.315 222.918 112.925 222.47 114.376C222.043 115.805 221.382 117.043 220.486 118.088C219.611 119.133 218.491 119.923 217.126 120.456L222.63 126.44H217.19L212.934 121.32C212.849 121.32 212.753 121.32 212.646 121.32C212.561 121.32 212.475 121.32 212.39 121.32C210.555 121.32 208.955 121.043 207.59 120.488C206.246 119.912 205.137 119.112 204.262 118.088C203.387 117.043 202.726 115.795 202.278 114.344C201.851 112.893 201.638 111.283 201.638 109.512C201.638 107.144 202.022 105.085 202.79 103.336C203.579 101.587 204.763 100.232 206.342 99.272C207.942 98.2907 209.969 97.8 212.422 97.8C214.833 97.8 216.827 98.2907 218.406 99.272C219.985 100.232 221.169 101.597 221.958 103.368C222.747 105.117 223.142 107.176 223.142 109.544ZM205.958 109.544C205.958 111.272 206.182 112.755 206.63 113.992C207.099 115.229 207.803 116.179 208.742 116.84C209.702 117.501 210.918 117.832 212.39 117.832C213.905 117.832 215.131 117.501 216.07 116.84C217.009 116.179 217.702 115.229 218.15 113.992C218.598 112.755 218.822 111.272 218.822 109.544C218.822 106.963 218.321 104.936 217.318 103.464C216.315 101.992 214.683 101.256 212.422 101.256C210.929 101.256 209.702 101.587 208.742 102.248C207.803 102.909 207.099 103.859 206.63 105.096C206.182 106.333 205.958 107.816 205.958 109.544ZM246.119 112.936C246.119 114.515 245.778 115.944 245.095 117.224C244.434 118.483 243.421 119.485 242.055 120.232C240.69 120.957 238.962 121.32 236.871 121.32C233.906 121.32 231.655 120.552 230.119 119.016C228.583 117.459 227.815 115.411 227.815 112.872V98.152H231.911V112.456C231.911 114.312 232.338 115.677 233.191 116.552C234.045 117.405 235.314 117.832 236.999 117.832C238.194 117.832 239.154 117.629 239.879 117.224C240.626 116.819 241.17 116.211 241.511 115.4C241.874 114.568 242.055 113.576 242.055 112.424V98.152H246.119V112.936ZM264.906 121H251.914V98.152H264.906V101.576H256.01V107.4H264.33V110.824H256.01V117.544H264.906V121ZM291.062 121H278.07V98.152H291.062V101.576H282.166V107.4H290.486V110.824H282.166V117.544H291.062V121ZM313.954 101.288C312.909 101.288 311.981 101.48 311.17 101.864C310.359 102.248 309.666 102.803 309.09 103.528C308.535 104.253 308.109 105.128 307.81 106.152C307.533 107.176 307.394 108.328 307.394 109.608C307.394 111.336 307.629 112.819 308.098 114.056C308.567 115.272 309.282 116.211 310.242 116.872C311.223 117.533 312.45 117.864 313.922 117.864C314.903 117.864 315.842 117.768 316.738 117.576C317.655 117.363 318.615 117.085 319.618 116.744V120.232C318.679 120.616 317.73 120.893 316.77 121.064C315.831 121.235 314.743 121.32 313.506 121.32C311.159 121.32 309.218 120.84 307.682 119.88C306.146 118.899 305.005 117.533 304.258 115.784C303.511 114.013 303.138 111.944 303.138 109.576C303.138 107.848 303.373 106.269 303.842 104.84C304.333 103.411 305.026 102.173 305.922 101.128C306.839 100.083 307.97 99.272 309.314 98.696C310.658 98.12 312.205 97.832 313.954 97.832C315.106 97.832 316.237 97.9707 317.346 98.248C318.477 98.504 319.533 98.8667 320.514 99.336L319.106 102.696C318.295 102.333 317.453 102.013 316.578 101.736C315.725 101.437 314.85 101.288 313.954 101.288ZM344.33 109.544C344.33 111.315 344.106 112.925 343.658 114.376C343.231 115.805 342.57 117.043 341.674 118.088C340.799 119.133 339.679 119.933 338.314 120.488C336.97 121.043 335.391 121.32 333.578 121.32C331.743 121.32 330.143 121.043 328.778 120.488C327.434 119.912 326.324 119.112 325.45 118.088C324.575 117.043 323.914 115.795 323.466 114.344C323.039 112.893 322.826 111.283 322.826 109.512C322.826 107.144 323.21 105.085 323.978 103.336C324.767 101.587 325.951 100.232 327.53 99.272C329.13 98.2907 331.156 97.8 333.61 97.8C336.02 97.8 338.015 98.2907 339.594 99.272C341.172 100.232 342.356 101.597 343.146 103.368C343.935 105.117 344.33 107.176 344.33 109.544ZM327.146 109.544C327.146 111.272 327.37 112.755 327.818 113.992C328.287 115.229 328.991 116.179 329.93 116.84C330.89 117.501 332.106 117.832 333.578 117.832C335.092 117.832 336.319 117.501 337.258 116.84C338.196 116.179 338.89 115.229 339.338 113.992C339.786 112.755 340.01 111.272 340.01 109.544C340.01 106.963 339.508 104.936 338.506 103.464C337.503 101.992 335.871 101.256 333.61 101.256C332.116 101.256 330.89 101.587 329.93 102.248C328.991 102.909 328.287 103.859 327.818 105.096C327.37 106.333 327.146 107.816 327.146 109.544ZM368.619 121H363.531L352.715 103.08H352.587C352.608 103.549 352.629 104.051 352.651 104.584C352.693 105.096 352.725 105.629 352.747 106.184C352.768 106.717 352.789 107.261 352.811 107.816C352.832 108.371 352.853 108.925 352.875 109.48V121H349.195V98.152H354.251L365.035 115.944H365.131C365.109 115.517 365.088 115.059 365.067 114.568C365.045 114.056 365.024 113.533 365.003 113C365.003 112.467 364.992 111.923 364.971 111.368C364.949 110.813 364.928 110.28 364.907 109.768V98.152H368.619V121ZM378.602 121H374.57V98.152H387.53V101.576H378.602V108.296H386.922V111.72H378.602V121ZM399.533 121H389.933V118.664L392.685 117.64V101.544L389.933 100.488V98.152H399.533V100.488L396.781 101.544V117.64L399.533 118.664V121ZM410.128 98.152C412.134 98.152 413.787 98.3973 415.088 98.888C416.39 99.3787 417.36 100.125 418 101.128C418.64 102.109 418.96 103.357 418.96 104.872C418.96 105.981 418.747 106.931 418.32 107.72C417.915 108.509 417.382 109.171 416.72 109.704C416.059 110.216 415.344 110.632 414.576 110.952L421.136 121H416.528L411.056 111.976H407.728V121H403.632V98.152H410.128ZM409.872 101.576H407.728V108.616H410C411.131 108.616 412.048 108.477 412.752 108.2C413.456 107.923 413.968 107.517 414.288 106.984C414.63 106.451 414.8 105.789 414.8 105C414.8 104.168 414.619 103.507 414.256 103.016C413.894 102.504 413.35 102.141 412.624 101.928C411.92 101.693 411.003 101.576 409.872 101.576ZM438.432 121L436.352 114.952H427.744L425.696 121H421.344L429.728 98.056H434.4L442.784 121H438.432ZM433.312 105.544C433.226 105.245 433.098 104.84 432.928 104.328C432.757 103.816 432.586 103.293 432.416 102.76C432.266 102.205 432.149 101.747 432.064 101.384C431.957 101.811 431.818 102.301 431.648 102.856C431.498 103.411 431.349 103.933 431.2 104.424C431.072 104.915 430.965 105.288 430.88 105.544L428.864 111.432H435.296L433.312 105.544Z" fill="#004680"/>
</g>
<defs>
<clipPath id="clip0_6871_165">
<rect width="1000" height="150" fill="white"/>
</clipPath>
</defs>
</svg>
