<svg width="1000" height="150" viewBox="0 0 1000 150" fill="none" xmlns="http://www.w3.org/2000/svg">
<rect width="1000" height="150" rx="8" fill="#EDEDED"/>
<path d="M165.552 38.728C169.904 38.728 173.152 39.672 175.296 41.56C177.472 43.448 178.56 46.136 178.56 49.624C178.56 51.192 178.336 52.696 177.888 54.136C177.44 55.544 176.704 56.824 175.68 57.976C174.688 59.096 173.36 59.992 171.696 60.664C170.032 61.304 167.984 61.624 165.552 61.624H162.96V73H153.696V38.728H165.552ZM165.36 46.216H162.96V54.088H164.784C165.584 54.088 166.32 53.96 166.992 53.704C167.696 53.416 168.256 52.968 168.672 52.36C169.088 51.72 169.296 50.888 169.296 49.864C169.296 48.776 168.976 47.896 168.336 47.224C167.696 46.552 166.704 46.216 165.36 46.216ZM216.088 55.816C216.088 58.472 215.768 60.888 215.128 63.064C214.488 65.208 213.496 67.064 212.152 68.632C210.808 70.2 209.08 71.4 206.968 72.232C204.888 73.064 202.376 73.48 199.432 73.48C196.552 73.48 194.056 73.064 191.944 72.232C189.864 71.4 188.136 70.2 186.76 68.632C185.416 67.064 184.408 65.208 183.736 63.064C183.096 60.888 182.776 58.456 182.776 55.768C182.776 52.216 183.368 49.128 184.552 46.504C185.736 43.848 187.56 41.8 190.024 40.36C192.488 38.92 195.64 38.2 199.48 38.2C203.384 38.2 206.552 38.936 208.984 40.408C211.448 41.848 213.24 43.896 214.36 46.552C215.512 49.176 216.088 52.264 216.088 55.816ZM192.52 55.816C192.52 57.864 192.744 59.64 193.192 61.144C193.672 62.616 194.424 63.752 195.448 64.552C196.472 65.352 197.8 65.752 199.432 65.752C201.128 65.752 202.472 65.352 203.464 64.552C204.488 63.752 205.224 62.616 205.672 61.144C206.12 59.64 206.344 57.864 206.344 55.816C206.344 52.712 205.832 50.264 204.808 48.472C203.784 46.68 202.008 45.784 199.48 45.784C197.816 45.784 196.472 46.2 195.448 47.032C194.424 47.832 193.672 48.984 193.192 50.488C192.744 51.96 192.52 53.736 192.52 55.816ZM233.506 38.728C236.61 38.728 239.186 39.112 241.234 39.88C243.314 40.648 244.866 41.784 245.89 43.288C246.946 44.76 247.474 46.616 247.474 48.856C247.474 50.232 247.234 51.496 246.754 52.648C246.306 53.8 245.65 54.824 244.786 55.72C243.922 56.616 242.882 57.4 241.666 58.072L251.65 73H241.138L233.89 60.52H231.538V73H222.274V38.728H233.506ZM233.362 45.736H231.538V53.56H233.266C234.226 53.56 235.058 53.432 235.762 53.176C236.498 52.888 237.074 52.44 237.49 51.832C237.906 51.192 238.114 50.344 238.114 49.288C238.114 48.552 237.954 47.928 237.634 47.416C237.314 46.872 236.802 46.456 236.098 46.168C235.394 45.88 234.482 45.736 233.362 45.736ZM269.879 73H260.615V46.312H252.263V38.728H278.231V46.312H269.879V73ZM300.767 73L299.087 66.568H287.951L286.223 73H276.047L287.231 38.584H299.567L310.895 73H300.767ZM295.679 53.368C295.519 52.76 295.295 51.896 295.007 50.776C294.719 49.624 294.431 48.44 294.143 47.224C293.855 46.008 293.631 45.016 293.471 44.248C293.343 45.016 293.135 45.976 292.847 47.128C292.591 48.28 292.319 49.416 292.031 50.536C291.775 51.656 291.551 52.6 291.359 53.368L289.871 58.984H297.167L295.679 53.368ZM314.571 73V38.728H323.835V65.512H337.035V73H314.571ZM384.065 55.144C384.065 59.112 383.313 62.424 381.809 65.08C380.337 67.736 378.257 69.72 375.569 71.032C372.881 72.344 369.713 73 366.065 73H354.977V38.728H366.833C370.513 38.728 373.633 39.368 376.193 40.648C378.753 41.896 380.705 43.736 382.049 46.168C383.393 48.6 384.065 51.592 384.065 55.144ZM374.465 55.48C374.465 53.4 374.177 51.672 373.601 50.296C373.057 48.92 372.225 47.896 371.105 47.224C370.017 46.552 368.625 46.216 366.929 46.216H364.241V65.416H366.305C369.121 65.416 371.185 64.6 372.497 62.968C373.809 61.336 374.465 58.84 374.465 55.48ZM410.314 73L408.634 66.568H397.498L395.77 73H385.594L396.778 38.584H409.114L420.442 73H410.314ZM405.226 53.368C405.066 52.76 404.842 51.896 404.554 50.776C404.266 49.624 403.978 48.44 403.69 47.224C403.402 46.008 403.178 45.016 403.018 44.248C402.89 45.016 402.682 45.976 402.394 47.128C402.138 48.28 401.866 49.416 401.578 50.536C401.322 51.656 401.098 52.6 400.906 53.368L399.418 58.984H406.714L405.226 53.368ZM451.707 73H442.443V46.312H434.091V38.728H460.059V46.312H451.707V73ZM476.178 38.728C479.282 38.728 481.858 39.112 483.906 39.88C485.986 40.648 487.538 41.784 488.562 43.288C489.618 44.76 490.146 46.616 490.146 48.856C490.146 50.232 489.906 51.496 489.426 52.648C488.978 53.8 488.322 54.824 487.458 55.72C486.594 56.616 485.554 57.4 484.338 58.072L494.322 73H483.81L476.562 60.52H474.21V73H464.946V38.728H476.178ZM476.034 45.736H474.21V53.56H475.938C476.898 53.56 477.73 53.432 478.434 53.176C479.17 52.888 479.746 52.44 480.162 51.832C480.578 51.192 480.786 50.344 480.786 49.288C480.786 48.552 480.626 47.928 480.306 47.416C479.986 46.872 479.474 46.456 478.77 46.168C478.066 45.88 477.154 45.736 476.034 45.736ZM518.454 73L516.774 66.568H505.638L503.91 73H493.734L504.918 38.584H517.254L528.582 73H518.454ZM513.366 53.368C513.206 52.76 512.982 51.896 512.694 50.776C512.406 49.624 512.118 48.44 511.83 47.224C511.542 46.008 511.318 45.016 511.158 44.248C511.03 45.016 510.822 45.976 510.534 47.128C510.278 48.28 510.006 49.416 509.718 50.536C509.462 51.656 509.238 52.6 509.046 53.368L507.558 58.984H514.854L513.366 53.368ZM564.899 73H552.755L540.227 48.856H540.035C540.099 49.4 540.147 50.04 540.179 50.776C540.243 51.512 540.291 52.28 540.323 53.08C540.355 53.88 540.387 54.664 540.419 55.432C540.451 56.2 540.467 56.904 540.467 57.544V73H532.259V38.728H544.355L556.835 62.536H556.979C556.947 61.992 556.899 61.368 556.835 60.664C556.803 59.928 556.771 59.192 556.739 58.456C556.707 57.688 556.675 56.936 556.643 56.2C556.643 55.464 556.643 54.808 556.643 54.232V38.728H564.899V73ZM594.706 62.584C594.706 64.44 594.226 66.2 593.266 67.864C592.338 69.528 590.882 70.888 588.898 71.944C586.946 72.968 584.402 73.48 581.266 73.48C579.698 73.48 578.322 73.4 577.138 73.24C575.986 73.112 574.898 72.888 573.874 72.568C572.85 72.248 571.794 71.832 570.706 71.32V63.064C572.562 63.992 574.434 64.712 576.322 65.224C578.21 65.704 579.922 65.944 581.458 65.944C582.386 65.944 583.138 65.832 583.714 65.608C584.29 65.384 584.722 65.08 585.01 64.696C585.298 64.312 585.442 63.88 585.442 63.4C585.442 62.792 585.234 62.28 584.818 61.864C584.402 61.448 583.746 61.016 582.85 60.568C581.954 60.12 580.754 59.56 579.25 58.888C577.97 58.312 576.818 57.704 575.794 57.064C574.77 56.424 573.89 55.704 573.154 54.904C572.45 54.104 571.906 53.176 571.522 52.12C571.138 51.032 570.946 49.752 570.946 48.28C570.946 46.072 571.49 44.232 572.578 42.76C573.666 41.256 575.17 40.136 577.09 39.4C579.042 38.632 581.298 38.248 583.858 38.248C586.098 38.248 588.114 38.504 589.906 39.016C591.698 39.496 593.298 40.056 594.706 40.696L591.874 47.848C590.402 47.176 588.946 46.648 587.506 46.264C586.098 45.848 584.786 45.64 583.57 45.64C582.77 45.64 582.114 45.736 581.602 45.928C581.09 46.12 580.706 46.392 580.45 46.744C580.226 47.064 580.114 47.432 580.114 47.848C580.114 48.392 580.322 48.872 580.738 49.288C581.154 49.704 581.842 50.168 582.802 50.68C583.794 51.16 585.138 51.784 586.834 52.552C588.498 53.288 589.906 54.104 591.058 55C592.242 55.864 593.138 56.904 593.746 58.12C594.386 59.304 594.706 60.792 594.706 62.584ZM611.849 38.728C616.201 38.728 619.449 39.672 621.593 41.56C623.769 43.448 624.857 46.136 624.857 49.624C624.857 51.192 624.633 52.696 624.185 54.136C623.737 55.544 623.001 56.824 621.977 57.976C620.985 59.096 619.657 59.992 617.993 60.664C616.329 61.304 614.281 61.624 611.849 61.624H609.257V73H599.993V38.728H611.849ZM611.657 46.216H609.257V54.088H611.081C611.881 54.088 612.617 53.96 613.289 53.704C613.993 53.416 614.553 52.968 614.969 52.36C615.385 51.72 615.593 50.888 615.593 49.864C615.593 48.776 615.273 47.896 614.633 47.224C613.993 46.552 613.001 46.216 611.657 46.216ZM648.954 73L647.274 66.568H636.138L634.41 73H624.234L635.418 38.584H647.754L659.082 73H648.954ZM643.866 53.368C643.706 52.76 643.482 51.896 643.194 50.776C642.906 49.624 642.618 48.44 642.33 47.224C642.042 46.008 641.818 45.016 641.658 44.248C641.53 45.016 641.322 45.976 641.034 47.128C640.778 48.28 640.506 49.416 640.218 50.536C639.962 51.656 639.738 52.6 639.546 53.368L638.058 58.984H645.354L643.866 53.368ZM673.991 38.728C677.095 38.728 679.671 39.112 681.719 39.88C683.799 40.648 685.351 41.784 686.375 43.288C687.431 44.76 687.959 46.616 687.959 48.856C687.959 50.232 687.719 51.496 687.239 52.648C686.791 53.8 686.135 54.824 685.271 55.72C684.407 56.616 683.367 57.4 682.151 58.072L692.135 73H681.623L674.375 60.52H672.023V73H662.759V38.728H673.991ZM673.847 45.736H672.023V53.56H673.751C674.711 53.56 675.543 53.432 676.247 53.176C676.983 52.888 677.559 52.44 677.975 51.832C678.391 51.192 678.599 50.344 678.599 49.288C678.599 48.552 678.439 47.928 678.119 47.416C677.799 46.872 677.287 46.456 676.583 46.168C675.879 45.88 674.967 45.736 673.847 45.736ZM715.595 73H695.243V38.728H715.595V46.168H704.507V51.544H714.779V58.984H704.507V65.464H715.595V73ZM710.075 28.504C710.587 29.24 711.195 30.056 711.899 30.952C712.635 31.816 713.371 32.664 714.107 33.496C714.875 34.296 715.531 34.968 716.075 35.512V36.184H710.123C709.291 35.704 708.507 35.176 707.771 34.6C707.035 34.024 706.251 33.384 705.419 32.68C704.587 33.384 703.819 34.008 703.115 34.552C702.443 35.096 701.691 35.64 700.859 36.184H694.811V35.512C695.419 34.936 696.091 34.248 696.827 33.448C697.595 32.616 698.331 31.768 699.035 30.904C699.771 30.04 700.379 29.24 700.859 28.504H710.075ZM754.227 73H742.083L729.555 48.856H729.363C729.427 49.4 729.475 50.04 729.507 50.776C729.571 51.512 729.619 52.28 729.651 53.08C729.683 53.88 729.715 54.664 729.747 55.432C729.779 56.2 729.795 56.904 729.795 57.544V73H721.587V38.728H733.683L746.163 62.536H746.307C746.275 61.992 746.227 61.368 746.163 60.664C746.131 59.928 746.099 59.192 746.067 58.456C746.035 57.688 746.003 56.936 745.971 56.2C745.971 55.464 745.971 54.808 745.971 54.232V38.728H754.227V73ZM776.882 45.832C775.794 45.832 774.818 46.072 773.954 46.552C773.09 47 772.354 47.672 771.746 48.568C771.138 49.432 770.674 50.488 770.354 51.736C770.034 52.984 769.874 54.408 769.874 56.008C769.874 58.152 770.146 59.96 770.69 61.432C771.234 62.904 772.066 64.024 773.186 64.792C774.306 65.528 775.714 65.896 777.41 65.896C778.914 65.896 780.37 65.688 781.778 65.272C783.218 64.856 784.658 64.344 786.098 63.736V71.56C784.594 72.232 783.042 72.712 781.442 73C779.874 73.32 778.194 73.48 776.402 73.48C772.69 73.48 769.65 72.744 767.282 71.272C764.914 69.8 763.17 67.752 762.05 65.128C760.93 62.472 760.37 59.416 760.37 55.96C760.37 53.368 760.722 51 761.426 48.856C762.162 46.68 763.234 44.808 764.642 43.24C766.05 41.64 767.778 40.408 769.826 39.544C771.906 38.68 774.29 38.248 776.978 38.248C778.642 38.248 780.386 38.44 782.21 38.824C784.034 39.208 785.826 39.816 787.586 40.648L784.754 47.944C783.506 47.336 782.242 46.84 780.962 46.456C779.682 46.04 778.322 45.832 776.882 45.832ZM808.582 73H790.726V67.72L794.998 66.088V45.592L790.726 44.008V38.728H808.582V44.008L804.31 45.592V66.088L808.582 67.72V73ZM834.954 73L833.274 66.568H822.138L820.41 73H810.234L821.418 38.584H833.754L845.082 73H834.954ZM829.866 53.368C829.706 52.76 829.482 51.896 829.194 50.776C828.906 49.624 828.618 48.44 828.33 47.224C828.042 46.008 827.818 45.016 827.658 44.248C827.53 45.016 827.322 45.976 827.034 47.128C826.778 48.28 826.506 49.416 826.218 50.536C825.962 51.656 825.738 52.6 825.546 53.368L824.058 58.984H831.354L829.866 53.368ZM162.704 101.288C161.659 101.288 160.731 101.48 159.92 101.864C159.109 102.248 158.416 102.803 157.84 103.528C157.285 104.253 156.859 105.128 156.56 106.152C156.283 107.176 156.144 108.328 156.144 109.608C156.144 111.336 156.379 112.819 156.848 114.056C157.317 115.272 158.032 116.211 158.992 116.872C159.973 117.533 161.2 117.864 162.672 117.864C163.653 117.864 164.592 117.768 165.488 117.576C166.405 117.363 167.365 117.085 168.368 116.744V120.232C167.429 120.616 166.48 120.893 165.52 121.064C164.581 121.235 163.493 121.32 162.256 121.32C159.909 121.32 157.968 120.84 156.432 119.88C154.896 118.899 153.755 117.533 153.008 115.784C152.261 114.013 151.888 111.944 151.888 109.576C151.888 107.848 152.123 106.269 152.592 104.84C153.083 103.411 153.776 102.173 154.672 101.128C155.589 100.083 156.72 99.272 158.064 98.696C159.408 98.12 160.955 97.832 162.704 97.832C163.856 97.832 164.987 97.9707 166.096 98.248C167.227 98.504 168.283 98.8667 169.264 99.336L167.856 102.696C167.045 102.333 166.203 102.013 165.328 101.736C164.475 101.437 163.6 101.288 162.704 101.288ZM173.289 121V98.152H177.385V117.544H186.921V121H173.289ZM198.626 121H189.026V118.664L191.778 117.64V101.544L189.026 100.488V98.152H198.626V100.488L195.874 101.544V117.64L198.626 118.664V121ZM223.142 109.544C223.142 111.315 222.918 112.925 222.47 114.376C222.043 115.805 221.382 117.043 220.486 118.088C219.611 119.133 218.491 119.923 217.126 120.456L222.63 126.44H217.19L212.934 121.32C212.849 121.32 212.753 121.32 212.646 121.32C212.561 121.32 212.475 121.32 212.39 121.32C210.555 121.32 208.955 121.043 207.59 120.488C206.246 119.912 205.137 119.112 204.262 118.088C203.387 117.043 202.726 115.795 202.278 114.344C201.851 112.893 201.638 111.283 201.638 109.512C201.638 107.144 202.022 105.085 202.79 103.336C203.579 101.587 204.763 100.232 206.342 99.272C207.942 98.2907 209.969 97.8 212.422 97.8C214.833 97.8 216.827 98.2907 218.406 99.272C219.985 100.232 221.169 101.597 221.958 103.368C222.747 105.117 223.142 107.176 223.142 109.544ZM205.958 109.544C205.958 111.272 206.182 112.755 206.63 113.992C207.099 115.229 207.803 116.179 208.742 116.84C209.702 117.501 210.918 117.832 212.39 117.832C213.905 117.832 215.131 117.501 216.07 116.84C217.009 116.179 217.702 115.229 218.15 113.992C218.598 112.755 218.822 111.272 218.822 109.544C218.822 106.963 218.321 104.936 217.318 103.464C216.315 101.992 214.683 101.256 212.422 101.256C210.929 101.256 209.702 101.587 208.742 102.248C207.803 102.909 207.099 103.859 206.63 105.096C206.182 106.333 205.958 107.816 205.958 109.544ZM246.119 112.936C246.119 114.515 245.778 115.944 245.095 117.224C244.434 118.483 243.421 119.485 242.055 120.232C240.69 120.957 238.962 121.32 236.871 121.32C233.906 121.32 231.655 120.552 230.119 119.016C228.583 117.459 227.815 115.411 227.815 112.872V98.152H231.911V112.456C231.911 114.312 232.338 115.677 233.191 116.552C234.045 117.405 235.314 117.832 236.999 117.832C238.194 117.832 239.154 117.629 239.879 117.224C240.626 116.819 241.17 116.211 241.511 115.4C241.874 114.568 242.055 113.576 242.055 112.424V98.152H246.119V112.936ZM264.906 121H251.914V98.152H264.906V101.576H256.01V107.4H264.33V110.824H256.01V117.544H264.906V121ZM291.062 121H278.07V98.152H291.062V101.576H282.166V107.4H290.486V110.824H282.166V117.544H291.062V121ZM313.954 101.288C312.909 101.288 311.981 101.48 311.17 101.864C310.359 102.248 309.666 102.803 309.09 103.528C308.535 104.253 308.109 105.128 307.81 106.152C307.533 107.176 307.394 108.328 307.394 109.608C307.394 111.336 307.629 112.819 308.098 114.056C308.567 115.272 309.282 116.211 310.242 116.872C311.223 117.533 312.45 117.864 313.922 117.864C314.903 117.864 315.842 117.768 316.738 117.576C317.655 117.363 318.615 117.085 319.618 116.744V120.232C318.679 120.616 317.73 120.893 316.77 121.064C315.831 121.235 314.743 121.32 313.506 121.32C311.159 121.32 309.218 120.84 307.682 119.88C306.146 118.899 305.005 117.533 304.258 115.784C303.511 114.013 303.138 111.944 303.138 109.576C303.138 107.848 303.373 106.269 303.842 104.84C304.333 103.411 305.026 102.173 305.922 101.128C306.839 100.083 307.97 99.272 309.314 98.696C310.658 98.12 312.205 97.832 313.954 97.832C315.106 97.832 316.237 97.9707 317.346 98.248C318.477 98.504 319.533 98.8667 320.514 99.336L319.106 102.696C318.295 102.333 317.453 102.013 316.578 101.736C315.725 101.437 314.85 101.288 313.954 101.288ZM344.33 109.544C344.33 111.315 344.106 112.925 343.658 114.376C343.231 115.805 342.57 117.043 341.674 118.088C340.799 119.133 339.679 119.933 338.314 120.488C336.97 121.043 335.391 121.32 333.578 121.32C331.743 121.32 330.143 121.043 328.778 120.488C327.434 119.912 326.324 119.112 325.45 118.088C324.575 117.043 323.914 115.795 323.466 114.344C323.039 112.893 322.826 111.283 322.826 109.512C322.826 107.144 323.21 105.085 323.978 103.336C324.767 101.587 325.951 100.232 327.53 99.272C329.13 98.2907 331.156 97.8 333.61 97.8C336.02 97.8 338.015 98.2907 339.594 99.272C341.172 100.232 342.356 101.597 343.146 103.368C343.935 105.117 344.33 107.176 344.33 109.544ZM327.146 109.544C327.146 111.272 327.37 112.755 327.818 113.992C328.287 115.229 328.991 116.179 329.93 116.84C330.89 117.501 332.106 117.832 333.578 117.832C335.092 117.832 336.319 117.501 337.258 116.84C338.196 116.179 338.89 115.229 339.338 113.992C339.786 112.755 340.01 111.272 340.01 109.544C340.01 106.963 339.508 104.936 338.506 103.464C337.503 101.992 335.871 101.256 333.61 101.256C332.116 101.256 330.89 101.587 329.93 102.248C328.991 102.909 328.287 103.859 327.818 105.096C327.37 106.333 327.146 107.816 327.146 109.544ZM368.619 121H363.531L352.715 103.08H352.587C352.608 103.549 352.629 104.051 352.651 104.584C352.693 105.096 352.725 105.629 352.747 106.184C352.768 106.717 352.789 107.261 352.811 107.816C352.832 108.371 352.853 108.925 352.875 109.48V121H349.195V98.152H354.251L365.035 115.944H365.131C365.109 115.517 365.088 115.059 365.067 114.568C365.045 114.056 365.024 113.533 365.003 113C365.003 112.467 364.992 111.923 364.971 111.368C364.949 110.813 364.928 110.28 364.907 109.768V98.152H368.619V121ZM378.602 121H374.57V98.152H387.53V101.576H378.602V108.296H386.922V111.72H378.602V121ZM399.533 121H389.933V118.664L392.685 117.64V101.544L389.933 100.488V98.152H399.533V100.488L396.781 101.544V117.64L399.533 118.664V121ZM410.128 98.152C412.134 98.152 413.787 98.3973 415.088 98.888C416.39 99.3787 417.36 100.125 418 101.128C418.64 102.109 418.96 103.357 418.96 104.872C418.96 105.981 418.747 106.931 418.32 107.72C417.915 108.509 417.382 109.171 416.72 109.704C416.059 110.216 415.344 110.632 414.576 110.952L421.136 121H416.528L411.056 111.976H407.728V121H403.632V98.152H410.128ZM409.872 101.576H407.728V108.616H410C411.131 108.616 412.048 108.477 412.752 108.2C413.456 107.923 413.968 107.517 414.288 106.984C414.63 106.451 414.8 105.789 414.8 105C414.8 104.168 414.619 103.507 414.256 103.016C413.894 102.504 413.35 102.141 412.624 101.928C411.92 101.693 411.003 101.576 409.872 101.576ZM438.432 121L436.352 114.952H427.744L425.696 121H421.344L429.728 98.056H434.4L442.784 121H438.432ZM433.312 105.544C433.226 105.245 433.098 104.84 432.928 104.328C432.757 103.816 432.586 103.293 432.416 102.76C432.266 102.205 432.149 101.747 432.064 101.384C431.957 101.811 431.818 102.301 431.648 102.856C431.498 103.411 431.349 103.933 431.2 104.424C431.072 104.915 430.965 105.288 430.88 105.544L428.864 111.432H435.296L433.312 105.544Z" fill="#004680"/>
</svg>
