<svg width="1000" height="150" viewBox="0 0 1000 150" fill="none" xmlns="http://www.w3.org/2000/svg">
<g clip-path="url(#clip0_6871_133)">
<rect width="1000" height="150" rx="8" fill="#EDEDED"/>
<path d="M165.552 38.728C169.904 38.728 173.152 39.672 175.296 41.56C177.472 43.448 178.56 46.136 178.56 49.624C178.56 51.192 178.336 52.696 177.888 54.136C177.44 55.544 176.704 56.824 175.68 57.976C174.688 59.096 173.36 59.992 171.696 60.664C170.032 61.304 167.984 61.624 165.552 61.624H162.96V73H153.696V38.728H165.552ZM165.36 46.216H162.96V54.088H164.784C165.584 54.088 166.32 53.96 166.992 53.704C167.696 53.416 168.256 52.968 168.672 52.36C169.088 51.72 169.296 50.888 169.296 49.864C169.296 48.776 168.976 47.896 168.336 47.224C167.696 46.552 166.704 46.216 165.36 46.216ZM195.256 38.728C198.36 38.728 200.936 39.112 202.984 39.88C205.064 40.648 206.616 41.784 207.64 43.288C208.696 44.76 209.224 46.616 209.224 48.856C209.224 50.232 208.984 51.496 208.504 52.648C208.056 53.8 207.4 54.824 206.536 55.72C205.672 56.616 204.632 57.4 203.416 58.072L213.4 73H202.888L195.64 60.52H193.288V73H184.024V38.728H195.256ZM195.112 45.736H193.288V53.56H195.016C195.976 53.56 196.808 53.432 197.512 53.176C198.248 52.888 198.824 52.44 199.24 51.832C199.656 51.192 199.864 50.344 199.864 49.288C199.864 48.552 199.704 47.928 199.384 47.416C199.064 46.872 198.552 46.456 197.848 46.168C197.144 45.88 196.232 45.736 195.112 45.736ZM236.861 73H216.509V38.728H236.861V46.168H225.773V51.544H236.045V58.984H225.773V65.464H236.861V73ZM251.972 73H242.852V38.728H263.108V46.168H251.972V52.696H262.244V60.136H251.972V73ZM289.079 73H268.727V38.728H289.079V46.168H277.991V51.544H288.263V58.984H277.991V65.464H289.079V73ZM310.863 73H293.007V67.72L297.279 66.088V45.592L293.007 44.008V38.728H310.863V44.008L306.591 45.592V66.088L310.863 67.72V73ZM331.332 73H322.068V46.312H313.716V38.728H339.684V46.312H331.332V73ZM373.707 59.368C373.707 62.248 373.163 64.744 372.075 66.856C370.987 68.968 369.339 70.6 367.131 71.752C364.955 72.904 362.219 73.48 358.923 73.48C354.187 73.48 350.571 72.28 348.075 69.88C345.611 67.448 344.379 64.008 344.379 59.56V38.728H353.691V58.84C353.691 61.272 354.139 63.032 355.035 64.12C355.963 65.208 357.307 65.752 359.067 65.752C360.347 65.752 361.371 65.512 362.139 65.032C362.939 64.552 363.515 63.8 363.867 62.776C364.251 61.752 364.443 60.424 364.443 58.792V38.728H373.707V59.368ZM392.131 38.728C395.235 38.728 397.811 39.112 399.859 39.88C401.939 40.648 403.491 41.784 404.515 43.288C405.571 44.76 406.099 46.616 406.099 48.856C406.099 50.232 405.859 51.496 405.379 52.648C404.931 53.8 404.275 54.824 403.411 55.72C402.547 56.616 401.507 57.4 400.291 58.072L410.275 73H399.763L392.515 60.52H390.163V73H380.899V38.728H392.131ZM391.987 45.736H390.163V53.56H391.891C392.851 53.56 393.683 53.432 394.387 53.176C395.123 52.888 395.699 52.44 396.115 51.832C396.531 51.192 396.739 50.344 396.739 49.288C396.739 48.552 396.579 47.928 396.259 47.416C395.939 46.872 395.427 46.456 394.723 46.168C394.019 45.88 393.107 45.736 391.987 45.736ZM434.408 73L432.728 66.568H421.592L419.864 73H409.688L420.872 38.584H433.208L444.536 73H434.408ZM429.32 53.368C429.16 52.76 428.936 51.896 428.648 50.776C428.36 49.624 428.072 48.44 427.784 47.224C427.496 46.008 427.272 45.016 427.112 44.248C426.984 45.016 426.776 45.976 426.488 47.128C426.232 48.28 425.96 49.416 425.672 50.536C425.416 51.656 425.192 52.6 425 53.368L423.512 58.984H430.808L429.32 53.368ZM475.608 73L468.6 48.328H468.408C468.472 48.968 468.536 49.832 468.6 50.92C468.664 52.008 468.728 53.192 468.792 54.472C468.856 55.72 468.888 56.936 468.888 58.12V73H460.68V38.728H473.016L480.168 63.064H480.36L487.368 38.728H499.704V73H491.208V57.976C491.208 56.888 491.224 55.736 491.256 54.52C491.288 53.272 491.336 52.104 491.4 51.016C491.464 49.896 491.512 49.016 491.544 48.376H491.352L484.44 73H475.608ZM536.223 59.368C536.223 62.248 535.679 64.744 534.591 66.856C533.503 68.968 531.855 70.6 529.647 71.752C527.471 72.904 524.735 73.48 521.439 73.48C516.703 73.48 513.087 72.28 510.591 69.88C508.127 67.448 506.895 64.008 506.895 59.56V38.728H516.207V58.84C516.207 61.272 516.655 63.032 517.551 64.12C518.479 65.208 519.823 65.752 521.583 65.752C522.863 65.752 523.887 65.512 524.655 65.032C525.455 64.552 526.031 63.8 526.383 62.776C526.767 61.752 526.959 60.424 526.959 58.792V38.728H536.223V59.368ZM576.055 73H563.911L551.383 48.856H551.191C551.255 49.4 551.303 50.04 551.335 50.776C551.399 51.512 551.447 52.28 551.479 53.08C551.511 53.88 551.543 54.664 551.575 55.432C551.607 56.2 551.623 56.904 551.623 57.544V73H543.415V38.728H555.511L567.991 62.536H568.135C568.103 61.992 568.055 61.368 567.991 60.664C567.959 59.928 567.927 59.192 567.895 58.456C567.863 57.688 567.831 56.936 567.799 56.2C567.799 55.464 567.799 54.808 567.799 54.232V38.728H576.055V73ZM599.238 73H581.382V67.72L585.654 66.088V45.592L581.382 44.008V38.728H599.238V44.008L594.966 45.592V66.088L599.238 67.72V73ZM619.851 45.832C618.763 45.832 617.787 46.072 616.923 46.552C616.059 47 615.323 47.672 614.715 48.568C614.107 49.432 613.643 50.488 613.323 51.736C613.003 52.984 612.843 54.408 612.843 56.008C612.843 58.152 613.115 59.96 613.659 61.432C614.203 62.904 615.035 64.024 616.155 64.792C617.275 65.528 618.683 65.896 620.379 65.896C621.883 65.896 623.339 65.688 624.747 65.272C626.187 64.856 627.627 64.344 629.067 63.736V71.56C627.563 72.232 626.011 72.712 624.411 73C622.843 73.32 621.163 73.48 619.371 73.48C615.659 73.48 612.619 72.744 610.251 71.272C607.883 69.8 606.139 67.752 605.019 65.128C603.899 62.472 603.339 59.416 603.339 55.96C603.339 53.368 603.691 51 604.395 48.856C605.131 46.68 606.203 44.808 607.611 43.24C609.019 41.64 610.747 40.408 612.795 39.544C614.875 38.68 617.259 38.248 619.947 38.248C621.611 38.248 623.355 38.44 625.179 38.824C627.003 39.208 628.795 39.816 630.555 40.648L627.723 47.944C626.475 47.336 625.211 46.84 623.931 46.456C622.651 46.04 621.291 45.832 619.851 45.832ZM651.551 73H633.695V67.72L637.967 66.088V45.592L633.695 44.008V38.728H651.551V44.008L647.279 45.592V66.088L651.551 67.72V73ZM668.755 38.728C673.107 38.728 676.355 39.672 678.499 41.56C680.675 43.448 681.763 46.136 681.763 49.624C681.763 51.192 681.539 52.696 681.091 54.136C680.643 55.544 679.907 56.824 678.883 57.976C677.891 59.096 676.563 59.992 674.899 60.664C673.235 61.304 671.187 61.624 668.755 61.624H666.163V73H656.899V38.728H668.755ZM668.563 46.216H666.163V54.088H667.987C668.787 54.088 669.523 53.96 670.195 53.704C670.899 53.416 671.459 52.968 671.875 52.36C672.291 51.72 672.499 50.888 672.499 49.864C672.499 48.776 672.179 47.896 671.539 47.224C670.899 46.552 669.907 46.216 668.563 46.216ZM705.861 73L704.181 66.568H693.045L691.317 73H681.141L692.325 38.584H704.661L715.989 73H705.861ZM700.773 53.368C700.613 52.76 700.389 51.896 700.101 50.776C699.813 49.624 699.525 48.44 699.237 47.224C698.949 46.008 698.725 45.016 698.565 44.248C698.437 45.016 698.229 45.976 697.941 47.128C697.685 48.28 697.413 49.416 697.125 50.536C696.869 51.656 696.645 52.6 696.453 53.368L694.965 58.984H702.261L700.773 53.368ZM719.665 73V38.728H728.929V65.512H742.129V73H719.665ZM162.704 101.288C161.659 101.288 160.731 101.48 159.92 101.864C159.109 102.248 158.416 102.803 157.84 103.528C157.285 104.253 156.859 105.128 156.56 106.152C156.283 107.176 156.144 108.328 156.144 109.608C156.144 111.336 156.379 112.819 156.848 114.056C157.317 115.272 158.032 116.211 158.992 116.872C159.973 117.533 161.2 117.864 162.672 117.864C163.653 117.864 164.592 117.768 165.488 117.576C166.405 117.363 167.365 117.085 168.368 116.744V120.232C167.429 120.616 166.48 120.893 165.52 121.064C164.581 121.235 163.493 121.32 162.256 121.32C159.909 121.32 157.968 120.84 156.432 119.88C154.896 118.899 153.755 117.533 153.008 115.784C152.261 114.013 151.888 111.944 151.888 109.576C151.888 107.848 152.123 106.269 152.592 104.84C153.083 103.411 153.776 102.173 154.672 101.128C155.589 100.083 156.72 99.272 158.064 98.696C159.408 98.12 160.955 97.832 162.704 97.832C163.856 97.832 164.987 97.9707 166.096 98.248C167.227 98.504 168.283 98.8667 169.264 99.336L167.856 102.696C167.045 102.333 166.203 102.013 165.328 101.736C164.475 101.437 163.6 101.288 162.704 101.288ZM173.289 121V98.152H177.385V117.544H186.921V121H173.289ZM198.626 121H189.026V118.664L191.778 117.64V101.544L189.026 100.488V98.152H198.626V100.488L195.874 101.544V117.64L198.626 118.664V121ZM223.142 109.544C223.142 111.315 222.918 112.925 222.47 114.376C222.043 115.805 221.382 117.043 220.486 118.088C219.611 119.133 218.491 119.923 217.126 120.456L222.63 126.44H217.19L212.934 121.32C212.849 121.32 212.753 121.32 212.646 121.32C212.561 121.32 212.475 121.32 212.39 121.32C210.555 121.32 208.955 121.043 207.59 120.488C206.246 119.912 205.137 119.112 204.262 118.088C203.387 117.043 202.726 115.795 202.278 114.344C201.851 112.893 201.638 111.283 201.638 109.512C201.638 107.144 202.022 105.085 202.79 103.336C203.579 101.587 204.763 100.232 206.342 99.272C207.942 98.2907 209.969 97.8 212.422 97.8C214.833 97.8 216.827 98.2907 218.406 99.272C219.985 100.232 221.169 101.597 221.958 103.368C222.747 105.117 223.142 107.176 223.142 109.544ZM205.958 109.544C205.958 111.272 206.182 112.755 206.63 113.992C207.099 115.229 207.803 116.179 208.742 116.84C209.702 117.501 210.918 117.832 212.39 117.832C213.905 117.832 215.131 117.501 216.07 116.84C217.009 116.179 217.702 115.229 218.15 113.992C218.598 112.755 218.822 111.272 218.822 109.544C218.822 106.963 218.321 104.936 217.318 103.464C216.315 101.992 214.683 101.256 212.422 101.256C210.929 101.256 209.702 101.587 208.742 102.248C207.803 102.909 207.099 103.859 206.63 105.096C206.182 106.333 205.958 107.816 205.958 109.544ZM246.119 112.936C246.119 114.515 245.778 115.944 245.095 117.224C244.434 118.483 243.421 119.485 242.055 120.232C240.69 120.957 238.962 121.32 236.871 121.32C233.906 121.32 231.655 120.552 230.119 119.016C228.583 117.459 227.815 115.411 227.815 112.872V98.152H231.911V112.456C231.911 114.312 232.338 115.677 233.191 116.552C234.045 117.405 235.314 117.832 236.999 117.832C238.194 117.832 239.154 117.629 239.879 117.224C240.626 116.819 241.17 116.211 241.511 115.4C241.874 114.568 242.055 113.576 242.055 112.424V98.152H246.119V112.936ZM264.906 121H251.914V98.152H264.906V101.576H256.01V107.4H264.33V110.824H256.01V117.544H264.906V121ZM291.062 121H278.07V98.152H291.062V101.576H282.166V107.4H290.486V110.824H282.166V117.544H291.062V121ZM313.954 101.288C312.909 101.288 311.981 101.48 311.17 101.864C310.359 102.248 309.666 102.803 309.09 103.528C308.535 104.253 308.109 105.128 307.81 106.152C307.533 107.176 307.394 108.328 307.394 109.608C307.394 111.336 307.629 112.819 308.098 114.056C308.567 115.272 309.282 116.211 310.242 116.872C311.223 117.533 312.45 117.864 313.922 117.864C314.903 117.864 315.842 117.768 316.738 117.576C317.655 117.363 318.615 117.085 319.618 116.744V120.232C318.679 120.616 317.73 120.893 316.77 121.064C315.831 121.235 314.743 121.32 313.506 121.32C311.159 121.32 309.218 120.84 307.682 119.88C306.146 118.899 305.005 117.533 304.258 115.784C303.511 114.013 303.138 111.944 303.138 109.576C303.138 107.848 303.373 106.269 303.842 104.84C304.333 103.411 305.026 102.173 305.922 101.128C306.839 100.083 307.97 99.272 309.314 98.696C310.658 98.12 312.205 97.832 313.954 97.832C315.106 97.832 316.237 97.9707 317.346 98.248C318.477 98.504 319.533 98.8667 320.514 99.336L319.106 102.696C318.295 102.333 317.453 102.013 316.578 101.736C315.725 101.437 314.85 101.288 313.954 101.288ZM344.33 109.544C344.33 111.315 344.106 112.925 343.658 114.376C343.231 115.805 342.57 117.043 341.674 118.088C340.799 119.133 339.679 119.933 338.314 120.488C336.97 121.043 335.391 121.32 333.578 121.32C331.743 121.32 330.143 121.043 328.778 120.488C327.434 119.912 326.324 119.112 325.45 118.088C324.575 117.043 323.914 115.795 323.466 114.344C323.039 112.893 322.826 111.283 322.826 109.512C322.826 107.144 323.21 105.085 323.978 103.336C324.767 101.587 325.951 100.232 327.53 99.272C329.13 98.2907 331.156 97.8 333.61 97.8C336.02 97.8 338.015 98.2907 339.594 99.272C341.172 100.232 342.356 101.597 343.146 103.368C343.935 105.117 344.33 107.176 344.33 109.544ZM327.146 109.544C327.146 111.272 327.37 112.755 327.818 113.992C328.287 115.229 328.991 116.179 329.93 116.84C330.89 117.501 332.106 117.832 333.578 117.832C335.092 117.832 336.319 117.501 337.258 116.84C338.196 116.179 338.89 115.229 339.338 113.992C339.786 112.755 340.01 111.272 340.01 109.544C340.01 106.963 339.508 104.936 338.506 103.464C337.503 101.992 335.871 101.256 333.61 101.256C332.116 101.256 330.89 101.587 329.93 102.248C328.991 102.909 328.287 103.859 327.818 105.096C327.37 106.333 327.146 107.816 327.146 109.544ZM368.619 121H363.531L352.715 103.08H352.587C352.608 103.549 352.629 104.051 352.651 104.584C352.693 105.096 352.725 105.629 352.747 106.184C352.768 106.717 352.789 107.261 352.811 107.816C352.832 108.371 352.853 108.925 352.875 109.48V121H349.195V98.152H354.251L365.035 115.944H365.131C365.109 115.517 365.088 115.059 365.067 114.568C365.045 114.056 365.024 113.533 365.003 113C365.003 112.467 364.992 111.923 364.971 111.368C364.949 110.813 364.928 110.28 364.907 109.768V98.152H368.619V121ZM378.602 121H374.57V98.152H387.53V101.576H378.602V108.296H386.922V111.72H378.602V121ZM399.533 121H389.933V118.664L392.685 117.64V101.544L389.933 100.488V98.152H399.533V100.488L396.781 101.544V117.64L399.533 118.664V121ZM410.128 98.152C412.134 98.152 413.787 98.3973 415.088 98.888C416.39 99.3787 417.36 100.125 418 101.128C418.64 102.109 418.96 103.357 418.96 104.872C418.96 105.981 418.747 106.931 418.32 107.72C417.915 108.509 417.382 109.171 416.72 109.704C416.059 110.216 415.344 110.632 414.576 110.952L421.136 121H416.528L411.056 111.976H407.728V121H403.632V98.152H410.128ZM409.872 101.576H407.728V108.616H410C411.131 108.616 412.048 108.477 412.752 108.2C413.456 107.923 413.968 107.517 414.288 106.984C414.63 106.451 414.8 105.789 414.8 105C414.8 104.168 414.619 103.507 414.256 103.016C413.894 102.504 413.35 102.141 412.624 101.928C411.92 101.693 411.003 101.576 409.872 101.576ZM438.432 121L436.352 114.952H427.744L425.696 121H421.344L429.728 98.056H434.4L442.784 121H438.432ZM433.312 105.544C433.226 105.245 433.098 104.84 432.928 104.328C432.757 103.816 432.586 103.293 432.416 102.76C432.266 102.205 432.149 101.747 432.064 101.384C431.957 101.811 431.818 102.301 431.648 102.856C431.498 103.411 431.349 103.933 431.2 104.424C431.072 104.915 430.965 105.288 430.88 105.544L428.864 111.432H435.296L433.312 105.544Z" fill="#004680"/>
</g>
<defs>
<clipPath id="clip0_6871_133">
<rect width="1000" height="150" fill="white"/>
</clipPath>
</defs>
</svg>
