<svg width="1000" height="150" viewBox="0 0 1000 150" fill="none" xmlns="http://www.w3.org/2000/svg">
<g clip-path="url(#clip0_6871_160)">
<rect width="1000" height="150" rx="8" fill="#EDEDED"/>
<path d="M176.112 62.584C176.112 64.44 175.632 66.2 174.672 67.864C173.744 69.528 172.288 70.888 170.304 71.944C168.352 72.968 165.808 73.48 162.672 73.48C161.104 73.48 159.728 73.4 158.544 73.24C157.392 73.112 156.304 72.888 155.28 72.568C154.256 72.248 153.2 71.832 152.112 71.32V63.064C153.968 63.992 155.84 64.712 157.728 65.224C159.616 65.704 161.328 65.944 162.864 65.944C163.792 65.944 164.544 65.832 165.12 65.608C165.696 65.384 166.128 65.08 166.416 64.696C166.704 64.312 166.848 63.88 166.848 63.4C166.848 62.792 166.64 62.28 166.224 61.864C165.808 61.448 165.152 61.016 164.256 60.568C163.36 60.12 162.16 59.56 160.656 58.888C159.376 58.312 158.224 57.704 157.2 57.064C156.176 56.424 155.296 55.704 154.56 54.904C153.856 54.104 153.312 53.176 152.928 52.12C152.544 51.032 152.352 49.752 152.352 48.28C152.352 46.072 152.896 44.232 153.984 42.76C155.072 41.256 156.576 40.136 158.496 39.4C160.448 38.632 162.704 38.248 165.264 38.248C167.504 38.248 169.52 38.504 171.312 39.016C173.104 39.496 174.704 40.056 176.112 40.696L173.28 47.848C171.808 47.176 170.352 46.648 168.912 46.264C167.504 45.848 166.192 45.64 164.976 45.64C164.176 45.64 163.52 45.736 163.008 45.928C162.496 46.12 162.112 46.392 161.856 46.744C161.632 47.064 161.52 47.432 161.52 47.848C161.52 48.392 161.728 48.872 162.144 49.288C162.56 49.704 163.248 50.168 164.208 50.68C165.2 51.16 166.544 51.784 168.24 52.552C169.904 53.288 171.312 54.104 172.464 55C173.648 55.864 174.544 56.904 175.152 58.12C175.792 59.304 176.112 60.792 176.112 62.584ZM202.423 73L200.743 66.568H189.607L187.879 73H177.703L188.887 38.584H201.223L212.551 73H202.423ZM197.335 53.368C197.175 52.76 196.951 51.896 196.663 50.776C196.375 49.624 196.087 48.44 195.799 47.224C195.511 46.008 195.287 45.016 195.127 44.248C194.999 45.016 194.791 45.976 194.503 47.128C194.247 48.28 193.975 49.416 193.687 50.536C193.431 51.656 193.207 52.6 193.015 53.368L191.527 58.984H198.823L197.335 53.368ZM228.083 38.728C232.435 38.728 235.683 39.672 237.827 41.56C240.003 43.448 241.091 46.136 241.091 49.624C241.091 51.192 240.867 52.696 240.419 54.136C239.971 55.544 239.235 56.824 238.211 57.976C237.219 59.096 235.891 59.992 234.227 60.664C232.563 61.304 230.515 61.624 228.083 61.624H225.491V73H216.227V38.728H228.083ZM227.891 46.216H225.491V54.088H227.315C228.115 54.088 228.851 53.96 229.523 53.704C230.227 53.416 230.787 52.968 231.203 52.36C231.619 51.72 231.827 50.888 231.827 49.864C231.827 48.776 231.507 47.896 230.867 47.224C230.227 46.552 229.235 46.216 227.891 46.216ZM246.555 73V38.728H255.819V65.512H269.019V73H246.555ZM284.274 63.784V56.488H297.522V63.784H284.274ZM326.568 38.728C330.92 38.728 334.168 39.672 336.312 41.56C338.488 43.448 339.576 46.136 339.576 49.624C339.576 51.192 339.352 52.696 338.904 54.136C338.456 55.544 337.72 56.824 336.696 57.976C335.704 59.096 334.376 59.992 332.712 60.664C331.048 61.304 329 61.624 326.568 61.624H323.976V73H314.712V38.728H326.568ZM326.376 46.216H323.976V54.088H325.8C326.6 54.088 327.336 53.96 328.008 53.704C328.712 53.416 329.272 52.968 329.688 52.36C330.104 51.72 330.312 50.888 330.312 49.864C330.312 48.776 329.992 47.896 329.352 47.224C328.712 46.552 327.72 46.216 326.376 46.216ZM356.272 38.728C359.376 38.728 361.952 39.112 364 39.88C366.08 40.648 367.632 41.784 368.656 43.288C369.712 44.76 370.24 46.616 370.24 48.856C370.24 50.232 370 51.496 369.52 52.648C369.072 53.8 368.416 54.824 367.552 55.72C366.688 56.616 365.648 57.4 364.432 58.072L374.416 73H363.904L356.656 60.52H354.304V73H345.04V38.728H356.272ZM356.128 45.736H354.304V53.56H356.032C356.992 53.56 357.824 53.432 358.528 53.176C359.264 52.888 359.84 52.44 360.256 51.832C360.672 51.192 360.88 50.344 360.88 49.288C360.88 48.552 360.72 47.928 360.4 47.416C360.08 46.872 359.568 46.456 358.864 46.168C358.16 45.88 357.248 45.736 356.128 45.736ZM409.588 55.816C409.588 58.472 409.268 60.888 408.628 63.064C407.988 65.208 406.996 67.064 405.652 68.632C404.308 70.2 402.58 71.4 400.468 72.232C398.388 73.064 395.876 73.48 392.932 73.48C390.052 73.48 387.556 73.064 385.444 72.232C383.364 71.4 381.636 70.2 380.26 68.632C378.916 67.064 377.908 65.208 377.236 63.064C376.596 60.888 376.276 58.456 376.276 55.768C376.276 52.216 376.868 49.128 378.052 46.504C379.236 43.848 381.06 41.8 383.524 40.36C385.988 38.92 389.14 38.2 392.98 38.2C396.884 38.2 400.052 38.936 402.484 40.408C404.948 41.848 406.74 43.896 407.86 46.552C409.012 49.176 409.588 52.264 409.588 55.816ZM386.02 55.816C386.02 57.864 386.244 59.64 386.692 61.144C387.172 62.616 387.924 63.752 388.948 64.552C389.972 65.352 391.3 65.752 392.932 65.752C394.628 65.752 395.972 65.352 396.964 64.552C397.988 63.752 398.724 62.616 399.172 61.144C399.62 59.64 399.844 57.864 399.844 55.816C399.844 52.712 399.332 50.264 398.308 48.472C397.284 46.68 395.508 45.784 392.98 45.784C391.316 45.784 389.972 46.2 388.948 47.032C387.924 47.832 387.172 48.984 386.692 50.488C386.244 51.96 386.02 53.736 386.02 55.816ZM431.038 45.832C429.95 45.832 428.974 46.072 428.11 46.552C427.246 47 426.51 47.672 425.902 48.568C425.294 49.432 424.83 50.488 424.51 51.736C424.19 52.984 424.03 54.408 424.03 56.008C424.03 58.152 424.302 59.96 424.846 61.432C425.39 62.904 426.222 64.024 427.342 64.792C428.462 65.528 429.87 65.896 431.566 65.896C433.07 65.896 434.526 65.688 435.934 65.272C437.374 64.856 438.814 64.344 440.254 63.736V71.56C438.75 72.232 437.198 72.712 435.598 73C434.03 73.32 432.35 73.48 430.558 73.48C426.846 73.48 423.806 72.744 421.438 71.272C419.07 69.8 417.326 67.752 416.206 65.128C415.086 62.472 414.526 59.416 414.526 55.96C414.526 53.368 414.878 51 415.582 48.856C416.318 46.68 417.39 44.808 418.798 43.24C420.206 41.64 421.934 40.408 423.982 39.544C426.062 38.68 428.446 38.248 431.134 38.248C432.798 38.248 434.542 38.44 436.366 38.824C438.19 39.208 439.982 39.816 441.742 40.648L438.91 47.944C437.662 47.336 436.398 46.84 435.118 46.456C433.838 46.04 432.478 45.832 431.038 45.832ZM467.298 73H446.946V38.728H467.298V46.168H456.21V51.544H466.482V58.984H456.21V65.464H467.298V73ZM495.706 62.584C495.706 64.44 495.226 66.2 494.266 67.864C493.338 69.528 491.882 70.888 489.898 71.944C487.946 72.968 485.402 73.48 482.266 73.48C480.698 73.48 479.322 73.4 478.138 73.24C476.986 73.112 475.898 72.888 474.874 72.568C473.85 72.248 472.794 71.832 471.706 71.32V63.064C473.562 63.992 475.434 64.712 477.322 65.224C479.21 65.704 480.922 65.944 482.458 65.944C483.386 65.944 484.138 65.832 484.714 65.608C485.29 65.384 485.722 65.08 486.01 64.696C486.298 64.312 486.442 63.88 486.442 63.4C486.442 62.792 486.234 62.28 485.818 61.864C485.402 61.448 484.746 61.016 483.85 60.568C482.954 60.12 481.754 59.56 480.25 58.888C478.97 58.312 477.818 57.704 476.794 57.064C475.77 56.424 474.89 55.704 474.154 54.904C473.45 54.104 472.906 53.176 472.522 52.12C472.138 51.032 471.946 49.752 471.946 48.28C471.946 46.072 472.49 44.232 473.578 42.76C474.666 41.256 476.17 40.136 478.09 39.4C480.042 38.632 482.298 38.248 484.858 38.248C487.098 38.248 489.114 38.504 490.906 39.016C492.698 39.496 494.298 40.056 495.706 40.696L492.874 47.848C491.402 47.176 489.946 46.648 488.506 46.264C487.098 45.848 485.786 45.64 484.57 45.64C483.77 45.64 483.114 45.736 482.602 45.928C482.09 46.12 481.706 46.392 481.45 46.744C481.226 47.064 481.114 47.432 481.114 47.848C481.114 48.392 481.322 48.872 481.738 49.288C482.154 49.704 482.842 50.168 483.802 50.68C484.794 51.16 486.138 51.784 487.834 52.552C489.498 53.288 490.906 54.104 492.058 55C493.242 55.864 494.138 56.904 494.746 58.12C495.386 59.304 495.706 60.792 495.706 62.584ZM523.409 62.584C523.409 64.44 522.929 66.2 521.969 67.864C521.041 69.528 519.585 70.888 517.601 71.944C515.649 72.968 513.105 73.48 509.969 73.48C508.401 73.48 507.025 73.4 505.841 73.24C504.689 73.112 503.601 72.888 502.577 72.568C501.553 72.248 500.497 71.832 499.409 71.32V63.064C501.265 63.992 503.137 64.712 505.025 65.224C506.913 65.704 508.625 65.944 510.161 65.944C511.089 65.944 511.841 65.832 512.417 65.608C512.993 65.384 513.425 65.08 513.713 64.696C514.001 64.312 514.145 63.88 514.145 63.4C514.145 62.792 513.937 62.28 513.521 61.864C513.105 61.448 512.449 61.016 511.553 60.568C510.657 60.12 509.457 59.56 507.953 58.888C506.673 58.312 505.521 57.704 504.497 57.064C503.473 56.424 502.593 55.704 501.857 54.904C501.153 54.104 500.609 53.176 500.225 52.12C499.841 51.032 499.649 49.752 499.649 48.28C499.649 46.072 500.193 44.232 501.281 42.76C502.369 41.256 503.873 40.136 505.793 39.4C507.745 38.632 510.001 38.248 512.561 38.248C514.801 38.248 516.817 38.504 518.609 39.016C520.401 39.496 522.001 40.056 523.409 40.696L520.577 47.848C519.105 47.176 517.649 46.648 516.209 46.264C514.801 45.848 513.489 45.64 512.273 45.64C511.473 45.64 510.817 45.736 510.305 45.928C509.793 46.12 509.409 46.392 509.153 46.744C508.929 47.064 508.817 47.432 508.817 47.848C508.817 48.392 509.025 48.872 509.441 49.288C509.857 49.704 510.545 50.168 511.505 50.68C512.497 51.16 513.841 51.784 515.537 52.552C517.201 53.288 518.609 54.104 519.761 55C520.945 55.864 521.841 56.904 522.449 58.12C523.089 59.304 523.409 60.792 523.409 62.584ZM560.76 55.816C560.76 58.472 560.44 60.888 559.8 63.064C559.16 65.208 558.168 67.064 556.824 68.632C555.48 70.2 553.752 71.4 551.64 72.232C549.56 73.064 547.048 73.48 544.104 73.48C541.224 73.48 538.728 73.064 536.616 72.232C534.536 71.4 532.808 70.2 531.432 68.632C530.088 67.064 529.08 65.208 528.408 63.064C527.768 60.888 527.448 58.456 527.448 55.768C527.448 52.216 528.04 49.128 529.224 46.504C530.408 43.848 532.232 41.8 534.696 40.36C537.16 38.92 540.312 38.2 544.152 38.2C548.056 38.2 551.224 38.936 553.656 40.408C556.12 41.848 557.912 43.896 559.032 46.552C560.184 49.176 560.76 52.264 560.76 55.816ZM537.192 55.816C537.192 57.864 537.416 59.64 537.864 61.144C538.344 62.616 539.096 63.752 540.12 64.552C541.144 65.352 542.472 65.752 544.104 65.752C545.8 65.752 547.144 65.352 548.136 64.552C549.16 63.752 549.896 62.616 550.344 61.144C550.792 59.64 551.016 57.864 551.016 55.816C551.016 52.712 550.504 50.264 549.48 48.472C548.456 46.68 546.68 45.784 544.152 45.784C542.488 45.784 541.144 46.2 540.12 47.032C539.096 47.832 538.344 48.984 537.864 50.488C537.416 51.96 537.192 53.736 537.192 55.816ZM579.415 73V38.728H588.679V65.512H601.879V73H579.415ZM627.704 73H607.352V38.728H627.704V46.168H616.616V51.544H626.888V58.984H616.616V65.464H627.704V73ZM647.472 52.936H662.256V71.416C660.496 72.024 658.464 72.52 656.16 72.904C653.888 73.288 651.504 73.48 649.008 73.48C645.712 73.48 642.816 72.84 640.32 71.56C637.856 70.28 635.92 68.328 634.512 65.704C633.136 63.08 632.448 59.768 632.448 55.768C632.448 52.184 633.136 49.08 634.512 46.456C635.888 43.832 637.904 41.816 640.56 40.408C643.248 38.968 646.544 38.248 650.448 38.248C652.592 38.248 654.624 38.456 656.544 38.872C658.464 39.256 660.128 39.768 661.536 40.408L658.608 47.656C657.392 47.048 656.112 46.6 654.768 46.312C653.424 45.992 652 45.832 650.496 45.832C648.448 45.832 646.8 46.296 645.552 47.224C644.304 48.152 643.392 49.384 642.816 50.92C642.272 52.456 642 54.152 642 56.008C642 58.12 642.304 59.912 642.912 61.384C643.52 62.856 644.4 63.976 645.552 64.744C646.704 65.48 648.112 65.848 649.776 65.848C650.16 65.848 650.592 65.832 651.072 65.8C651.552 65.768 652.016 65.72 652.464 65.656C652.944 65.592 653.312 65.528 653.568 65.464V60.088H647.472V52.936ZM685.019 73H667.163V67.72L671.435 66.088V45.592L667.163 44.008V38.728H685.019V44.008L680.747 45.592V66.088L685.019 67.72V73ZM712.784 62.584C712.784 64.44 712.304 66.2 711.344 67.864C710.416 69.528 708.96 70.888 706.976 71.944C705.024 72.968 702.48 73.48 699.344 73.48C697.776 73.48 696.4 73.4 695.216 73.24C694.064 73.112 692.976 72.888 691.952 72.568C690.928 72.248 689.872 71.832 688.784 71.32V63.064C690.64 63.992 692.512 64.712 694.4 65.224C696.288 65.704 698 65.944 699.536 65.944C700.464 65.944 701.216 65.832 701.792 65.608C702.368 65.384 702.8 65.08 703.088 64.696C703.376 64.312 703.52 63.88 703.52 63.4C703.52 62.792 703.312 62.28 702.896 61.864C702.48 61.448 701.824 61.016 700.928 60.568C700.032 60.12 698.832 59.56 697.328 58.888C696.048 58.312 694.896 57.704 693.872 57.064C692.848 56.424 691.968 55.704 691.232 54.904C690.528 54.104 689.984 53.176 689.6 52.12C689.216 51.032 689.024 49.752 689.024 48.28C689.024 46.072 689.568 44.232 690.656 42.76C691.744 41.256 693.248 40.136 695.168 39.4C697.12 38.632 699.376 38.248 701.936 38.248C704.176 38.248 706.192 38.504 707.984 39.016C709.776 39.496 711.376 40.056 712.784 40.696L709.952 47.848C708.48 47.176 707.024 46.648 705.584 46.264C704.176 45.848 702.864 45.64 701.648 45.64C700.848 45.64 700.192 45.736 699.68 45.928C699.168 46.12 698.784 46.392 698.528 46.744C698.304 47.064 698.192 47.432 698.192 47.848C698.192 48.392 698.4 48.872 698.816 49.288C699.232 49.704 699.92 50.168 700.88 50.68C701.872 51.16 703.216 51.784 704.912 52.552C706.576 53.288 707.984 54.104 709.136 55C710.32 55.864 711.216 56.904 711.824 58.12C712.464 59.304 712.784 60.792 712.784 62.584ZM718.071 73V38.728H727.335V65.512H740.535V73H718.071ZM767.033 73L765.353 66.568H754.217L752.489 73H742.312L753.497 38.584H765.833L777.161 73H767.033ZM761.945 53.368C761.785 52.76 761.561 51.896 761.273 50.776C760.985 49.624 760.697 48.44 760.409 47.224C760.121 46.008 759.897 45.016 759.737 44.248C759.609 45.016 759.401 45.976 759.113 47.128C758.857 48.28 758.585 49.416 758.297 50.536C758.041 51.656 757.817 52.6 757.625 53.368L756.137 58.984H763.433L761.945 53.368ZM792.582 73H783.318V46.312H774.966V38.728H800.934V46.312H792.582V73ZM821.613 73H803.757V67.72L808.029 66.088V45.592L803.757 44.008V38.728H821.613V44.008L817.341 45.592V66.088L821.613 67.72V73ZM856.578 38.728L845.346 73H834.45L823.266 38.728H833.682L838.338 56.104C838.498 56.744 838.69 57.576 838.914 58.6C839.138 59.624 839.346 60.648 839.538 61.672C839.762 62.696 839.89 63.528 839.922 64.168C839.986 63.528 840.098 62.712 840.258 61.72C840.45 60.696 840.642 59.688 840.834 58.696C841.058 57.672 841.266 56.84 841.458 56.2L846.21 38.728H856.578ZM891.885 55.816C891.885 58.472 891.565 60.888 890.925 63.064C890.285 65.208 889.293 67.064 887.949 68.632C886.605 70.2 884.877 71.4 882.765 72.232C880.685 73.064 878.173 73.48 875.229 73.48C872.349 73.48 869.853 73.064 867.741 72.232C865.661 71.4 863.933 70.2 862.557 68.632C861.213 67.064 860.205 65.208 859.533 63.064C858.893 60.888 858.573 58.456 858.573 55.768C858.573 52.216 859.165 49.128 860.349 46.504C861.533 43.848 863.357 41.8 865.821 40.36C868.285 38.92 871.437 38.2 875.277 38.2C879.181 38.2 882.349 38.936 884.781 40.408C887.245 41.848 889.037 43.896 890.157 46.552C891.309 49.176 891.885 52.264 891.885 55.816ZM868.317 55.816C868.317 57.864 868.541 59.64 868.989 61.144C869.469 62.616 870.221 63.752 871.245 64.552C872.269 65.352 873.597 65.752 875.229 65.752C876.925 65.752 878.269 65.352 879.261 64.552C880.285 63.752 881.021 62.616 881.469 61.144C881.917 59.64 882.141 57.864 882.141 55.816C882.141 52.712 881.629 50.264 880.605 48.472C879.581 46.68 877.805 45.784 875.277 45.784C873.613 45.784 872.269 46.2 871.245 47.032C870.221 47.832 869.469 48.984 868.989 50.488C868.541 51.96 868.317 53.736 868.317 55.816ZM162.704 101.288C161.659 101.288 160.731 101.48 159.92 101.864C159.109 102.248 158.416 102.803 157.84 103.528C157.285 104.253 156.859 105.128 156.56 106.152C156.283 107.176 156.144 108.328 156.144 109.608C156.144 111.336 156.379 112.819 156.848 114.056C157.317 115.272 158.032 116.211 158.992 116.872C159.973 117.533 161.2 117.864 162.672 117.864C163.653 117.864 164.592 117.768 165.488 117.576C166.405 117.363 167.365 117.085 168.368 116.744V120.232C167.429 120.616 166.48 120.893 165.52 121.064C164.581 121.235 163.493 121.32 162.256 121.32C159.909 121.32 157.968 120.84 156.432 119.88C154.896 118.899 153.755 117.533 153.008 115.784C152.261 114.013 151.888 111.944 151.888 109.576C151.888 107.848 152.123 106.269 152.592 104.84C153.083 103.411 153.776 102.173 154.672 101.128C155.589 100.083 156.72 99.272 158.064 98.696C159.408 98.12 160.955 97.832 162.704 97.832C163.856 97.832 164.987 97.9707 166.096 98.248C167.227 98.504 168.283 98.8667 169.264 99.336L167.856 102.696C167.045 102.333 166.203 102.013 165.328 101.736C164.475 101.437 163.6 101.288 162.704 101.288ZM173.289 121V98.152H177.385V117.544H186.921V121H173.289ZM198.626 121H189.026V118.664L191.778 117.64V101.544L189.026 100.488V98.152H198.626V100.488L195.874 101.544V117.64L198.626 118.664V121ZM223.142 109.544C223.142 111.315 222.918 112.925 222.47 114.376C222.043 115.805 221.382 117.043 220.486 118.088C219.611 119.133 218.491 119.923 217.126 120.456L222.63 126.44H217.19L212.934 121.32C212.849 121.32 212.753 121.32 212.646 121.32C212.561 121.32 212.475 121.32 212.39 121.32C210.555 121.32 208.955 121.043 207.59 120.488C206.246 119.912 205.137 119.112 204.262 118.088C203.387 117.043 202.726 115.795 202.278 114.344C201.851 112.893 201.638 111.283 201.638 109.512C201.638 107.144 202.022 105.085 202.79 103.336C203.579 101.587 204.763 100.232 206.342 99.272C207.942 98.2907 209.969 97.8 212.422 97.8C214.833 97.8 216.827 98.2907 218.406 99.272C219.985 100.232 221.169 101.597 221.958 103.368C222.747 105.117 223.142 107.176 223.142 109.544ZM205.958 109.544C205.958 111.272 206.182 112.755 206.63 113.992C207.099 115.229 207.803 116.179 208.742 116.84C209.702 117.501 210.918 117.832 212.39 117.832C213.905 117.832 215.131 117.501 216.07 116.84C217.009 116.179 217.702 115.229 218.15 113.992C218.598 112.755 218.822 111.272 218.822 109.544C218.822 106.963 218.321 104.936 217.318 103.464C216.315 101.992 214.683 101.256 212.422 101.256C210.929 101.256 209.702 101.587 208.742 102.248C207.803 102.909 207.099 103.859 206.63 105.096C206.182 106.333 205.958 107.816 205.958 109.544ZM246.119 112.936C246.119 114.515 245.778 115.944 245.095 117.224C244.434 118.483 243.421 119.485 242.055 120.232C240.69 120.957 238.962 121.32 236.871 121.32C233.906 121.32 231.655 120.552 230.119 119.016C228.583 117.459 227.815 115.411 227.815 112.872V98.152H231.911V112.456C231.911 114.312 232.338 115.677 233.191 116.552C234.045 117.405 235.314 117.832 236.999 117.832C238.194 117.832 239.154 117.629 239.879 117.224C240.626 116.819 241.17 116.211 241.511 115.4C241.874 114.568 242.055 113.576 242.055 112.424V98.152H246.119V112.936ZM264.906 121H251.914V98.152H264.906V101.576H256.01V107.4H264.33V110.824H256.01V117.544H264.906V121ZM291.062 121H278.07V98.152H291.062V101.576H282.166V107.4H290.486V110.824H282.166V117.544H291.062V121ZM313.954 101.288C312.909 101.288 311.981 101.48 311.17 101.864C310.359 102.248 309.666 102.803 309.09 103.528C308.535 104.253 308.109 105.128 307.81 106.152C307.533 107.176 307.394 108.328 307.394 109.608C307.394 111.336 307.629 112.819 308.098 114.056C308.567 115.272 309.282 116.211 310.242 116.872C311.223 117.533 312.45 117.864 313.922 117.864C314.903 117.864 315.842 117.768 316.738 117.576C317.655 117.363 318.615 117.085 319.618 116.744V120.232C318.679 120.616 317.73 120.893 316.77 121.064C315.831 121.235 314.743 121.32 313.506 121.32C311.159 121.32 309.218 120.84 307.682 119.88C306.146 118.899 305.005 117.533 304.258 115.784C303.511 114.013 303.138 111.944 303.138 109.576C303.138 107.848 303.373 106.269 303.842 104.84C304.333 103.411 305.026 102.173 305.922 101.128C306.839 100.083 307.97 99.272 309.314 98.696C310.658 98.12 312.205 97.832 313.954 97.832C315.106 97.832 316.237 97.9707 317.346 98.248C318.477 98.504 319.533 98.8667 320.514 99.336L319.106 102.696C318.295 102.333 317.453 102.013 316.578 101.736C315.725 101.437 314.85 101.288 313.954 101.288ZM344.33 109.544C344.33 111.315 344.106 112.925 343.658 114.376C343.231 115.805 342.57 117.043 341.674 118.088C340.799 119.133 339.679 119.933 338.314 120.488C336.97 121.043 335.391 121.32 333.578 121.32C331.743 121.32 330.143 121.043 328.778 120.488C327.434 119.912 326.324 119.112 325.45 118.088C324.575 117.043 323.914 115.795 323.466 114.344C323.039 112.893 322.826 111.283 322.826 109.512C322.826 107.144 323.21 105.085 323.978 103.336C324.767 101.587 325.951 100.232 327.53 99.272C329.13 98.2907 331.156 97.8 333.61 97.8C336.02 97.8 338.015 98.2907 339.594 99.272C341.172 100.232 342.356 101.597 343.146 103.368C343.935 105.117 344.33 107.176 344.33 109.544ZM327.146 109.544C327.146 111.272 327.37 112.755 327.818 113.992C328.287 115.229 328.991 116.179 329.93 116.84C330.89 117.501 332.106 117.832 333.578 117.832C335.092 117.832 336.319 117.501 337.258 116.84C338.196 116.179 338.89 115.229 339.338 113.992C339.786 112.755 340.01 111.272 340.01 109.544C340.01 106.963 339.508 104.936 338.506 103.464C337.503 101.992 335.871 101.256 333.61 101.256C332.116 101.256 330.89 101.587 329.93 102.248C328.991 102.909 328.287 103.859 327.818 105.096C327.37 106.333 327.146 107.816 327.146 109.544ZM368.619 121H363.531L352.715 103.08H352.587C352.608 103.549 352.629 104.051 352.651 104.584C352.693 105.096 352.725 105.629 352.747 106.184C352.768 106.717 352.789 107.261 352.811 107.816C352.832 108.371 352.853 108.925 352.875 109.48V121H349.195V98.152H354.251L365.035 115.944H365.131C365.109 115.517 365.088 115.059 365.067 114.568C365.045 114.056 365.024 113.533 365.003 113C365.003 112.467 364.992 111.923 364.971 111.368C364.949 110.813 364.928 110.28 364.907 109.768V98.152H368.619V121ZM378.602 121H374.57V98.152H387.53V101.576H378.602V108.296H386.922V111.72H378.602V121ZM399.533 121H389.933V118.664L392.685 117.64V101.544L389.933 100.488V98.152H399.533V100.488L396.781 101.544V117.64L399.533 118.664V121ZM410.128 98.152C412.134 98.152 413.787 98.3973 415.088 98.888C416.39 99.3787 417.36 100.125 418 101.128C418.64 102.109 418.96 103.357 418.96 104.872C418.96 105.981 418.747 106.931 418.32 107.72C417.915 108.509 417.382 109.171 416.72 109.704C416.059 110.216 415.344 110.632 414.576 110.952L421.136 121H416.528L411.056 111.976H407.728V121H403.632V98.152H410.128ZM409.872 101.576H407.728V108.616H410C411.131 108.616 412.048 108.477 412.752 108.2C413.456 107.923 413.968 107.517 414.288 106.984C414.63 106.451 414.8 105.789 414.8 105C414.8 104.168 414.619 103.507 414.256 103.016C413.894 102.504 413.35 102.141 412.624 101.928C411.92 101.693 411.003 101.576 409.872 101.576ZM438.432 121L436.352 114.952H427.744L425.696 121H421.344L429.728 98.056H434.4L442.784 121H438.432ZM433.312 105.544C433.226 105.245 433.098 104.84 432.928 104.328C432.757 103.816 432.586 103.293 432.416 102.76C432.266 102.205 432.149 101.747 432.064 101.384C431.957 101.811 431.818 102.301 431.648 102.856C431.498 103.411 431.349 103.933 431.2 104.424C431.072 104.915 430.965 105.288 430.88 105.544L428.864 111.432H435.296L433.312 105.544Z" fill="#004680"/>
</g>
<defs>
<clipPath id="clip0_6871_160">
<rect width="1000" height="150" fill="white"/>
</clipPath>
</defs>
</svg>
