<svg width="1000" height="150" viewBox="0 0 1000 150" fill="none" xmlns="http://www.w3.org/2000/svg">
<g clip-path="url(#clip0_6871_139)">
<rect width="1000" height="150" rx="8" fill="#EDEDED"/>
<path d="M180.78 58.22C180.78 60.92 180.27 63.26 179.25 65.24C178.23 67.22 176.685 68.75 174.615 69.83C172.575 70.91 170.01 71.45 166.92 71.45C162.48 71.45 159.09 70.325 156.75 68.075C154.44 65.795 153.285 62.57 153.285 58.4V38.87H162.015V57.725C162.015 60.005 162.435 61.655 163.275 62.675C164.145 63.695 165.405 64.205 167.055 64.205C168.255 64.205 169.215 63.98 169.935 63.53C170.685 63.08 171.225 62.375 171.555 61.415C171.915 60.455 172.095 59.21 172.095 57.68V38.87H180.78V58.22ZM177.81 29.735C177.27 30.155 176.595 30.68 175.785 31.31C174.975 31.91 174.105 32.54 173.175 33.2C172.245 33.83 171.345 34.445 170.475 35.045C169.635 35.615 168.915 36.095 168.315 36.485H162.6V35.855C163.11 35.285 163.725 34.625 164.445 33.875C165.165 33.095 165.885 32.3 166.605 31.49C167.325 30.68 167.925 29.945 168.405 29.285H177.81V29.735ZM187.523 71V38.87H196.208V63.98H208.583V71H187.523ZM227.01 71H218.325V45.98H210.495V38.87H234.84V45.98H227.01V71ZM254.227 71H237.487V66.05L241.492 64.52V45.305L237.487 43.82V38.87H254.227V43.82L250.222 45.305V64.52L254.227 66.05V71ZM273.236 71L266.666 47.87H266.486C266.546 48.47 266.606 49.28 266.666 50.3C266.726 51.32 266.786 52.43 266.846 53.63C266.906 54.8 266.936 55.94 266.936 57.05V71H259.241V38.87H270.806L277.511 61.685H277.691L284.261 38.87H295.826V71H287.861V56.915C287.861 55.895 287.876 54.815 287.906 53.675C287.936 52.505 287.981 51.41 288.041 50.39C288.101 49.34 288.146 48.515 288.176 47.915H287.996L281.516 71H273.236ZM322.457 71L320.882 64.97H310.442L308.822 71H299.282L309.767 38.735H321.332L331.952 71H322.457ZM317.687 52.595C317.537 52.025 317.327 51.215 317.057 50.165C316.787 49.085 316.517 47.975 316.247 46.835C315.977 45.695 315.767 44.765 315.617 44.045C315.497 44.765 315.302 45.665 315.032 46.745C314.792 47.825 314.537 48.89 314.267 49.94C314.027 50.99 313.817 51.875 313.637 52.595L312.242 57.86H319.082L317.687 52.595ZM356.414 61.235C356.414 62.975 355.964 64.625 355.064 66.185C354.194 67.745 352.829 69.02 350.969 70.01C349.139 70.97 346.754 71.45 343.814 71.45C342.344 71.45 341.054 71.375 339.944 71.225C338.864 71.105 337.844 70.895 336.884 70.595C335.924 70.295 334.934 69.905 333.914 69.425V61.685C335.654 62.555 337.409 63.23 339.179 63.71C340.949 64.16 342.554 64.385 343.994 64.385C344.864 64.385 345.569 64.28 346.109 64.07C346.649 63.86 347.054 63.575 347.324 63.215C347.594 62.855 347.729 62.45 347.729 62C347.729 61.43 347.534 60.95 347.144 60.56C346.754 60.17 346.139 59.765 345.299 59.345C344.459 58.925 343.334 58.4 341.924 57.77C340.724 57.23 339.644 56.66 338.684 56.06C337.724 55.46 336.899 54.785 336.209 54.035C335.549 53.285 335.039 52.415 334.679 51.425C334.319 50.405 334.139 49.205 334.139 47.825C334.139 45.755 334.649 44.03 335.669 42.65C336.689 41.24 338.099 40.19 339.899 39.5C341.729 38.78 343.844 38.42 346.244 38.42C348.344 38.42 350.234 38.66 351.914 39.14C353.594 39.59 355.094 40.115 356.414 40.715L353.759 47.42C352.379 46.79 351.014 46.295 349.664 45.935C348.344 45.545 347.114 45.35 345.974 45.35C345.224 45.35 344.609 45.44 344.129 45.62C343.649 45.8 343.289 46.055 343.049 46.385C342.839 46.685 342.734 47.03 342.734 47.42C342.734 47.93 342.929 48.38 343.319 48.77C343.709 49.16 344.354 49.595 345.254 50.075C346.184 50.525 347.444 51.11 349.034 51.83C350.594 52.52 351.914 53.285 352.994 54.125C354.104 54.935 354.944 55.91 355.514 57.05C356.114 58.16 356.414 59.555 356.414 61.235ZM403.66 71H392.275L380.53 48.365H380.35C380.41 48.875 380.455 49.475 380.485 50.165C380.545 50.855 380.59 51.575 380.62 52.325C380.65 53.075 380.68 53.81 380.71 54.53C380.74 55.25 380.755 55.91 380.755 56.51V71H373.06V38.87H384.4L396.1 61.19H396.235C396.205 60.68 396.16 60.095 396.1 59.435C396.07 58.745 396.04 58.055 396.01 57.365C395.98 56.645 395.95 55.94 395.92 55.25C395.92 54.56 395.92 53.945 395.92 53.405V38.87H403.66V71ZM440.649 54.89C440.649 57.38 440.349 59.645 439.749 61.685C439.149 63.695 438.219 65.435 436.959 66.905C435.699 68.375 434.079 69.5 432.099 70.28C430.149 71.06 427.794 71.45 425.034 71.45C422.334 71.45 419.994 71.06 418.014 70.28C416.064 69.5 414.444 68.375 413.154 66.905C411.894 65.435 410.949 63.695 410.319 61.685C409.719 59.645 409.419 57.365 409.419 54.845C409.419 51.515 409.974 48.62 411.084 46.16C412.194 43.67 413.904 41.75 416.214 40.4C418.524 39.05 421.479 38.375 425.079 38.375C428.739 38.375 431.709 39.065 433.989 40.445C436.299 41.795 437.979 43.715 439.029 46.205C440.109 48.665 440.649 51.56 440.649 54.89ZM418.554 54.89C418.554 56.81 418.764 58.475 419.184 59.885C419.634 61.265 420.339 62.33 421.299 63.08C422.259 63.83 423.504 64.205 425.034 64.205C426.624 64.205 427.884 63.83 428.814 63.08C429.774 62.33 430.464 61.265 430.884 59.885C431.304 58.475 431.514 56.81 431.514 54.89C431.514 51.98 431.034 49.685 430.074 48.005C429.114 46.325 427.449 45.485 425.079 45.485C423.519 45.485 422.259 45.875 421.299 46.655C420.339 47.405 419.634 48.485 419.184 49.895C418.764 51.275 418.554 52.94 418.554 54.89ZM459.261 71H450.576V45.98H442.746V38.87H467.091V45.98H459.261V71ZM486.478 71H469.738V66.05L473.743 64.52V45.305L469.738 43.82V38.87H486.478V43.82L482.473 45.305V64.52L486.478 66.05V71ZM488.863 29.735C488.323 30.155 487.648 30.68 486.838 31.31C486.028 31.91 485.158 32.54 484.228 33.2C483.298 33.83 482.398 34.445 481.528 35.045C480.688 35.615 479.968 36.095 479.368 36.485H473.653V35.855C474.163 35.285 474.778 34.625 475.498 33.875C476.218 33.095 476.938 32.3 477.658 31.49C478.378 30.68 478.978 29.945 479.458 29.285H488.863V29.735ZM505.802 45.53C504.782 45.53 503.867 45.755 503.057 46.205C502.247 46.625 501.557 47.255 500.987 48.095C500.417 48.905 499.982 49.895 499.682 51.065C499.382 52.235 499.232 53.57 499.232 55.07C499.232 57.08 499.487 58.775 499.997 60.155C500.507 61.535 501.287 62.585 502.337 63.305C503.387 63.995 504.707 64.34 506.297 64.34C507.707 64.34 509.072 64.145 510.392 63.755C511.742 63.365 513.092 62.885 514.442 62.315V69.65C513.032 70.28 511.577 70.73 510.077 71C508.607 71.3 507.032 71.45 505.352 71.45C501.872 71.45 499.022 70.76 496.802 69.38C494.582 68 492.947 66.08 491.897 63.62C490.847 61.13 490.322 58.265 490.322 55.025C490.322 52.595 490.652 50.375 491.312 48.365C492.002 46.325 493.007 44.57 494.327 43.1C495.647 41.6 497.267 40.445 499.187 39.635C501.137 38.825 503.372 38.42 505.892 38.42C507.452 38.42 509.087 38.6 510.797 38.96C512.507 39.32 514.187 39.89 515.837 40.67L513.182 47.51C512.012 46.94 510.827 46.475 509.627 46.115C508.427 45.725 507.152 45.53 505.802 45.53ZM535.521 71H518.781V66.05L522.786 64.52V45.305L518.781 43.82V38.87H535.521V43.82L531.516 45.305V64.52L535.521 66.05V71ZM560.245 71L558.67 64.97H548.23L546.61 71H537.07L547.555 38.735H559.12L569.74 71H560.245ZM555.475 52.595C555.325 52.025 555.115 51.215 554.845 50.165C554.575 49.085 554.305 47.975 554.035 46.835C553.765 45.695 553.555 44.765 553.405 44.045C553.285 44.765 553.09 45.665 552.82 46.745C552.58 47.825 552.325 48.89 552.055 49.94C551.815 50.99 551.605 51.875 551.425 52.595L550.03 57.86H556.87L555.475 52.595ZM594.202 61.235C594.202 62.975 593.752 64.625 592.852 66.185C591.982 67.745 590.617 69.02 588.757 70.01C586.927 70.97 584.542 71.45 581.602 71.45C580.132 71.45 578.842 71.375 577.732 71.225C576.652 71.105 575.632 70.895 574.672 70.595C573.712 70.295 572.722 69.905 571.702 69.425V61.685C573.442 62.555 575.197 63.23 576.967 63.71C578.737 64.16 580.342 64.385 581.782 64.385C582.652 64.385 583.357 64.28 583.897 64.07C584.437 63.86 584.842 63.575 585.112 63.215C585.382 62.855 585.517 62.45 585.517 62C585.517 61.43 585.322 60.95 584.932 60.56C584.542 60.17 583.927 59.765 583.087 59.345C582.247 58.925 581.122 58.4 579.712 57.77C578.512 57.23 577.432 56.66 576.472 56.06C575.512 55.46 574.687 54.785 573.997 54.035C573.337 53.285 572.827 52.415 572.467 51.425C572.107 50.405 571.927 49.205 571.927 47.825C571.927 45.755 572.437 44.03 573.457 42.65C574.477 41.24 575.887 40.19 577.687 39.5C579.517 38.78 581.632 38.42 584.032 38.42C586.132 38.42 588.022 38.66 589.702 39.14C591.382 39.59 592.882 40.115 594.202 40.715L591.547 47.42C590.167 46.79 588.802 46.295 587.452 45.935C586.132 45.545 584.902 45.35 583.762 45.35C583.012 45.35 582.397 45.44 581.917 45.62C581.437 45.8 581.077 46.055 580.837 46.385C580.627 46.685 580.522 47.03 580.522 47.42C580.522 47.93 580.717 48.38 581.107 48.77C581.497 49.16 582.142 49.595 583.042 50.075C583.972 50.525 585.232 51.11 586.822 51.83C588.382 52.52 589.702 53.285 590.782 54.125C591.892 54.935 592.732 55.91 593.302 57.05C593.902 58.16 594.202 59.555 594.202 61.235ZM162.704 99.288C161.659 99.288 160.731 99.48 159.92 99.864C159.109 100.248 158.416 100.803 157.84 101.528C157.285 102.253 156.859 103.128 156.56 104.152C156.283 105.176 156.144 106.328 156.144 107.608C156.144 109.336 156.379 110.819 156.848 112.056C157.317 113.272 158.032 114.211 158.992 114.872C159.973 115.533 161.2 115.864 162.672 115.864C163.653 115.864 164.592 115.768 165.488 115.576C166.405 115.363 167.365 115.085 168.368 114.744V118.232C167.429 118.616 166.48 118.893 165.52 119.064C164.581 119.235 163.493 119.32 162.256 119.32C159.909 119.32 157.968 118.84 156.432 117.88C154.896 116.899 153.755 115.533 153.008 113.784C152.261 112.013 151.888 109.944 151.888 107.576C151.888 105.848 152.123 104.269 152.592 102.84C153.083 101.411 153.776 100.173 154.672 99.128C155.589 98.0827 156.72 97.272 158.064 96.696C159.408 96.12 160.955 95.832 162.704 95.832C163.856 95.832 164.987 95.9707 166.096 96.248C167.227 96.504 168.283 96.8667 169.264 97.336L167.856 100.696C167.045 100.333 166.203 100.013 165.328 99.736C164.475 99.4373 163.6 99.288 162.704 99.288ZM173.289 119V96.152H177.385V115.544H186.921V119H173.289ZM198.626 119H189.026V116.664L191.778 115.64V99.544L189.026 98.488V96.152H198.626V98.488L195.874 99.544V115.64L198.626 116.664V119ZM223.142 107.544C223.142 109.315 222.918 110.925 222.47 112.376C222.043 113.805 221.382 115.043 220.486 116.088C219.611 117.133 218.491 117.923 217.126 118.456L222.63 124.44H217.19L212.934 119.32C212.849 119.32 212.753 119.32 212.646 119.32C212.561 119.32 212.475 119.32 212.39 119.32C210.555 119.32 208.955 119.043 207.59 118.488C206.246 117.912 205.137 117.112 204.262 116.088C203.387 115.043 202.726 113.795 202.278 112.344C201.851 110.893 201.638 109.283 201.638 107.512C201.638 105.144 202.022 103.085 202.79 101.336C203.579 99.5867 204.763 98.232 206.342 97.272C207.942 96.2907 209.969 95.8 212.422 95.8C214.833 95.8 216.827 96.2907 218.406 97.272C219.985 98.232 221.169 99.5973 221.958 101.368C222.747 103.117 223.142 105.176 223.142 107.544ZM205.958 107.544C205.958 109.272 206.182 110.755 206.63 111.992C207.099 113.229 207.803 114.179 208.742 114.84C209.702 115.501 210.918 115.832 212.39 115.832C213.905 115.832 215.131 115.501 216.07 114.84C217.009 114.179 217.702 113.229 218.15 111.992C218.598 110.755 218.822 109.272 218.822 107.544C218.822 104.963 218.321 102.936 217.318 101.464C216.315 99.992 214.683 99.256 212.422 99.256C210.929 99.256 209.702 99.5867 208.742 100.248C207.803 100.909 207.099 101.859 206.63 103.096C206.182 104.333 205.958 105.816 205.958 107.544ZM246.119 110.936C246.119 112.515 245.778 113.944 245.095 115.224C244.434 116.483 243.421 117.485 242.055 118.232C240.69 118.957 238.962 119.32 236.871 119.32C233.906 119.32 231.655 118.552 230.119 117.016C228.583 115.459 227.815 113.411 227.815 110.872V96.152H231.911V110.456C231.911 112.312 232.338 113.677 233.191 114.552C234.045 115.405 235.314 115.832 236.999 115.832C238.194 115.832 239.154 115.629 239.879 115.224C240.626 114.819 241.17 114.211 241.511 113.4C241.874 112.568 242.055 111.576 242.055 110.424V96.152H246.119V110.936ZM264.906 119H251.914V96.152H264.906V99.576H256.01V105.4H264.33V108.824H256.01V115.544H264.906V119ZM291.062 119H278.07V96.152H291.062V99.576H282.166V105.4H290.486V108.824H282.166V115.544H291.062V119ZM313.954 99.288C312.909 99.288 311.981 99.48 311.17 99.864C310.359 100.248 309.666 100.803 309.09 101.528C308.535 102.253 308.109 103.128 307.81 104.152C307.533 105.176 307.394 106.328 307.394 107.608C307.394 109.336 307.629 110.819 308.098 112.056C308.567 113.272 309.282 114.211 310.242 114.872C311.223 115.533 312.45 115.864 313.922 115.864C314.903 115.864 315.842 115.768 316.738 115.576C317.655 115.363 318.615 115.085 319.618 114.744V118.232C318.679 118.616 317.73 118.893 316.77 119.064C315.831 119.235 314.743 119.32 313.506 119.32C311.159 119.32 309.218 118.84 307.682 117.88C306.146 116.899 305.005 115.533 304.258 113.784C303.511 112.013 303.138 109.944 303.138 107.576C303.138 105.848 303.373 104.269 303.842 102.84C304.333 101.411 305.026 100.173 305.922 99.128C306.839 98.0827 307.97 97.272 309.314 96.696C310.658 96.12 312.205 95.832 313.954 95.832C315.106 95.832 316.237 95.9707 317.346 96.248C318.477 96.504 319.533 96.8667 320.514 97.336L319.106 100.696C318.295 100.333 317.453 100.013 316.578 99.736C315.725 99.4373 314.85 99.288 313.954 99.288ZM344.33 107.544C344.33 109.315 344.106 110.925 343.658 112.376C343.231 113.805 342.57 115.043 341.674 116.088C340.799 117.133 339.679 117.933 338.314 118.488C336.97 119.043 335.391 119.32 333.578 119.32C331.743 119.32 330.143 119.043 328.778 118.488C327.434 117.912 326.324 117.112 325.45 116.088C324.575 115.043 323.914 113.795 323.466 112.344C323.039 110.893 322.826 109.283 322.826 107.512C322.826 105.144 323.21 103.085 323.978 101.336C324.767 99.5867 325.951 98.232 327.53 97.272C329.13 96.2907 331.156 95.8 333.61 95.8C336.02 95.8 338.015 96.2907 339.594 97.272C341.172 98.232 342.356 99.5973 343.146 101.368C343.935 103.117 344.33 105.176 344.33 107.544ZM327.146 107.544C327.146 109.272 327.37 110.755 327.818 111.992C328.287 113.229 328.991 114.179 329.93 114.84C330.89 115.501 332.106 115.832 333.578 115.832C335.092 115.832 336.319 115.501 337.258 114.84C338.196 114.179 338.89 113.229 339.338 111.992C339.786 110.755 340.01 109.272 340.01 107.544C340.01 104.963 339.508 102.936 338.506 101.464C337.503 99.992 335.871 99.256 333.61 99.256C332.116 99.256 330.89 99.5867 329.93 100.248C328.991 100.909 328.287 101.859 327.818 103.096C327.37 104.333 327.146 105.816 327.146 107.544ZM368.619 119H363.531L352.715 101.08H352.587C352.608 101.549 352.629 102.051 352.651 102.584C352.693 103.096 352.725 103.629 352.747 104.184C352.768 104.717 352.789 105.261 352.811 105.816C352.832 106.371 352.853 106.925 352.875 107.48V119H349.195V96.152H354.251L365.035 113.944H365.131C365.109 113.517 365.088 113.059 365.067 112.568C365.045 112.056 365.024 111.533 365.003 111C365.003 110.467 364.992 109.923 364.971 109.368C364.949 108.813 364.928 108.28 364.907 107.768V96.152H368.619V119ZM378.602 119H374.57V96.152H387.53V99.576H378.602V106.296H386.922V109.72H378.602V119ZM399.533 119H389.933V116.664L392.685 115.64V99.544L389.933 98.488V96.152H399.533V98.488L396.781 99.544V115.64L399.533 116.664V119ZM410.128 96.152C412.134 96.152 413.787 96.3973 415.088 96.888C416.39 97.3787 417.36 98.1253 418 99.128C418.64 100.109 418.96 101.357 418.96 102.872C418.96 103.981 418.747 104.931 418.32 105.72C417.915 106.509 417.382 107.171 416.72 107.704C416.059 108.216 415.344 108.632 414.576 108.952L421.136 119H416.528L411.056 109.976H407.728V119H403.632V96.152H410.128ZM409.872 99.576H407.728V106.616H410C411.131 106.616 412.048 106.477 412.752 106.2C413.456 105.923 413.968 105.517 414.288 104.984C414.63 104.451 414.8 103.789 414.8 103C414.8 102.168 414.619 101.507 414.256 101.016C413.894 100.504 413.35 100.141 412.624 99.928C411.92 99.6933 411.003 99.576 409.872 99.576ZM438.432 119L436.352 112.952H427.744L425.696 119H421.344L429.728 96.056H434.4L442.784 119H438.432ZM433.312 103.544C433.226 103.245 433.098 102.84 432.928 102.328C432.757 101.816 432.586 101.293 432.416 100.76C432.266 100.205 432.149 99.7467 432.064 99.384C431.957 99.8107 431.818 100.301 431.648 100.856C431.498 101.411 431.349 101.933 431.2 102.424C431.072 102.915 430.965 103.288 430.88 103.544L428.864 109.432H435.296L433.312 103.544Z" fill="#004680"/>
</g>
<defs>
<clipPath id="clip0_6871_139">
<rect width="1000" height="150" fill="white"/>
</clipPath>
</defs>
</svg>
